<?xml version="1.0" standalone="no"?>
<!DOCTYPE svg PUBLIC "-//W3C//DTD SVG 1.1//EN" "http://www.w3.org/Graphics/SVG/1.1/DTD/svg11.dtd" >
<svg>
<metadata>
Created by FontForge 20090914 at Thu Aug  9 10:21:34 2018
 By www-data
D-Studio; Dubina Nikolay; Moskow; 1998
</metadata>
<defs>
<font id="Scrawl" horiz-adv-x="545" >
  <font-face 
    font-family="Scrawl"
    font-weight="400"
    font-stretch="normal"
    units-per-em="1000"
    panose-1="3 11 5 0 0 0 0 0 0 0"
    ascent="800"
    descent="-200"
    x-height="463.997"
    cap-height="738"
    bbox="19.9941 -673.005 1065 1038"
    underline-thickness="10"
    underline-position="-127"
    unicode-range="U+0020-U+F103"
  />
<missing-glyph horiz-adv-x="670" 
d="M40 0v779h590v-779h-590zM80 40h510v699h-510v-699z" />
    <glyph glyph-name=".notdef" horiz-adv-x="670" 
d="M40 0v779h590v-779h-590zM80 40h510v699h-510v-699z" />
    <glyph glyph-name="space" unicode=" " horiz-adv-x="500" 
 />
    <glyph glyph-name="exclam" unicode="!" horiz-adv-x="341" 
d="M21 103c4 12.667 14.168 24.334 30.501 35.001s34.833 19.5 55.5 26.5s42.334 12.5 65.001 16.5s42.667 6 60 6c59.333 0 89 -19.667 89 -59v-11c0 -18.667 -6.83301 -35.667 -20.5 -51s-28.834 -27.333 -45.501 -36c-30.667 -15.333 -68 -23 -112 -23v110
c-11.333 -3.33301 -21.333 -6.66602 -30 -9.99902s-17 -7.5 -25 -12.5s-16.333 -11.333 -25 -19s-18.334 -16.834 -29.001 -27.501c-5.33301 5.33301 -9 12 -11 20s-3 15.333 -3 22c0 7.33301 0.333008 11.666 1 12.999zM198.001 854
c0 -14.667 -3.33203 -38.3301 -9.99902 -70.9971l-21.5 -103l-21.5 -103c-6.66699 -32.667 -10 -56.334 -10 -71.001c0 -68.667 25.333 -121 76 -157c-50.667 0 -86.334 14.667 -107.001 44c-16.667 23.333 -25 58.333 -25 105c0 10.667 0.666992 25.167 2 43.5
s3.83301 38.5 7.5 60.5s8.16699 44.667 13.5 68s12 45.666 20 66.999c1.33301 4.66699 6 17.667 14 39l35 91c14 8 23 12 27 12c-1.33301 -4 -3.83301 -8.83301 -7.5 -14.5s-5.5 -8.83398 -5.5 -9.50098c0 -2 1.33301 -3 4 -3c0.666992 0 3.66699 0.666992 9 2z" />
    <glyph glyph-name="quotedbl" unicode="&#x22;" horiz-adv-x="278" 
d="M42 839h14l26 -28c8.66699 -8.66699 13 -29.334 13 -62.001v-32c0 -13.333 -0.5 -28 -1.5 -44s-2.33301 -32.333 -4 -49s-4.16699 -31.667 -7.5 -45c-41.333 17.333 -62 59 -62 125c0 10.667 0.833008 22 2.5 34s3.5 24.333 5.5 37
c0.666992 2.66699 2.16699 9.33398 4.5 20.001zM258 621l-25.001 26.001c-6 6 -12.167 15.5 -18.5 28.5s-12.166 26.833 -17.499 41.5s-9.83301 28.667 -13.5 42s-5.5 23 -5.5 29c0 15.333 18.333 27.666 55 36.999c8.66699 -39.333 15 -75.833 19 -109.5s6 -65.167 6 -94.5
z" />
    <glyph glyph-name="numbersign" unicode="#" horiz-adv-x="655" 
d="M428 574l2.00098 -0.00292969l41 -151c4 -14 10.833 -24.667 20.5 -32s21.834 -12.666 36.501 -15.999s31.167 -5.33301 49.5 -6s37.5 -1 57.5 -1l-88 -25c-42 -12 -63 -31 -63 -57c0 -20 6.5 -32.333 19.5 -37s27.5 -7 43.5 -7h30c3.33301 0 8.16602 -0.5 14.499 -1.5
s12.166 -2.16699 17.499 -3.5s9.5 -2.5 12.5 -3.5s2.83301 -1.5 -0.5 -1.5h-1c-7.33301 0 -17.5 -0.666992 -30.5 -2s-26.333 -3.66602 -40 -6.99902s-26.5 -7.66602 -38.5 -12.999s-21 -12 -27 -20c-4.66699 -5.33301 -9 -17 -13 -35s-8.66699 -42.333 -14 -73
c-1.33301 -8 -4.33301 -17 -9 -27s-9.5 -18.333 -14.5 -25s-9.33301 -10 -13 -10s-5.5 6.33301 -5.5 19c0 8.66699 0.666992 21.334 2 38.001s2 29 2 37c0 18 -2.5 32.333 -7.5 43s-12 18.834 -21 24.501s-19.333 9.16699 -31 10.5s-24.5 2 -38.5 2
c-20.667 0 -38.667 -3 -54 -9s-28.666 -14.333 -39.999 -25c-20 -18.667 -34.333 -49.334 -43 -92.001c-11.333 6.66699 -20.333 14.334 -27 23.001l-27 32c-9.33301 10.667 -24 17.167 -44 19.5s-37.667 4.83301 -53 7.5c10 10.667 21.667 20.667 35 30
s25.833 19.666 37.5 30.999s21.667 23.833 30 37.5s12.5 30.5 12.5 50.5c0 30.667 -14.667 56.667 -44 78c-44.667 32.667 -72.667 57 -84 73h9c6 0 13.833 -0.666992 23.5 -2s19.334 -3 29.001 -5s18.667 -3.66699 27 -5s13.833 -2 16.5 -2
c8.66699 0 16.167 3.66699 22.5 11s12.333 15.166 18 23.499l15.5 23.5c4.66699 7.33301 10 11 16 11l14 -13h14c0 -64 29.667 -96 89 -96c22.667 0 52 4.66699 88 14c-6 42 -9 73.667 -9 95c0 26 3 53.333 9 82c6.66699 4.66699 11.667 7 15 7s5.66602 -2 6.99902 -6
s2.66602 -8.66699 3.99902 -14zM417.001 313.997c-4.66699 6.66699 -11.999 12.168 -21.999 16.501s-21.167 8 -33.5 11s-25.333 5.16699 -39 6.5s-26.167 2 -37.5 2c-24.667 0 -44.834 -6.33301 -60.501 -19s-23.5 -27.667 -23.5 -45c0 -16 6.5 -29 19.5 -39
s28.167 -15 45.5 -15c6.66699 0 17.167 0.666992 31.5 2s29.333 3 45 5s30.5 3.66699 44.5 5s24.667 2 32 2v40c0 15.333 -0.666992 24.666 -2 27.999z" />
    <glyph glyph-name="dollar" unicode="$" horiz-adv-x="671" 
d="M21 300l-0.000976562 14.001c-0.666992 0.666992 -1 2 -1 4c0 14.667 10.333 29.834 31 45.501s44.167 30.334 70.5 44.001s51.833 26 76.5 37s41.334 19.167 50.001 24.5c25.333 16 40.666 37 45.999 63c24 106.667 38 165.334 42 176.001
c6.66699 17.333 14.834 34.833 24.501 52.5s20.5 33.5 32.5 47.5s25.167 25.333 39.5 34s29.5 13 45.5 13c44 0 84.667 -32 122 -96c34 -58 51 -115.667 51 -173v-14c0 -18.667 -6 -38.834 -18 -60.501s-27.667 -43.5 -47 -65.5c-26.667 -30 -47 -53.833 -61 -71.5
s-22.333 -28.834 -25 -33.501c13.333 -3.33301 28.5 -6.83301 45.5 -10.5s33.167 -8.33398 48.5 -14.001s28.333 -13 39 -22s16 -20.833 16 -35.5c0 -43.333 -33.667 -84.333 -101 -123c-38 -22.667 -90.667 -45.334 -158 -68.001c30 -48.667 71 -80 123 -94
c-30 -8.66699 -53.667 -13 -71 -13c-15.333 0 -33.333 4.33301 -54 13c-5.33301 2.66699 -11 9 -17 19l-19 31.5c-6.66699 11 -13.667 21 -21 30s-15 13.5 -23 13.5h-36h-18c-30.667 0 -53.334 13.5 -68.001 40.5s-22 58.833 -22 95.5c0 20 2.66699 42.667 8 68
c-21.333 0 -46.666 3.16699 -75.999 9.5s-54.333 12.5 -75 18.5zM375.999 532.001l31.999 -0.00390625c6.66699 0 16.834 1.83301 30.501 5.5s27.834 7.83398 42.501 12.501l42 14c13.333 4.66699 23.666 8 30.999 10c17.333 4.66699 30.166 10.334 38.499 17.001
s12.5 16.334 12.5 29.001c0 8.66699 -3.83301 22 -11.5 40s-17.334 36 -29.001 54s-24.667 33.833 -39 47.5s-28.166 20.5 -41.499 20.5c-17.333 0 -32.666 -8.16699 -45.999 -24.5s-24.833 -36.166 -34.5 -59.499s-17 -47.5 -22 -72.5s-7.5 -45.833 -7.5 -62.5v-15.5
c0 -5 0.666992 -10.167 2 -15.5zM581.998 504.997l-15 13.001h-27c-4 0 -7.5 0.333008 -10.5 1s-5.16699 1 -6.5 1c-6.66699 0 -15 -1.5 -25 -4.5s-23.333 -6.5 -40 -10.5c-32 -8 -57.167 -18.333 -75.5 -31s-27.5 -34 -27.5 -64c0 -18.667 2.33301 -37.334 7 -56.001
c46.667 6 90 22 130 48c42 28 72 62.333 90 103zM225.998 422.998c-20 -4.66699 -37.001 -9.33301 -51.001 -14s-25 -9.66699 -33 -15c-24.667 -14.667 -42 -36.667 -52 -66c14 -5.33301 27.5 -9.33301 40.5 -12s26.167 -4 39.5 -4c68 0 102 32.667 102 98
c0 12 -1.16699 20.333 -3.5 25s-5.16602 7 -8.49902 7c-5.33301 0 -11 -3 -17 -9s-11.667 -9.33301 -17 -10zM361.997 285.999l-13 -14.001v-13l13 -13c-1.33301 -10.667 -2.33301 -21.667 -3 -33s-1 -22.666 -1 -33.999c0 -20.667 5.33301 -35.334 16 -44.001
s24 -13 40 -13c13.333 0 28.666 4 45.999 12s34.5 18.167 51.5 30.5s33 25.833 48 40.5s26.5 28.334 34.5 41.001c-57.333 26.667 -134.666 40 -231.999 40zM239.997 107.998l6.00098 0.00195312c9.33301 0 16.666 1 21.999 3s11.333 8.33301 18 19
c6.66699 9.33301 11.5 20.166 14.5 32.499s4.5 24.833 4.5 37.5c0 40.667 -16.333 61 -49 61c-21.333 0 -38.833 -7.83301 -52.5 -23.5s-20.5 -34.834 -20.5 -57.501c0 -42 19 -66 57 -72z" />
    <glyph glyph-name="percent" unicode="%" horiz-adv-x="873" 
d="M143 628c4.66699 21.333 11.333 36.0029 20 44.0029c15.333 8.66699 31 19 47 31s25.667 32.333 29 61c4.66699 45.333 25.667 80.666 63 105.999c33.333 22 73.666 33 120.999 33h17c28.667 0 50.667 -6.33301 66 -19s23 -28 23 -46c0 -12 -5.66699 -36.667 -17 -74
c3.33301 -0.666992 10.333 -1 21 -1c28 0 60 7.66699 96 23l101 46c0 -41.333 -20.333 -84.666 -61 -129.999c-4 -4.66699 -11 -11.834 -21 -21.501l-33.5 -32.5l-39 -38.5c-13.667 -13.667 -25.834 -26.834 -36.501 -39.501c-8.66699 -10 -40.667 -50 -96 -120l-72 -90
l-74 -90l-30.5 -39l-46.5 -61.5l-43.5 -58.5c-13 -17.333 -20.167 -27.333 -21.5 -30c-25.333 -40.667 -38 -76.334 -38 -107.001c0 -16 4.33301 -34.667 13 -56l-37 -19.5c-13.333 -7 -25.666 -10.5 -36.999 -10.5c-3.33301 0 -8 0.333008 -14 1s-13.333 1.66699 -22 3
c4 21.333 10 42.833 18 64.5s18.333 43.5 31 65.5c8.66699 17.333 20 36 34 56l46 64c3.33301 5.33301 12.5 17.5 27.5 36.5l62.5 80.5l354 464c-52.667 0 -106.334 -12.667 -161.001 -38l-64 -30.5l-91 -42.5c-53.333 -25.333 -107.333 -38 -162 -38
c8.66699 4 15.334 13 20.001 27s7.33398 23 8.00098 27zM416.999 710.003l26 27.999l41 54c2 2.66699 3 6.83398 3 12.501v11.5c0 14.667 -3.83301 25 -11.5 31s-18.5 9 -32.5 9c-8.66699 0 -19.167 -1.66699 -31.5 -5s-25 -7.5 -38 -12.5s-25.333 -10.5 -37 -16.5
s-21.5 -11.667 -29.5 -17c7.33301 -2.66699 18.333 -5.5 33 -8.5s26.334 -4.5 35.001 -4.5v-30c0 -14 3.16699 -23.5 9.5 -28.5s17.166 -12.833 32.499 -23.5zM238.999 682.002l-35.998 -23.999c-6.66699 -4.66699 -12.5 -9.5 -17.5 -14.5s-9.83301 -10.167 -14.5 -15.5
c19.333 -4 34.666 -6 45.999 -6c37.333 0 72 20 104 60c-8 4 -16.833 10 -26.5 18l-28.5 23c0 -8.66699 -3.83301 -17.334 -11.5 -26.001s-12.834 -13.667 -15.501 -15zM853.001 205.003v-7.00098c0 -28.667 -31.333 -60.667 -94 -96c-30.667 -17.333 -60.167 -31 -88.5 -41
s-58.833 -22.333 -91.5 -37c-17.333 -7.33301 -31.5 -12.5 -42.5 -15.5s-21.167 -4.5 -30.5 -4.5c-18.667 0 -36 4.33301 -52 13s-24 23 -24 43c0 5.33301 2.33301 13.333 7 24s10 21.834 16 33.501l18 34c6 11 10.333 19.5 13 25.5
c16.667 34.667 36.334 58.334 59.001 71.001c6 3.33301 15.667 7 29 11s28.166 7.66699 44.499 11s33.833 6.16602 52.5 8.49902s36.667 3.5 54 3.5c80.667 0 124 -25.667 130 -77zM799.001 190.002l-27.999 28.001c-9.33301 9.33301 -29.333 14 -60 14h-25h-23
c-45.333 0 -82 -17 -110 -51c-18 -22.667 -36 -60.334 -54 -113.001c17.333 -5.33301 36.333 -8 57 -8c22.667 0 45.5 3.33301 68.5 10s45.333 16 67 28s41.667 25.833 60 41.5s34.166 32.5 47.499 50.5z" />
    <glyph glyph-name="ampersand" unicode="&#x26;" horiz-adv-x="550" 
d="M421 123l-12.9961 -14.9941c-4.66699 -6.66699 -11.334 -10 -20.001 -10c-8 0 -16.667 2.33301 -26 7l-36 18c-7.33301 3.33301 -16.5 10.166 -27.5 20.499l-35 32c-12.333 11 -25 20.833 -38 29.5s-25.5 13 -37.5 13c-36 0 -62.667 -3 -80 -9
c-25.333 -8.66699 -38 -23.334 -38 -44.001c0 -16.667 7.66699 -35.667 23 -57c42.667 -58.667 109.667 -88 201 -88c20.667 0 40 2 58 6c5.33301 2 11 5.16699 17 9.5s12.333 8.5 19 12.5s13 7.16699 19 9.5s11 2.83301 15 1.5h6c3.33301 0 10 2.33301 20 7l-2 -2
c-2.66699 -1.33301 -6.66699 -4.66602 -12 -9.99902c-10 -8 -23.333 -15.333 -40 -22s-34.334 -12.334 -53.001 -17.001s-37.834 -8.33398 -57.501 -11.001s-37.5 -4 -53.5 -4c-41.333 0 -83.333 14.667 -126 44c-44.667 32.667 -71.334 68 -80.001 106
c-1.33301 6 -2.33301 12.167 -3 18.5s-1 12.833 -1 19.5c0 11.333 3.66699 21.5 11 30.5s18.333 14.833 33 17.5c13.333 2.66699 27.333 5 42 7s28 5.33301 40 10s22 11.667 30 21s12 22.666 12 39.999c0 39.333 2.16699 74.333 6.5 105s10.5 57 18.5 79
c22.667 59.333 64.667 102.666 126 129.999c16.667 6.66699 30 12.167 40 16.5s17 7.5 21 9.5c26.667 9.33301 48.334 14 65.001 14c20 0 35.833 -6.16699 47.5 -18.5s17.5 -33.166 17.5 -62.499c0 -27.333 -6.5 -56.333 -19.5 -87s-33.167 -59.334 -60.5 -86.001
c-4 -4 -15.833 -13.333 -35.5 -28s-40.334 -31.334 -62.001 -50.001s-41.167 -37.167 -58.5 -55.5s-26 -33.166 -26 -44.499c0 -12.667 4.66699 -24.5 14 -35.5s21.5 -21.333 36.5 -31s31.5 -18.334 49.5 -26.001s35.667 -14.5 53 -20.5zM244.004 300.006h16.9961
c6 0 13.833 2.66699 23.5 8s19.834 12 30.501 20l33 26c11.333 9.33301 22 18.666 32 27.999c10.667 9.33301 21.834 21.833 33.501 37.5s22.5 32.334 32.5 50.001s18.167 35.5 24.5 53.5s9.5 33.667 9.5 47c0 17.333 -4.66699 31.333 -14 42s-23 16 -41 16
c-17.333 0 -35.166 -5 -53.499 -15s-38.166 -23 -59.499 -39c-58.667 -44 -88 -100.667 -88 -170c0 -33.333 6.66699 -68 20 -104z" />
    <glyph glyph-name="quotesingle" unicode="'" horiz-adv-x="179" 
d="M23 587l0.000976562 26.999c-2 8 -3 15.667 -3 23c0 16 4.16699 34.5 12.5 55.5s19.166 41.333 32.499 61s28.333 36.834 45 51.501s33 23.667 49 27c0 -19.333 -3.33301 -40.833 -10 -64.5s-17 -48.167 -31 -73.5c-14 -26 -29.167 -48 -45.5 -66
s-32.833 -31.667 -49.5 -41z" />
    <glyph glyph-name="parenleft" unicode="(" horiz-adv-x="322" 
d="M228 21l-27.9961 -19c-10.667 3.33301 -21 7.83301 -31 13.5l-45 25.5c-36.667 20.667 -63.167 51.334 -79.5 92.001s-24.5 83.667 -24.5 129c0 14 1 27.5 3 40.5s4.33301 25.833 7 38.5c9.33301 36.667 22.5 74 39.5 112s37.833 77.667 62.5 119
c61.333 101.333 118 156.666 170 165.999c-4 -24.667 -12.333 -50.834 -25 -78.501s-30.334 -56.167 -53.001 -85.5l-47.5 -61.5l-65.5 -86.5c-20 -26.667 -34.667 -54.667 -44 -84s-14 -58.666 -14 -87.999v-20c0 -16 3.83301 -35.667 11.5 -59s18.167 -46 31.5 -68
s28.666 -40.833 45.999 -56.5s35.333 -23.5 54 -23.5c9.33301 0 15.666 0.5 18.999 1.5s7.66602 -1.5 12.999 -7.5z" />
    <glyph glyph-name="parenright" unicode=")" horiz-adv-x="390" 
d="M24 846l28 -40.9932c88.667 -84.667 159.667 -166 213 -244c18 -26.667 33 -51.5 45 -74.5s21.667 -44.167 29 -63.5c20.667 -60.667 31 -115.334 31 -164.001c0 -122 -65 -240 -195 -354l26.5 41c9.66699 15.333 22.167 33.666 37.5 54.999
c48.667 67.333 73 121.666 73 162.999c0 25.333 1 47.666 3 66.999s3 35.666 3 48.999c0 30.667 -2 60 -6 88c-8.66699 52 -38 108.667 -88 170l-38 47c-12 15.333 -24.667 29.666 -38 42.999l-36 37l-50 52c-28 30 -42 62 -42 96c0 6 0.333008 11.667 1 17
s1.66699 10.666 3 15.999z" />
    <glyph glyph-name="asterisk" unicode="*" horiz-adv-x="655" 
d="M287 355l-8.00098 12.9961c0 0.666992 -1.33301 5 -4 13l-9 27.5c-3.33301 10.333 -6.5 20.666 -9.5 30.999s-4.83301 18.5 -5.5 24.5c-1.33301 14.667 0.5 27.834 5.5 39.501s11.833 21.334 20.5 29.001s18.334 13.5 29.001 17.5s21 6 31 6
c8.66699 0 18.667 -1.5 30 -4.5s22.5 -6.66699 33.5 -11s21 -8.5 30 -12.5s15.5 -7 19.5 -9c10.667 -3.33301 21.167 -6.16602 31.5 -8.49902s20.5 -3.5 30.5 -3.5c-2 -13.333 -7.83301 -29.833 -17.5 -49.5s-20.167 -39.167 -31.5 -58.5l-30.5 -53.5
c-9 -16.333 -13.5 -28.166 -13.5 -35.499c0 -6.66699 8.5 -12.5 25.5 -17.5s37.167 -9.16699 60.5 -12.5s47.166 -6.16602 71.499 -8.49902l58.5 -5.5c-6.66699 -2 -15 -5 -25 -9l-32 -12.5l-34.5 -13.5l-31.5 -13l54.5 -48l54.5 -47
c-66.667 7.33301 -130.334 25.333 -191.001 54c-19.333 9.33301 -33.833 17 -43.5 23s-14.167 9 -13.5 9c-9.33301 -3.33301 -15.833 -6.33301 -19.5 -9s-6.66699 -5.5 -9 -8.5s-5 -6.66699 -8 -11s-8.16699 -9.83301 -15.5 -16.5c-13.333 -12 -24.833 -21.667 -34.5 -29
s-19.167 -13 -28.5 -17s-19.666 -6.66699 -30.999 -8s-25.666 -2 -42.999 -2l69 151c-15.333 3.33301 -34.166 7.83301 -56.499 13.5l-77.5 20.5c-51.333 14.667 -84.333 39.667 -99 75c26 0 57 -4 93 -12c92 -20 148 -30 168 -30c3.33301 0 6.66602 0.333008 9.99902 1
s5.33301 1 6 1h14c-16 20 -24 29 -24 27zM292.999 409.996c14 -25.333 30.333 -38 49 -38c18 0 33 8.83301 45 26.5s18 35.5 18 53.5c0 14.667 -5 27.5 -15 38.5s-23.667 16.5 -41 16.5s-32 -7.33301 -44 -22s-18 -30.667 -18 -48c0 -10 2 -19 6 -27z" />
    <glyph glyph-name="plus" unicode="+" horiz-adv-x="437" 
d="M184 515l13 -9.99902v-13c6.66699 -8 10 -16.333 10 -25v-25c0 -25.333 23 -42 69 -50l141 -10l-56 -7.5c-22 -3 -47.333 -7.16699 -76 -12.5c-54.667 -10 -84 -35.333 -88 -76l-9.5 -90c-2.33301 -21.333 -3.5 -32.666 -3.5 -33.999c0 -16 1.33301 -29.333 4 -40l5 -20
c0 -0.666992 -3.16699 -3.16699 -9.5 -7.5s-15.166 -8.5 -26.499 -12.5c-6.66699 15.333 -11.667 32 -15 50s-5 33.667 -5 47c0 5.33301 0.333008 13.666 1 24.999l2 35.5l2 35.5c0.666992 11.333 1 19.666 1 24.999c0 40 -13.667 68 -41 84
c-24.667 14 -43.834 25.5 -57.501 34.5s-21.834 14.833 -24.501 17.5c4.66699 0 11.334 -0.666992 20.001 -2s17.167 -2.83301 25.5 -4.5l23 -4.5c7 -1.33301 11.5 -2 13.5 -2c22 0 38.167 9.33301 48.5 28s21.5 40 33.5 64z" />
    <glyph glyph-name="comma" unicode="," horiz-adv-x="196" 
d="M61 -95l40.502 39.998c14.333 14 21.5 30.333 21.5 49c0 2.66699 -1.16699 8.5 -3.5 17.5s-4.66602 18.833 -6.99902 29.5l-7 31c-2.33301 10 -3.5 17.667 -3.5 23c0 12.667 0.666992 21.334 2 26.001s3.66602 7.66699 6.99902 9s7.66602 2 12.999 2
s11.666 1.33301 18.999 4c22 -53.333 33 -97.666 33 -132.999c0 -74 -47.667 -111 -143 -111h-13c8 0 16.5 1.83301 25.5 5.5s14.167 6.16699 15.5 7.5z" />
    <glyph glyph-name="hyphen" unicode="-" 
d="M20 286l41.001 -0.000976562c15.333 5.33301 29.833 9 43.5 11s26.5 3 38.5 3c22.667 0 46.167 0.666992 70.5 2s49.5 3.33301 75.5 6c63.333 6.66699 114.5 11.667 153.5 15s66.5 5 82.5 5c-15.333 -10 -39.333 -19.667 -72 -29c-12 -3.33301 -26 -6.66602 -42 -9.99902
s-36.5 -7.16602 -61.5 -11.499l-93 -15.5c-37 -6 -82.167 -14 -135.5 -24c-20.667 0 -39.834 3.66699 -57.501 11s-32.167 19.666 -43.5 36.999z" />
    <glyph glyph-name="period" unicode="." horiz-adv-x="233" 
d="M211 136l2.00098 -28.001v-12c0 -13.333 -3.5 -26.166 -10.5 -38.499s-16 -23 -27 -32s-23.333 -16.167 -37 -21.5s-26.834 -8 -39.501 -8c-11.333 0 -21.833 2.16699 -31.5 6.5s-18 9.33301 -25 15s-12.5 11.5 -16.5 17.5s-6 10.333 -6 13c0 12 7.66699 23.333 23 34
s33.5 20 54.5 28s42.167 14.333 63.5 19s38 7 50 7z" />
    <glyph glyph-name="slash" unicode="/" horiz-adv-x="517" 
d="M497 641c-8 -42.667 -36 -88.332 -84 -136.999l-121 -122l-104 -132c-21.333 -26.667 -39.5 -52 -54.5 -76s-27.5 -46.667 -37.5 -68c-27.333 -54.667 -44 -108 -50 -160c-17.333 23.333 -26 50.666 -26 81.999c0 47.333 26 109 78 185l30 42l41 59l69.5 97l64.5 83
c52 62 103 116 153 162c10 -8 23.667 -13 41 -15z" />
    <glyph glyph-name="zero" unicode="0" horiz-adv-x="869" 
d="M363 673h26.0029h89c67.333 0 123.666 -8.33301 168.999 -25c56.667 -20.667 103 -54.667 139 -102c42 -57.333 63 -110.666 63 -159.999c0 -34 -9.16699 -64.667 -27.5 -92s-48.5 -52.666 -90.5 -75.999c-174.667 -97.333 -337.334 -146 -488.001 -146
c-104.667 0 -171.667 17.667 -201 53c-14.667 18 -22 41 -22 69c0 6.66699 0.833008 16.834 2.5 30.501s3.66699 28 6 43s4.33301 29.333 6 43s2.5 23.834 2.5 30.501c0 15.333 -0.833008 30.666 -2.5 45.999s-3.66699 29.166 -6 41.499s-4.33301 22.166 -6 29.499
s-2.5 10.333 -2.5 9c0 34.667 18.667 65.334 56 92.001c16 11.333 35 23.666 57 36.999s45.667 25.666 71 36.999s51.666 20.833 78.999 28.5s54 11.5 80 11.5zM198.003 436l0.000976562 -12.999l-14 -13c0 -20 -10 -40 -30 -60c-49.333 -46.667 -75.333 -77.667 -78 -93
c-4 -16.667 -6 -29.334 -6 -38.001c0 -20 4.16699 -37.667 12.5 -53s19.5 -28.166 33.5 -38.499s30.5 -18.333 49.5 -24s39.167 -8.5 60.5 -8.5c53.333 0 108.333 5.66699 165 17c137.333 28.667 246 68.667 326 120c58 36.667 90 77.334 96 122.001c2 14 3 25 3 33
c0 76 -36.667 139 -110 189c-66 44 -140 66 -222 66c-14.667 0 -23.334 -0.333008 -26.001 -1c-50.667 0 -97 -4.5 -139 -13.5s-79.667 -20.5 -113 -34.5c-98.667 -42 -148 -101.667 -148 -179c0 -5.33301 0.333008 -10.5 1 -15.5s1.66699 -10.5 3 -16.5
c2 1.33301 6.66699 5.16602 14 11.499s16 13.166 26 20.499s20.333 13.833 31 19.5s20 8.5 28 8.5c8.66699 0 21 -2 37 -6z" />
    <glyph glyph-name="one" unicode="1" horiz-adv-x="154" 
d="M106 -14l-27.998 27.998c-10.667 5.33301 -19.667 13.333 -27 24s-13.333 22.334 -18 35.001s-8 25.167 -10 37.5s-3 22.833 -3 31.5s0.666992 19.667 2 33s3.33301 29 6 47l10 68c2 10 4 22.667 6 38l9 44c8 44 12 74.667 12 92c0 31.333 3.66699 53.333 11 66
c9.33301 12.667 28.666 22.334 57.999 29.001c0 -36 -4 -78.667 -12 -128c-9.33301 -54.667 -16.333 -99.667 -21 -135s-7.33398 -61.333 -8.00098 -78c0 -8.66699 -2.5 -22 -7.5 -40s-7.5 -32 -7.5 -42c0 -26.667 3 -51 9 -73s12.333 -47.667 19 -77z" />
    <glyph glyph-name="two" unicode="2" horiz-adv-x="845" 
d="M75 532l27.0029 0.00195312c5.33301 1.33301 9 2 11 2c10 0 18.833 -4.5 26.5 -13.5s18.167 -18.5 31.5 -28.5c16.667 -12 38.334 -23.667 65.001 -35s50.334 -18.333 71.001 -21c16 -2 36.667 -4 62 -6s49.666 -5.83301 72.999 -11.5s43.5 -13.667 60.5 -24
s25.5 -25.166 25.5 -44.499c0 -16 -7.5 -33.667 -22.5 -53s-33.333 -38.333 -55 -57s-44 -36.167 -67 -52.5s-42.5 -29.5 -58.5 -39.5l-22 -19.5l-37 -33.5c28 -6 57 -9 87 -9c19.333 0 40.833 1.33301 64.5 4s49.5 6.66699 77.5 12l163 32
c26.667 5.33301 51.834 9.33301 75.501 12s45.5 4 65.5 4h13c8.66699 -8.66699 13 -17.334 13 -26.001v-16c0 -4 -2.83301 -6.66699 -8.5 -8s-12.5 -2 -20.5 -2c-10.667 0 -22.334 0.666992 -35.001 2s-23.334 2 -32.001 2c-24.667 0 -49.334 -0.833008 -74.001 -2.5
s-50 -4.5 -76 -8.5c-19.333 -3.33301 -41 -6.83301 -65 -10.5l-79 -12.5c-11.333 -2 -35 -6.66699 -71 -14s-75.667 -15 -119 -23s-85.833 -15.167 -127.5 -21.5s-74.167 -9.5 -97.5 -9.5c9.33301 9.33301 24.833 20.666 46.5 33.999l69 40.5
c24.333 13.667 47.666 26.167 69.999 37.5l47.5 24c42.667 20.667 88 52.667 136 96c34 29.333 61.333 65.666 82 108.999c-10.667 6.66699 -30.834 14 -60.501 22s-61.167 15.833 -94.5 23.5l-93.5 22c-29 7 -48.167 12.5 -57.5 16.5c-52 24 -82 59.667 -90 107z" />
    <glyph glyph-name="three" unicode="3" horiz-adv-x="599" 
d="M89 546c2 0.666992 4.66309 1 7.99609 1c12.667 0 28 -7 46 -21c10 -8 19 -14.5 27 -19.5s16.5 -9.33301 25.5 -13s19 -7.33398 30 -11.001l39.5 -13.5l96 -33c-4 -17.333 -10 -32 -18 -44s-15.333 -24.667 -22 -38l90 -25c25.333 -7.33301 46.333 -13.666 63 -18.999
c70 -22.667 105 -50 105 -82c0 -16.667 -8.16699 -34 -24.5 -52s-36.5 -35.333 -60.5 -52s-49.5 -32 -76.5 -46s-51.167 -25.333 -72.5 -34c-72.667 -29.333 -140 -44 -202 -44c-11.333 0 -23.666 2 -36.999 6s-25.666 9.66699 -36.999 17s-20.833 16.166 -28.5 26.499
s-11.5 21.833 -11.5 34.5c0 26 20 43.333 60 52c0 -65.333 31.333 -98 94 -98c28.667 0 62.667 6.66699 102 20c75.333 25.333 134 56 176 92c34.667 28.667 52 52.667 52 72c0 10.667 -3.83301 19.667 -11.5 27s-17.667 13.166 -30 17.499s-26.666 7.33301 -42.999 9
s-32.833 2.5 -49.5 2.5c-4.66699 0 -16.834 -0.833008 -36.501 -2.5l-65.5 -5.5c-24 -2 -47.167 -3.83301 -69.5 -5.5s-39.166 -2.5 -50.499 -2.5c-28.667 0 -54.5 2.66699 -77.5 8s-42.833 15.333 -59.5 30c94.667 26.667 149 43.334 163 50.001
c32.667 15.333 60.334 35.333 83.001 60c-6 2 -20 6 -42 12s-44.667 13.833 -68 23.5s-44.333 20.834 -63 33.501s-28 26.667 -28 42c0 10 8 18.333 24 25z" />
    <glyph glyph-name="four" unicode="4" 
d="M130 492l15.001 -14.9951v-27c0 -4 -0.166992 -6.66699 -0.5 -8s-0.166016 -3.33301 0.500977 -6v-40c0 -4 0.166992 -7.16699 0.5 -9.5s0.166016 -4.16602 -0.500977 -5.49902l-10 -41c-2 -10 -3 -16.667 -3 -20c-2.66699 -14.667 6.83301 -24.334 28.5 -29.001
s45.834 -7 72.501 -7c41.333 0 70.666 14.667 87.999 44c3.33301 5.33301 9.66602 24.666 18.999 57.999s21.666 80.666 36.999 141.999c22 89.333 57.667 140.666 107 153.999c0 -33.333 -7 -70 -21 -110l-28 -82l-33 -94c-2.66699 -12.667 -4 -25.334 -4 -38.001
c0 -14 5 -25.167 15 -33.5s21.833 -15.333 35.5 -21s27.667 -10.667 42 -15s25.833 -9.83301 34.5 -16.5l-49.5 -6c-16.333 -2 -32.166 -4.66699 -47.499 -8c-13.333 -2.66699 -23.666 -8.66699 -30.999 -18s-13 -20.166 -17 -32.499s-6.5 -25.333 -7.5 -39
s-1.5 -26.834 -1.5 -39.501c0 -6 0.166992 -15 0.5 -27s0.833008 -24.5 1.5 -37.5s1.16699 -25.5 1.5 -37.5s0.5 -21 0.5 -27c-3.33301 9.33301 -8.5 21.833 -15.5 37.5l-21.5 49c-7.33301 17 -13.833 33.333 -19.5 49s-9.16699 28.167 -10.5 37.5
c-4.66699 44.667 -18.667 67 -42 67c-4 0 -9.83301 -0.333008 -17.5 -1s-15.834 -1.66699 -24.501 -3s-16.667 -2.33301 -24 -3s-12.666 -1 -15.999 -1c-5.33301 0 -13 -0.333008 -23 -1l-31.5 -2l-32 -2c-10.333 -0.666992 -17.833 -1 -22.5 -1c-16.667 0 -35 2 -55 6
l20.5 40.5l10.5 21.5c13.333 29.333 20.666 50.5 21.999 63.5s2 22.5 2 28.5v34v14c0 18.667 4.33301 31.667 13 39s22.667 13.666 42 18.999z" />
    <glyph glyph-name="five" unicode="5" horiz-adv-x="805" 
d="M20 218v15.999c0 10.667 5.33301 20.834 16 30.501s24.167 19.667 40.5 30l53.5 33c19.333 11.667 37.333 24.5 54 38.5c47.333 41.333 88.333 64.666 123 69.999c-6 -28 -23 -54 -51 -78c-81.333 -70.667 -123.333 -108 -126 -112c8.66699 -2 28.5 -4.83301 59.5 -8.5
s72.833 -8.16699 125.5 -13.5c76.667 -6.66699 138 -22.334 184 -47.001c34.667 -19.333 52 -43.666 52 -72.999c0 -24.667 -10.333 -46.667 -31 -66c-17.333 -17.333 -39 -30 -65 -38c-28 -9.33301 -53.333 -14 -76 -14c-50 0 -92 27.333 -126 82l74 -27.5l75 -26.5
c20.667 0 38.834 5 54.501 15s23.5 25.667 23.5 47c0 34.667 -18.833 60.167 -56.5 76.5s-85.834 24.5 -144.501 24.5c-8.66699 0 -20.167 0.833008 -34.5 2.5l-42 5c-13.667 1.66699 -25.5 3.33398 -35.5 5.00098s-15.333 2.5 -16 2.5
c-8.66699 -0.666992 -14.667 -1.16699 -18 -1.5s-4.33301 -0.5 -3 -0.5h-13c-18 0 -34 2.66699 -48 8s-30.333 12 -49 20zM348 491.999l13 13h28c1.33301 0 3 0.166992 5 0.5s3.66699 0.5 5 0.5c7.33301 0 15.333 -1.66699 24 -5l29.5 -11c11 -4 22.833 -7.66699 35.5 -11
s26.667 -5 42 -5h51h68c17.333 0 29.333 -0.666992 36 -2c40 -2 73.333 -9.33301 100 -22c-12 0 -30 -1.33301 -54 -4s-49.167 -5.66699 -75.5 -9s-51.5 -6.33301 -75.5 -9s-42 -4 -54 -4c-84 0 -143.333 22.667 -178 68z" />
    <glyph glyph-name="six" unicode="6" horiz-adv-x="722" 
d="M265 505l13 -13.0049v-28c0 -1.33301 0.333008 -2.66602 1 -3.99902s1 -2.66602 1 -3.99902c0 -14.667 -4.5 -30.667 -13.5 -48l-28.5 -54c-104 -133.333 -156 -220.666 -156 -261.999c0 -15.333 6 -27.666 18 -36.999s30.667 -14 56 -14
c41.333 0 68.666 3.33301 81.999 10c6.66699 3.33301 13.834 10.833 21.501 22.5s15 24.334 22 38.001l19.5 39c6 12.333 11.333 20.833 16 25.5c9.33301 9.33301 24.5 18.5 45.5 27.5s44.333 17.167 70 24.5s52 13.166 79 17.499s51.167 6.5 72.5 6.5
c10.667 0 22.834 -0.833008 36.501 -2.5s26.5 -4.83398 38.5 -9.50098s22.167 -10.834 30.5 -18.501s12.5 -17.5 12.5 -29.5c0 -22.667 -24.667 -44 -74 -64c-8.66699 -3.33301 -22.5 -8 -41.5 -14s-40 -12.167 -63 -18.5l-70 -20c-23.667 -7 -44.834 -13 -63.501 -18
s-33.167 -9.16699 -43.5 -12.5s-13.833 -4.66602 -10.5 -3.99902c-38.667 -6.66699 -74 -13.167 -106 -19.5s-60.667 -9.5 -86 -9.5h-26c-33.333 0 -58 7.33301 -74 22s-24 31.667 -24 51c0 20.667 8.33301 48.334 25 83.001c2 4.66699 7.83301 14.5 17.5 29.5l34 53
l40.5 66c14 23.667 26.667 46.834 38 69.501c31.333 65.333 61.333 105 90 119zM620 176.995l-40.0029 13c-16 5.33301 -33.667 8 -53 8s-39.666 -2.5 -60.999 -7.5s-41.666 -12.5 -60.999 -22.5s-36.666 -22.167 -51.999 -36.5s-26.333 -30.833 -33 -49.5
c1.33301 0 7.33301 -0.333008 18 -1s16.667 -1 18 -1c48 0 96 8 144 24c56.667 18 96.667 42.333 120 73z" />
    <glyph glyph-name="seven" unicode="7" horiz-adv-x="609" 
d="M59 466c6 0 14.3301 -1.5 24.9971 -4.5s21.834 -6.33301 33.501 -10l32.5 -10c10 -3 17 -4.83301 21 -5.5c18 -2.66699 37 -5 57 -7s41.667 -3 65 -3c24.667 0 50 -1.33301 76 -4s51.333 -4 76 -4h43c25.333 0 48.5 -4.16699 69.5 -12.5s31.5 -22.833 31.5 -43.5
c0 -12 -2.66699 -23.333 -8 -34c-4 -8.66699 -16 -22.334 -36 -41.001s-41.167 -37.167 -63.5 -55.5l-60 -48.5c-17.667 -14 -26.167 -20.667 -25.5 -20c-16.667 -16.667 -29.667 -32.167 -39 -46.5s-14 -27.833 -14 -40.5c0 -22 10.667 -42.667 32 -62
c-66.667 0 -100 17.333 -100 52c0 10.667 3.16699 22.334 9.5 35.001s14.5 25.334 24.5 38.001s20.833 24.667 32.5 36s22.834 21.333 33.501 30c8.66699 7.33301 20 16.333 34 27l48 38c27.333 23.333 50 51.333 68 84c-20 5.33301 -44.833 9.33301 -74.5 12
s-64.167 4 -103.5 4c-44.667 0 -82.167 0.5 -112.5 1.5s-53.5 2.83301 -69.5 5.5c-66.667 9.33301 -115 29 -145 59v4c0 4 1.83301 7.66699 5.5 11s7.83398 6.16602 12.501 8.49902s9.16699 4 13.5 5s6.83301 1.5 7.5 1.5z" />
    <glyph glyph-name="eight" unicode="8" horiz-adv-x="709" 
d="M20 368l13.002 14h15c15.333 15.333 35.333 28 60 38l68 28c58.667 24 112.334 36 161.001 36c37.333 0 82 -11.333 134 -34c23.333 -10 48.666 -15 75.999 -15c4 0 10.5 0.333008 19.5 1s18.167 1.5 27.5 2.5s18.5 1.83301 27.5 2.5s15.5 1 19.5 1
c19.333 0 35.333 -2 48 -6c-13.333 -7.33301 -49.333 -20 -108 -38c-92.667 -28 -147.334 -60.667 -164.001 -98c-6.66699 -13.333 -10 -26.666 -10 -39.999c0 -20.667 11.667 -39.334 35 -56.001c72 -52 109 -79 111 -81c7.33301 -12.667 11 -26 11 -40
c0 -16.667 -5.33301 -35 -16 -55s-23.834 -39.5 -39.501 -58.5s-31.834 -36.667 -48.501 -53s-31 -29.5 -43 -39.5c-28 -22 -52 -33 -72 -33c-15.333 0 -28 7.16699 -38 21.5s-17.667 31.5 -23 51.5s-9 40.5 -11 61.5s-3 38.167 -3 51.5c0 18 2.16699 37.167 6.5 57.5
s6.5 39.833 6.5 58.5c0 17.333 -3.66699 32 -11 44s-18 23 -32 33s-31.333 20.167 -52 30.5l-71 36.5c-47.333 25.333 -79.666 51.333 -96.999 78zM443.002 396l-26 27c-10 10 -25.333 15 -46 15c-4 0 -11.667 -0.833008 -23 -2.5s-22.833 -3.5 -34.5 -5.5l-31.5 -5.5
l-14 -2.5c-40.667 -6 -91.667 -28.667 -153 -68l27.5 -19.5l29.5 -20.5c41.333 -28 77 -42 107 -42c13.333 0 26.5 3.5 39.5 10.5s26.167 16.333 39.5 28s27 25 41 40zM417.002 -54c22 13.333 40.165 31.332 54.498 53.999s21.5 46.667 21.5 72
c0 26.667 -7.5 48.667 -22.5 66s-35.5 26 -61.5 26c-53.333 0 -80 -29.667 -80 -89c0 -11.333 1.16699 -24.166 3.5 -38.499s5.5 -28.833 9.5 -43.5s8.83301 -28.667 14.5 -42s11.834 -24.333 18.501 -33c10 5.33301 18.833 11 26.5 17s12.834 9.66699 15.501 11z" />
    <glyph glyph-name="nine" unicode="9" horiz-adv-x="433" 
d="M22 272c-1.33301 5.33301 -2.00293 10.334 -2.00293 15.001v13c0 26.667 6.66699 53.834 20 81.501s30.5 53 51.5 76s44.833 42.5 71.5 58.5s53 26 79 30c2.66699 0.666992 6.66699 1 12 1c18 0 35.333 -5 52 -15s31.334 -22.833 44.001 -38.5
s22.834 -32.834 30.501 -51.501s11.5 -37 11.5 -55c0 -27.333 -9.33301 -47 -28 -59c-9.33301 26 -17.333 47.333 -24 64s-12 28.667 -16 36c-23.333 42.667 -50.666 64 -81.999 64c-14 0 -28.667 -4.5 -44 -13.5s-29.833 -20.5 -43.5 -34.5s-26.167 -29 -37.5 -45
s-20 -31 -26 -45c-8.66699 -19.333 -13 -39.666 -13 -60.999c0 -25.333 9.5 -46.833 28.5 -64.5s47.5 -26.5 85.5 -26.5c10 0 24.5 3 43.5 9s39 12.833 60 20.5s40.833 14.5 59.5 20.5s33 9 43 9c9.33301 0 14 -3 14 -9s-3 -14.333 -9 -25s-14.5 -23.334 -25.5 -38.001
l-35.5 -49c-46.667 -66.667 -70 -118.667 -70 -156c0 -8.66699 1 -20.667 3 -36l7 -56c-48.667 19.333 -73 48 -73 86c0 9.33301 3.83301 24.166 11.5 44.499s16 41 25 62s17.333 39.5 25 55.5l11.5 24l-114 11c-85.333 8.66699 -134 41 -146 97z" />
    <glyph glyph-name="colon" unicode=":" horiz-adv-x="252" 
d="M192 518l-0.00195312 -12.001c0.666992 -1.33301 0.833984 -3.16602 0.500977 -5.49902s-0.5 -4.16602 -0.5 -5.49902c0 -10 -4.83301 -20 -14.5 -30s-21 -18.833 -34 -26.5s-26.5 -14 -40.5 -19s-25.333 -7.5 -34 -7.5c-15.333 0 -27.333 6.16699 -36 18.5
s-13 23.166 -13 32.499c0 11.333 6.16699 20.5 18.5 27.5s27.5 12.5 45.5 16.5s36.833 6.83301 56.5 8.5s36.834 2.5 51.501 2.5zM26.998 -0.000976562l-0.00195312 14c-1.33301 2.66699 -2 6 -2 10c0 18.667 5.83301 33.667 17.5 45s27.334 20.5 47.001 27.5
s41.834 12.333 66.501 16s50 7.16699 76 10.5c-10 -35.333 -36.333 -64.333 -79 -87c-36 -18.667 -78 -30.667 -126 -36z" />
    <glyph glyph-name="semicolon" unicode=";" horiz-adv-x="208" 
d="M129 123l27 -28.001l28 -54c2.66699 -15.333 4 -30 4 -44c0 -89.333 -56 -161 -168 -215l66 84c24.667 32.667 39 63.667 43 93c0.666992 3.33301 1 9 1 17c0 4.66699 -4.33301 30.667 -13 78c-1.33301 9.33301 -2.5 16.333 -3.5 21s-1.5 7.33398 -1.5 8.00098
c0 5.33301 2.5 12.5 7.5 21.5s8.16699 15.167 9.5 18.5zM34 217.999v13.999c-1.33301 6.66699 -2 10.667 -2 12c0 10 4.66699 20.667 14 32c22 24 44 36 66 36c4 0 8.83301 -0.5 14.5 -1.5s11.5 -2.16699 17.5 -3.5s11.5 -2.66602 16.5 -3.99902s8.16699 -2.33301 9.5 -3
l-22 -25c-6 -6.66699 -11 -13.167 -15 -19.5s-7.33301 -13.333 -10 -21s-5 -17.5 -7 -29.5c-18 0 -45.333 4.33301 -82 13z" />
    <glyph glyph-name="less" unicode="&#x3c;" horiz-adv-x="519" 
d="M41 68l11.002 21c6.66699 12.667 15 24.167 25 34.5s22.667 21.833 38 34.5l99 81c22.667 19.333 35.667 30.333 39 33c27.333 46.667 45.666 77.334 54.999 92.001c19.333 30.667 46.333 46 81 46c-6 -50.667 -38 -105.334 -96 -164.001l-93 -98.5
c-22.667 -25 -37 -42.5 -43 -52.5c20 -4 40.333 -6 61 -6c9.33301 0 24 1.33301 44 4l64.5 8.5l66 8.5c21 2.66699 36.5 4 46.5 4c20 0 40 -2 60 -6c-38 -29.333 -91.333 -52.333 -160 -69c-59.333 -14 -118 -21 -176 -21c-58.667 0 -106.334 7.66699 -143.001 23l16.5 20.5
c2.33301 3 3.83301 5.16699 4.5 6.5z" />
    <glyph glyph-name="equal" unicode="=" horiz-adv-x="463" 
d="M20 190v28.0039c0 2.66699 3.66699 7.66699 11 15s15.833 14.833 25.5 22.5s19 14.5 28 20.5s14.833 9.33301 17.5 10h5c8.66699 0 20.167 -1.33301 34.5 -4s28 -5.83398 41 -9.50098s23.833 -6.83398 32.5 -9.50098s12 -4 10 -4c20.667 0 39.667 2.5 57 7.5
s28.333 7.5 33 7.5h19h40l31.5 -1.5l10.5 -0.5h14c-32 -20 -78.667 -34 -140 -42c-82.667 -10.667 -146.667 -19.334 -192 -26.001s-71.333 -11.334 -78 -14.001zM89 423.004l41 13c8 2.66699 17.333 4 28 4c6.66699 0 15.667 -1 27 -3l35 -6.5l33 -6.5
c10 -2 17.667 -3 23 -3h22h92h37c4 0 6.83301 -3 8.5 -9s4.16699 -11.333 7.5 -16c-8 0 -20.333 -0.333008 -37 -1s-34 -1.5 -52 -2.5s-35.333 -1.83301 -52 -2.5s-29 -1 -37 -1c-70 0 -128.667 11.333 -176 34z" />
    <glyph glyph-name="greater" unicode="&#x3e;" horiz-adv-x="548" 
d="M86 438c4 0 11.8311 -2.16895 23.498 -6.50195s24 -9.16602 37 -14.499l35 -14.5c10.333 -4.33301 16.5 -6.5 18.5 -6.5c4 0 15.333 -1.66699 34 -5s44.667 -7.66602 78 -12.999c90.667 -13.333 152.667 -34.666 186 -63.999c20 -18.667 30 -37 30 -55
c0 -45.333 -64.667 -86.333 -194 -123l-89 -26c-16.667 -4.66699 -33.167 -9 -49.5 -13s-29.5 -9 -39.5 -15l-68 -41c-10.667 -6.66699 -20 -11.5 -28 -14.5l-12 -4.5c3.33301 0 -6 6.33301 -28 19c30 33.333 76 59.333 138 78l68 20l96 29
c30.667 9.33301 57.167 21.833 79.5 37.5s40.833 33.5 55.5 53.5c-12 7.33301 -33 15.166 -63 23.499s-61.167 16.333 -93.5 24s-61.666 14.167 -87.999 19.5s-42.166 9 -47.499 11c-54 16.667 -93.333 41 -118 73c4.66699 9.33301 10.667 16.333 18 21s14.333 7 21 7z" />
    <glyph glyph-name="question" unicode="?" horiz-adv-x="519" 
d="M20 668l27.998 0.000976562c14 6.66699 38.333 10 73 10c14 0 28.5 -0.333008 43.5 -1s30.5 -1.66699 46.5 -3l68 -6c31.333 -2.66699 57.833 -3.83398 79.5 -3.50098s39.167 -0.5 52.5 -2.5c58.667 -10 88 -30.667 88 -62c0 -46.667 -32.667 -92 -98 -136l-61.5 -39.5
l-86.5 -56.5c-52 -34.667 -78 -74 -78 -118c0 -52.667 39.333 -95 118 -127c-42.667 0 -84 9 -124 27c-52 22.667 -78 53.334 -78 92.001c0 49.333 40 99.333 120 150c86 56 132.333 86.667 139 92c47.333 37.333 74 80.666 80 129.999
c-11.333 2.66699 -24.5 4.66699 -39.5 6s-30.833 2 -47.5 2c-8 0 -20 -0.333008 -36 -1s-32.833 -1.66699 -50.5 -3s-34.5 -2.33301 -50.5 -3s-27.667 -1 -35 -1s-17.666 -0.333008 -30.999 -1s-23.666 -1 -30.999 -1c-24 0 -42.5 4 -55.5 12s-24.167 22.667 -33.5 44z
M114.998 -25.999l42.002 26c14 9.33301 27.333 16.833 40 22.5s25.667 10 39 13s27.666 5 42.999 6s33.333 1.5 54 1.5c73.333 0 110 -20.333 110 -61c0 -33.333 -31.667 -50 -95 -50c-31.333 0 -64.833 2.66699 -100.5 8s-75.834 14 -120.501 26z" />
    <glyph glyph-name="at" unicode="@" horiz-adv-x="1085" 
d="M1063 82l2.00488 -35.998c-10 -12 -18 -18 -24 -18s-10.667 2.33301 -14 7s-6 9.83398 -8 15.501s-4.33301 8.5 -7 8.5c-3.33301 0 -7.5 -1 -12.5 -3s-9.83301 -3.66699 -14.5 -5c-16 -6 -30.167 -10.833 -42.5 -14.5s-24.666 -7 -36.999 -10s-25.333 -5.66699 -39 -8
s-29.834 -4.5 -48.501 -6.5c-110.667 -12 -200.334 -18 -269.001 -18c-176.667 0 -319.334 33.667 -428.001 101c-67.333 42 -101 98.333 -101 169c0 66 29.667 136.333 89 211c52 64.667 110.667 115.667 176 153l144 78.5c36.667 19.667 62.667 32.834 78 39.501
c96 44 180.667 66 254 66c34 0 63.333 -3.33301 88 -10s50.667 -19.334 78 -38.001c64 -42 96 -99 96 -171c0 -42 -11.167 -85.167 -33.5 -129.5s-51.333 -84.666 -87 -120.999s-75.334 -66.166 -119.001 -89.499s-86.834 -35 -129.501 -35
c-7.33301 0 -16 -0.166992 -26 -0.5s-21 -0.833008 -33 -1.5l-10 -1c-18 -1.33301 -32.5 -2.33301 -43.5 -3s-18.167 -1 -21.5 -1c-80.667 0 -121 26 -121 78c0 32 8.66699 62.5 26 91.5s39.333 51.5 66 67.5c37.333 22.667 81.666 34 132.999 34c14 0 31.333 -1.5 52 -4.5
s40.5 -7.83301 59.5 -14.5s35.333 -15.334 49 -26.001s20.5 -23.667 20.5 -39c0 -16 -5.83301 -32.5 -17.5 -49.5l-51.5 -76.5c60 24.667 115.333 66 166 124c55.333 64.667 83 125.334 83 182.001c0 67.333 -37.333 120.666 -112 159.999
c-39.333 20 -84.666 30 -135.999 30c-95.333 0 -206 -35.333 -332 -106c-45.333 -26 -89.666 -55.333 -132.999 -88c-140 -106.667 -210 -203.334 -210 -290.001c0 -46.667 19.667 -91.334 59 -134.001c52.667 -54.667 120 -92.334 202 -113.001
c31.333 -8 66.5 -13.833 105.5 -17.5s82.5 -5.5 130.5 -5.5c51.333 0 98.166 1.16699 140.499 3.5s80.166 5.83301 113.499 10.5c44.667 6.66699 82.5 16 113.5 28s63.167 26 96.5 42l27 12c2 1.33301 2.83301 2.66602 2.5 3.99902s-0.166016 2 0.500977 2
c-0.666992 0 0.666016 -2.83301 3.99902 -8.5s5.33301 -14.167 6 -25.5zM669.005 410.002l-14.999 13h-27c-6.66699 0 -13.167 1 -19.5 3s-11.833 3 -16.5 3c-18 0 -33.833 -4.5 -47.5 -13.5s-25.667 -20.833 -36 -35.5s-19.166 -31.5 -26.499 -50.5
s-13.333 -38.167 -18 -57.5c18 -5.33301 32.167 -9.16602 42.5 -11.499s15.166 -3.5 14.499 -3.5c17.333 1.33301 32.166 6.16602 44.499 14.499s24 19.333 35 33s21.833 29.5 32.5 47.5s23 37.333 37 58z" />
    <glyph glyph-name="A" unicode="A" horiz-adv-x="561" 
d="M132 410l12.999 13.0039v13c9.33301 9.33301 17 20.666 23 33.999s11.333 28.666 16 45.999l15 58c5.33301 21.333 12 44.333 20 69c12.667 40.667 26.667 71 42 91s30.666 30 45.999 30c13.333 0 25.5 -7 36.5 -21s21 -32.167 30 -54.5s17.333 -47.333 25 -75
s14.5 -54.834 20.5 -81.501c3.33301 -15.333 6.83301 -33.833 10.5 -55.5s9.5 -42.5 17.5 -62.5s19.167 -37.167 33.5 -51.5s34.5 -21.5 60.5 -21.5c-22 -24.667 -36.667 -47.667 -44 -69c-7.33301 -23.333 -11 -52 -11 -86v-63c0 -23.333 4.33301 -49.333 13 -78
s20 -60.334 34 -95.001l4 -12c1.33301 -4 2 -7.33301 2 -10c0 -10.667 -9 -14.334 -27 -11.001c-9.33301 2 -19.333 12 -30 30s-20.667 41 -30 69s-17.166 59.667 -23.499 95s-9.5 71 -9.5 107c0 22 -4.83301 38.167 -14.5 48.5s-21.5 15.5 -35.5 15.5
c-4 0 -9.83301 -0.5 -17.5 -1.5s-15.5 -2.16699 -23.5 -3.5l-21.5 -3.5c-6.33301 -1 -10.166 -1.5 -11.499 -1.5h-82c-42.667 0 -68 -21.333 -76 -64c-12 -63.333 -23 -101 -33 -113c-3.33301 -4.66699 -10 -8.16699 -20 -10.5s-18.667 -3.5 -26 -3.5h-19
c-4 0 -7.16699 3.66699 -9.5 11s-4.33301 17 -6 29s-2.66699 25.5 -3 40.5s-0.5 30.5 -0.5 46.5c0 25.333 0.333008 49 1 71s1 37.667 1 47v23v115c16 2 28.333 3 37 3c16.667 0 29 -4.16699 37 -12.5s20 -23.166 36 -44.499zM280.999 656.004l-13 -42
c-6.66699 -9.33301 -14 -23.333 -22 -42s-15.5 -38.5 -22.5 -59.5s-12.833 -41.5 -17.5 -61.5s-7 -36.333 -7 -49c0 -50.667 29.333 -76 88 -76h10c57.333 0 86 26 86 78c0 58 -34 142 -102 252z" />
    <glyph glyph-name="B" unicode="B" horiz-adv-x="874" 
d="M49 696c6.66699 0 17.5 -1.16309 32.5 -3.49609s31.167 -5 48.5 -8l53 -9.5c18 -3.33301 33.333 -5.66602 46 -6.99902c34.667 -3.33301 67.667 -6.16602 99 -8.49902s61.333 -3.5 90 -3.5h48h49c54.667 0 101.167 -4.5 139.5 -13.5s68.5 -23.167 90.5 -42.5
c-22 -30.667 -55.333 -57.334 -100 -80.001l-46.5 -22l-72.5 -34l202 -60c84 -34 126 -80 126 -138c0 -18.667 -4.66699 -39 -14 -61c-26 -64 -98 -116 -216 -156c-96 -32.667 -187.667 -49 -275 -49c-42.667 0 -84.667 14.667 -126 44c-44.667 32 -67 69.333 -67 112
c0 10.667 2.16699 20.834 6.5 30.501s9.16602 19 14.499 28s10.166 18.167 14.499 27.5s6.5 19.333 6.5 30c0 6 -0.833008 15.333 -2.5 28s-3.5 25.667 -5.5 39s-3.83301 26.333 -5.5 39s-2.5 22 -2.5 28c0 10 1 20 3 30c14 -6 26.333 -13.667 37 -23s17.334 -20 20.001 -32
s4.5 -24.167 5.5 -36.5s2.83301 -24.333 5.5 -36s6.5 -22.834 11.5 -33.501s12.833 -20.334 23.5 -29.001c3.33301 -2.66699 9 -6.5 17 -11.5s18.333 -10.5 31 -16.5c-22.667 -4 -36.667 -7.5 -42 -10.5s-8 -8.16699 -8 -15.5v-21c0 -27.333 -3.16699 -43.5 -9.5 -48.5
s-12.5 -7.5 -18.5 -7.5l-18 8c-3.33301 6.66699 -5.83301 14.667 -7.5 24l-4.5 26c-1.33301 8 -3.33301 14.167 -6 18.5s-6.66699 5.16602 -12 2.49902c-6 -1.33301 -9.5 -4.33301 -10.5 -9s-1.5 -8.66699 -1.5 -12c0 -49.333 25.333 -87 76 -113
c44 -22.667 96.333 -34 157 -34c29.333 0 60.833 5.5 94.5 16.5s65.834 23.5 96.501 37.5c78.667 36 128.667 77.667 150 125c8 18 12 34.667 12 50c0 40 -26 73 -78 99c-30 15.333 -76.333 29.333 -139 42l-116 25l-197 43c13.333 4.66699 33.666 10 60.999 16
s55.833 11.667 85.5 17l83.5 15.5c26 5 44 8.83301 54 11.5c26.667 7.33301 51.5 16.166 74.5 26.499s44.167 22.5 63.5 36.5c-56.667 27.333 -140 41 -250 41h-96c-33.333 0 -62.5 0.333008 -87.5 1s-46.167 2 -63.5 4c-27.333 3.33301 -54.166 7.66602 -80.499 12.999
s-52.166 12.666 -77.499 21.999c-1.33301 0 1.16699 4.66699 7.5 14s13.166 14 20.499 14z" />
    <glyph glyph-name="C" unicode="C" horiz-adv-x="718" 
d="M225 410c-32.667 -14.667 -57.8291 -31 -75.4961 -49s-33.5 -41.667 -47.5 -71c-19.333 -38.667 -29 -73.334 -29 -104.001c0 -37.333 14 -63.333 42 -78c22 -11.333 47 -19.666 75 -24.999s57.667 -8 89 -8c49.333 0 112 6 188 18l99 15h27
c0.666992 0 4.16699 0.833008 10.5 2.5s13.5 3.33398 21.5 5.00098s15.5 3.33398 22.5 5.00098s12.167 2.5 15.5 2.5c23.333 0 35 -3 35 -9c0 -8.66699 -13.333 -16.667 -40 -24s-58.334 -13.666 -95.001 -18.999s-73.834 -9.5 -111.501 -12.5s-67.834 -4.5 -90.501 -4.5
c-50 0 -92.667 1.33301 -128 4s-63.333 6.66699 -84 12c-86 21.333 -129 66.333 -129 135c0 43.333 15 84.333 45 123c12 16.667 26.5 33 43.5 49s36.5 32.333 58.5 49c2 1.33301 12.333 8.66602 31 21.999l81 57c15.333 11.333 25.166 22.166 29.499 32.499
s6.5 25.833 6.5 46.5c0 20 3 37 9 51s18.333 21 37 21c8.66699 0 13 -5.33301 13 -16v-30c0 -2.66699 2.66699 -9.33398 8 -20.001l17.5 -35l17.5 -36c5.33301 -11.333 8 -19 8 -23c0 -5.33301 -0.666992 -11.666 -2 -18.999s-3.33301 -16.333 -6 -27
c-9.33301 -36 -18.333 -67.167 -27 -93.5s-17 -47.5 -25 -63.5c-30 -58.667 -67.333 -88 -112 -88c0 -0.666992 1.66699 6.16602 5 20.499s7 31.666 11 51.999s7.66699 41 11 62s5 37.5 5 49.5c0 18.667 -2 34.334 -6 47.001l-26 -12.5z" />
    <glyph glyph-name="D" unicode="D" horiz-adv-x="881" 
d="M61 628c7.33301 0 16 -1.33301 26 -4s21.333 -6.66699 34 -12l63 -25l147 -40c52 -14 98.833 -25.5 140.5 -34.5s78.167 -15.833 109.5 -20.5c96 -12.667 173 -40 231 -82c32.667 -24 49 -51.333 49 -82c0 -16 -3.66699 -31.333 -11 -46s-17.166 -28.5 -29.499 -41.5
s-26.333 -24.833 -42 -35.5s-31.834 -20 -48.501 -28l-117.5 -58l-165.5 -80c-54.667 -26 -107.167 -45.333 -157.5 -58s-97.5 -19 -141.5 -19c-38 0 -71.333 4 -100 12l287 80c-20 36 -48 90 -84 162c-30.667 61.333 -46 119 -46 173c0 22.667 2 43 6 61
c15.333 -5.33301 28.666 -13.666 39.999 -24.999s18.666 -24.666 21.999 -39.999l22 -101c5.33301 -25.333 14.333 -52.333 27 -81s30.334 -60.334 53.001 -95.001c12 -18 32.333 -27 61 -27c42 0 98 19.667 168 59c25.333 14 49.666 28.5 72.999 43.5
s45.666 31.167 66.999 48.5c40.667 31.333 61 61.333 61 90c0 41.333 -39.333 77.666 -118 108.999c-56 22.667 -118.667 38 -188 46c-125.333 14 -210.666 26 -255.999 36c-103.333 22 -177.666 55.667 -222.999 101c5.33301 5.33301 12.333 9 21 11s15.334 3 20.001 3z
" />
    <glyph glyph-name="E" unicode="E" horiz-adv-x="685" 
d="M583 26l-37.001 -21.0029c-8.66699 -4.66699 -20.834 -8.66699 -36.501 -12s-33.167 -5.66602 -52.5 -6.99902s-39.166 -2.33301 -59.499 -3s-39.166 -1 -56.499 -1c-44 0 -88.167 3.66699 -132.5 11s-83.5 18.333 -117.5 33c-18.667 8 -31.667 16 -39 24
s-11 17.333 -11 28c0 8 1.16699 19.5 3.5 34.5s3.5 27.167 3.5 36.5c0 14 -0.666992 35 -2 63s-2.83301 57.333 -4.5 88s-3.16699 60 -4.5 88s-2 48.667 -2 62c0 2 -0.833008 10.5 -2.5 25.5s-3.33398 32 -5.00098 51l-5 56c-1.66699 18.333 -2.5 31.5 -2.5 39.5
c0 61.333 19 95 57 101c38 6.66699 80.667 10 128 10c183.333 0 336.666 -44.333 459.999 -133c-14 0 -27.5 1.16699 -40.5 3.5s-26.167 5.83301 -39.5 10.5c-40.667 14.667 -71.667 25.334 -93 32.001s-32.333 10 -33 10c-11.333 1.33301 -27 3.33301 -47 6l-61.5 8.5
c-21 3 -40.5 5.66699 -58.5 8s-30.333 3.5 -37 3.5c-59.333 0 -98.666 -3.33301 -117.999 -10c-36 -13.333 -54 -43.333 -54 -90c0 -7.33301 0.5 -17.5 1.5 -30.5s3.16699 -28.833 6.5 -47.5c1.33301 -10.667 3.33301 -24.5 6 -41.5l9 -58.5
c3.33301 -9.33301 14.166 -17.166 32.499 -23.499s39.5 -11.833 63.5 -16.5s48.5 -8.66699 73.5 -12s45.5 -6.33301 61.5 -9l172 -51.5c40.667 -11.667 65.334 -18.167 74.001 -19.5c-6 -2 -12.667 -3.66699 -20 -5s-15.333 -2 -24 -2c-23.333 0 -49.666 3.66699 -78.999 11
l-97 24l-50.5 11.5l-59 13.5l-62 14c-21 4.66699 -40.833 9.66699 -59.5 15c-14 -58 -21 -108.667 -21 -152c0 -104 38.667 -162.667 116 -176c48 -8 103 -12 165 -12c59.333 0 123 4 191 12z" />
    <glyph glyph-name="F" unicode="F" horiz-adv-x="882" 
d="M539 792c10.667 0 28.6709 9.66992 54.0039 29.0029c14 11.333 25.5 20.166 34.5 26.499s17.333 11.166 25 14.499s15.167 5.5 22.5 6.5s16.666 1.5 27.999 1.5c35.333 0 66.333 -9.5 93 -28.5s45.667 -44.833 57 -77.5c6 -18.667 9 -35 9 -49
c0 -44 -23.667 -76.333 -71 -97c-35.333 -14.667 -77.333 -22 -126 -22c-48 0 -90 6 -126 18c-4.66699 2 -13.5 6.83301 -26.5 14.5s-23.833 11.5 -32.5 11.5c-12 0 -25 -7.33301 -39 -22s-27.333 -32.667 -40 -54s-23.667 -43.666 -33 -66.999s-16 -43.666 -20 -60.999
c19.333 -4 71.666 -8 156.999 -12c40.667 -2 75.334 -5 104.001 -9s51 -9.66699 67 -17h-112c-96 0 -163.667 -14.667 -203 -44c-16.667 -12.667 -29.667 -27.334 -39 -44.001s-14 -37.334 -14 -62.001c0 -37.333 -4.5 -73 -13.5 -107s-20.833 -64.667 -35.5 -92
c-38 -70 -90.333 -109 -157 -117c37.333 26 63 47.667 77 65c15.333 18 28.166 42.333 38.499 73s17.5 66.667 21.5 108c0.666992 13.333 1.5 27.666 2.5 42.999s1.5 32.333 1.5 51v32c-0.666992 6.66699 -1.33398 14.167 -2.00098 22.5s-1.33398 17.5 -2.00098 27.5
c-48.667 -11.333 -88.667 -17 -120 -17c-37.333 0 -70.333 10.333 -99 31l82 11c24 3.33301 44.333 6.33301 61 9c59.333 10.667 98 31.334 116 62.001l57.5 97l80.5 135c2 4 5.16699 12.167 9.5 24.5s9 26.333 14 42l15.5 46.5c5.33301 15.333 10.333 27.666 15 36.999
c1.33301 -0.666992 4.83301 -3.16699 10.5 -7.5s12.167 -8.83301 19.5 -13.5s14.5 -9 21.5 -13s12.5 -6 16.5 -6zM812.004 723.003c0 61.333 -23.668 91.999 -71.001 91.999c-15.333 0 -33.666 -4.33301 -54.999 -13s-42.5 -19.667 -63.5 -33s-40.333 -27.666 -58 -42.999
s-30.834 -30 -39.501 -44c23.333 -15.333 52.333 -28 87 -38c18 -5.33301 34.833 -9.33301 50.5 -12s29.834 -4 42.501 -4c71.333 0 107 31.667 107 95z" />
    <glyph glyph-name="G" unicode="G" horiz-adv-x="1046" 
d="M548 -68c-8.66699 4.66699 -16 12.8301 -22 24.4971s-12.5 23.667 -19.5 36s-15.833 23.166 -26.5 32.499s-24.667 14 -42 14c-9.33301 0 -23.666 -1.5 -42.999 -4.5s-39.5 -6.5 -60.5 -10.5s-41 -7.5 -60 -10.5s-33.167 -4.5 -42.5 -4.5
c-48.667 0 -93.667 19.667 -135 59c-26.667 24.667 -46.167 53 -58.5 85s-18.5 65.333 -18.5 100c0 20 2 40.833 6 62.5s9.33301 44.5 16 68.5c11.333 37.333 28.333 80 51 128l18.5 36l34.5 67l37.5 71c12.333 22.667 21.5 38.667 27.5 48
c59.333 90.667 121.333 141.667 186 153c3.33301 -13.333 5 -29.666 5 -48.999c0 -28 -2.33301 -55 -7 -81s-11.667 -51.667 -21 -77c-22 -58 -50.667 -89 -86 -93c0.666992 6 3.33398 17.167 8.00098 33.5l14.5 53c5 19 9.5 37 13.5 54s6 29.167 6 36.5
c-67.333 -53.333 -124.666 -124.333 -171.999 -213c-49.333 -94.667 -74 -185.667 -74 -273c0 -37.333 4.33301 -71 13 -101c26 -92 88.333 -138 187 -138c21.333 0 45 2.33301 71 7s53.667 12 83 22c36.667 11.333 68 40 94 86c29.333 50.667 55.666 90.667 78.999 120
s43 47.333 59 54c9.33301 2.66699 18 5 26 7s15.333 3 22 3c25.333 0 38 -12.667 38 -38c0 -17.333 -6.33301 -36.666 -19 -57.999s-25.667 -38.666 -39 -51.999l-86 -82c-13.333 -12.667 -23 -26.667 -29 -42s-9 -28.666 -9 -39.999c0 -28.667 14 -60 42 -94
c-4.66699 0 -11.334 -0.333008 -20.001 -1s-15.334 -1 -20.001 -1c-16.667 0 -26 0.666992 -28 2zM712 299.996l-28 0.00292969c-17.333 0 -30 -6.33301 -38 -19s-12 -25.667 -12 -39c0 -6.66699 1.5 -16.334 4.5 -29.001s4.5 -20.334 4.5 -23.001
c6 2.66699 14 6.83398 24 12.501s19.833 11.667 29.5 18s18 13.166 25 20.499s10.5 14.666 10.5 21.999c-2.66699 5.33301 -6.16699 10.5 -10.5 15.5s-7.5 12.167 -9.5 21.5zM302 367.999v14.0039c0 8.66699 9 17 27 25s38.667 15 62 21s46.166 11 68.499 15
s38.166 6.33301 47.499 7l60 4c20.667 1.33301 41.667 2 63 2c11.333 0 28.333 -0.333008 51 -1s46.5 -1.33398 71.5 -2.00098l72 -2c23 -0.666992 40.167 -1 51.5 -1l14.5 -4c9.66699 -2.66699 22 -5.83398 37 -9.50098s31.333 -6.83398 49 -9.50098s34.167 -4 49.5 -4
c-13.333 0 -33.833 0.5 -61.5 1.5s-56.5 1.83301 -86.5 2.5s-58.667 1.5 -86 2.5s-47.666 1.5 -60.999 1.5h-51.5c-13 0 -22.167 -0.333008 -27.5 -1c-4 -0.666992 -11.333 -1.5 -22 -2.5s-24.667 -2.5 -42 -4.5c0.666992 0 -3.83301 -0.666992 -13.5 -2l-33 -4.5
c-12.333 -1.66699 -24.666 -3.16699 -36.999 -4.5s-20.833 -2 -25.5 -2h-13c-14 0 -28.333 -3.33301 -43 -10c-11.333 -4.66699 -21.333 -9 -30 -13s-17.5 -7.33301 -26.5 -10s-18.5 -4.83398 -28.5 -6.50098s-22 -2.5 -36 -2.5z" />
    <glyph glyph-name="H" unicode="H" horiz-adv-x="686" 
d="M513 805l13.002 -12.998v-28c0.666992 -1.33301 2.16699 -6.5 4.5 -15.5s4.83301 -19.667 7.5 -32s4 -20.5 4 -24.5v-18c0 -8 -0.166992 -16.5 -0.5 -25.5s-0.833008 -18.5 -1.5 -28.5c-4 -48 -6 -78 -6 -90c0 -18.667 0.5 -35 1.5 -49s3.83301 -25.833 8.5 -35.5
s11.834 -17.334 21.501 -23.001s23.167 -9.83398 40.5 -12.501c7.33301 0 16.166 1.66699 26.499 5s18.833 5 25.5 5c5.33301 0 7.66602 -2.33301 6.99902 -7s-4.66699 -10.334 -12 -17.001c-4 -4 -12 -7.83301 -24 -11.5s-24.667 -9.33398 -38 -17.001
s-25.166 -17.834 -35.499 -30.501s-15.5 -29.667 -15.5 -51v-354c-46 41.333 -69 117.666 -69 228.999v43c0 4.66699 0.333008 10.667 1 18s1 18.333 1 33v34c0 26 -5 43.333 -15 52s-28.333 13 -55 13h-68c-8.66699 -1.33301 -19.167 -2.16602 -31.5 -2.49902
s-27.833 -0.833008 -46.5 -1.5c-11.333 0 -22.833 0.333008 -34.5 1s-23.834 1.66699 -36.501 3c-11.333 1.33301 -22.833 3.33301 -34.5 6l-35.5 8c-11.333 -41.333 -17 -82.666 -17 -123.999c0 -97.333 28.667 -174 86 -230c-100.667 0 -151 68 -151 204
c0 4.66699 -0.666992 16.834 -2 36.501s-3 41.5 -5 65.5s-3.66699 47.167 -5 69.5s-2 38.5 -2 48.5c0 84 18.667 142.667 56 176c15.333 -32.667 23 -66.667 23 -102c0 -13.333 -1 -30 -3 -50c-2 -13.333 -4 -30.666 -6 -51.999c41.333 -5.33301 85.833 -9 133.5 -11
s98.5 -3 152.5 -3c30.667 0 52.667 4.83301 66 14.5s20 29.167 20 58.5c0 4.66699 -0.333008 11.5 -1 20.5s-1.5 18.333 -2.5 28s-1.83301 18.667 -2.5 27s-1.33398 13.833 -2.00098 16.5v66v47c0 24.667 5 50.5 15 77.5s24.667 44.833 44 53.5z" />
    <glyph glyph-name="I" unicode="I" horiz-adv-x="916" 
d="M23 -26l-0.000976562 12l13 14h28c4 -0 10.667 1.33301 20 4l29 8.5c10 3 19.333 6 28 9s15 4.5 19 4.5c26 6 53.5 9.5 82.5 10.5s56.167 1.5 81.5 1.5c26.667 0 54.667 0.5 84 1.5s60.666 1.5 93.999 1.5c6.66699 0 17.5 0.166992 32.5 0.5s30.667 0.5 47 0.5
s31.833 0.166992 46.5 0.5s25.667 0.5 33 0.5c38.667 0 70.834 -1.16699 96.501 -3.5s53.834 -6.83301 84.501 -13.5l-41 -7.5c-12.667 -2.33301 -26.334 -4 -41.001 -5s-31.667 -1.83301 -51 -2.5s-42.666 -1 -69.999 -1c-14 0 -39 -1.66699 -75 -5s-79.667 -5 -131 -5
c-19.333 0 -39 -0.833008 -59 -2.5s-40.667 -4.16699 -62 -7.5c-55.333 -8.66699 -99.833 -15.167 -133.5 -19.5s-56.5 -6.5 -68.5 -6.5c-30.667 0 -59.667 3.33301 -87 10zM432.999 150l-12.9971 -13.9971c-6.66699 -12 -15.334 -18 -26.001 -18
c-15.333 0 -28.666 7 -39.999 21s-20.666 31.5 -27.999 52.5s-12.666 43.5 -15.999 67.5s-5 45.667 -5 65v89c0 14 0.833008 26.167 2.5 36.5s2.5 19.5 2.5 27.5c0 21.333 -5.5 40.5 -16.5 57.5s-27.5 29.5 -49.5 37.5c-14.667 5.33301 -33 10.666 -55 15.999
s-47.667 12.666 -77 21.999s-52 23.666 -68 42.999s-24 41.333 -24 66c0 12.667 4.66699 19 14 19c11.333 0 21.166 -3.33301 29.499 -10l41.5 -32c84 -63.333 189 -109 315 -137c78 -18 168.667 -27 272 -27c97.333 0 165.333 -9 204 -27c-32 -3.33301 -65.333 -6 -100 -8
s-70.334 -3 -107.001 -3c-39.333 0 -78 1.83301 -116 5.5s-75.667 5.5 -113 5.5c-40.667 0 -67.334 -8 -80.001 -24c-10.667 -13.333 -16 -41.666 -16 -84.999v-53c0 -24 1 -44.833 3 -62.5s4.33301 -31.834 7 -42.501c5.33301 -17.333 12.666 -33.333 21.999 -48
s21.666 -28 36.999 -40z" />
    <glyph glyph-name="J" unicode="J" horiz-adv-x="818" 
d="M553 628h-82.999h-54l-41 -1.5c-9.33301 -0.333008 -14.333 -0.5 -15 -0.5c-30 0 -58 1 -84 3s-49.667 4.33301 -71 7c-28.667 4 -55 10 -79 18s-46 17.333 -66 28c-26.667 14.667 -40 30.667 -40 48c0 14.667 12 22 36 22h7c3.33301 0 7.33301 -0.666992 12 -2l177 -54
c54 -9.33301 117.833 -16.333 191.5 -21s157.167 -7 250.5 -7h104c-38.667 -26.667 -120.334 -40 -245.001 -40zM421.001 398l15.0029 -20.999c18 -24.667 28.667 -42.5 32 -53.5s5.66602 -18.167 6.99902 -21.5l16 -43.5c4 -11 6.66699 -21.833 8 -32.5
c3.33301 -22.667 6 -43.5 8 -62.5s3 -36.167 3 -51.5c0 -32.667 -5.66699 -61.167 -17 -85.5s-27.666 -36.5 -48.999 -36.5c-6.66699 0 -14.334 1.66699 -23.001 5l-46 19c-16.667 6.66699 -34.834 13 -54.501 19s-40.167 14.333 -61.5 25l-131 66.5
c-30.667 15 -48.334 23.5 -53.001 25.5l13 55l232 -123c2 -0.666992 6.16699 -2.66699 12.5 -6l21.5 -11c8 -4 16 -7.5 24 -10.5s14 -4.5 18 -4.5c20.667 0 34.5 9 41.5 27s10.5 37.333 10.5 58c0 7.33301 -1 17.833 -3 31.5s-4.66699 25.167 -8 34.5
c-6 20 -13.167 42.667 -21.5 68l-26.5 78l-27.5 78.5l-23.5 67.5l21 -20c6 -6 12 -12.333 18 -19s12.5 -14.334 19.5 -23.001s15.167 -19.667 24.5 -33z" />
    <glyph glyph-name="K" unicode="K" horiz-adv-x="638" 
d="M72 696l14.0039 0.00195312v-14c4 -3.33301 7.83301 -9.5 11.5 -18.5s6.66699 -19 9 -30s4.16602 -22.333 5.49902 -34s2 -21.5 2 -29.5v-17c0 -8.66699 -0.333008 -18.167 -1 -28.5s-1.66699 -21.166 -3 -32.499l-5 -68c-1.33301 -18 -2 -30.667 -2 -38
c0 -19.333 1 -34 3 -44c0 -9.33301 2 -23.333 6 -42c68.667 37.333 156.667 56 264 56c78 0 158.667 -9.33301 242 -28c-27.333 -19.333 -60 -29 -98 -29c-8.66699 0 -21.834 0.333008 -39.501 1s-30.834 1 -39.501 1c-5.33301 0 -10.333 -0.166992 -15 -0.5
s-8.66699 -0.5 -12 -0.5c-14 0 -30.667 -1.66699 -50 -5s-41.333 -5 -66 -5c-5.33301 0 -14.666 -0.333008 -27.999 -1s-26.333 -2.66699 -39 -6s-22.5 -8.66602 -29.5 -15.999s-6.83301 -17.666 0.5 -30.999c6.66699 -11.333 22.5 -27 47.5 -47s56.833 -42 95.5 -66h13
l4 -3l12.5 -9l17 -12.5l15 -11.5c4.33301 -3.33301 6.83301 -5 7.5 -5l14 -10c9.33301 -6.66699 18.166 -12.334 26.499 -17.001s17.166 -9.33398 26.499 -14.001h15c4 -7.33301 8.16699 -14.333 12.5 -21l13.5 -20c-57.333 0 -139.333 31.667 -246 95
c-8.66699 4.66699 -24.167 13.834 -46.5 27.501l-89.5 54.5l-20.5 -37.5c-5 -9 -8.16699 -14.5 -9.5 -16.5c-16 -24.667 -42.667 -38.334 -80 -41.001c-2.66699 15.333 -5 31.166 -7 47.499s-3 33.166 -3 50.499c0 6 1.16699 21.167 3.5 45.5l8 82
c3 30.333 5.66699 60.166 8 89.499s3.5 52 3.5 68v105c0 62 9.66699 104 29 126z" />
    <glyph glyph-name="L" unicode="L" horiz-adv-x="627" 
d="M75 668l26.999 -0.000976562c8.66699 -34 13 -89.333 13 -166v-79c0 -15.333 -0.666992 -32.5 -2 -51.5s-3 -37.333 -5 -55s-3.66699 -33.5 -5 -47.5s-2 -23.667 -2 -29c0 -39.333 11.333 -71.333 34 -96c10.667 -12 24.5 -23.5 41.5 -34.5s35.5 -20.833 55.5 -29.5
s40.833 -15.667 62.5 -21s42.167 -8 61.5 -8c38.667 0 91 9.66699 157 29l94 28c-18 -51.333 -60 -84 -126 -98c-29.333 -6.66699 -87.333 -10 -174 -10c-37.333 0 -82.666 8.66699 -135.999 26c-23.333 8.66699 -43.333 13.334 -60 14.001c-6 1.33301 -12.333 2 -19 2h-21
h-25c-8.66699 -0.666992 -15.167 -1 -19.5 -1h-6.5c0 52 1.16699 107.5 3.5 166.5s5.5 121.833 9.5 188.5c0 2 -0.166992 8.83301 -0.5 20.5s-1 24.834 -2 39.501s-1.83301 28.667 -2.5 42s-1 22.666 -1 27.999c0 66.667 16 114 48 142z" />
    <glyph glyph-name="M" unicode="M" horiz-adv-x="755" 
d="M393 492l7.99902 -13.001c4 -19.333 6.83301 -34 8.5 -44s3.5 -18.5 5.5 -25.5s4.5 -14 7.5 -21s7.83301 -16.833 14.5 -29.5c6.66699 14 13 31.5 19 52.5s11.333 37.833 16 50.5c2 6.66699 5.16699 14.834 9.5 24.501s8.83301 19 13.5 28l13.5 25.5
c4.33301 8 7.5 14 9.5 18c12.667 24 25.667 42.667 39 56c18 -43.333 33 -91 45 -143c4 -16.667 7.66699 -36.834 11 -60.501s6.5 -48.5 9.5 -74.5s5.83301 -52 8.5 -78s5 -50 7 -72c2.66699 -28 7 -53.5 13 -76.5s13 -43.5 21 -61.5c4.66699 -11.333 25.667 -50 63 -116
c-66 0 -109.333 36 -130 108c-4 13.333 -7.16699 31.166 -9.5 53.499s-4.83301 49.833 -7.5 82.5c-2.66699 38.667 -5.16699 71.334 -7.5 98.001s-4.5 46.334 -6.5 59.001c-9.33301 56.667 -24 95.667 -44 117c-0.666992 -2.66699 -5.16699 -16.834 -13.5 -42.501
s-18.166 -54.5 -29.499 -86.5s-22.833 -62.833 -34.5 -92.5s-21.167 -50.167 -28.5 -61.5c-30.667 -46.667 -68 -75 -112 -85c4 23.333 9.33301 50 16 80s14.667 63 24 99l28 107c2 9.33301 3 19.333 3 30c0 47.333 -31.667 86 -95 116l-45 20.5l-55 24.5
c-8 -32.667 -12 -96.667 -12 -192c0 -92 -6.66699 -161.667 -20 -209c-20.667 -70.667 -59.667 -114.667 -117 -132c-2 21.333 -3 42.666 -3 63.999v77c0 10.667 0.5 20.167 1.5 28.5s1.5 15.833 1.5 22.5c0 5.33301 -1 15.333 -3 30l-6.5 48.5
c-2.33301 17.667 -4.5 35.334 -6.5 53.001s-3 31.834 -3 42.501v27c0 4 0.666992 7.5 2 10.5s2 5.16699 2 6.5c36.667 -36 64 -95 82 -177c28 91.333 42 177.666 42 258.999c0 12.667 -1.16699 24.834 -3.5 36.501s-5.5 22.834 -9.5 33.501l-42 108
c28 -4 51.333 -17.333 70 -40c7.33301 -9.33301 14.333 -17.333 21 -24l18 -18c26.667 -20.667 56 -41.834 88 -63.501s66.333 -41.167 103 -58.5z" />
    <glyph glyph-name="N" unicode="N" horiz-adv-x="737" 
d="M566 136l15.0049 14.001c3.33301 2.66699 7.16602 9.33398 11.499 20.001s8.5 22.5 12.5 35.5s7.5 25.833 10.5 38.5s4.83301 22 5.5 28c18 128 27 233 27 315c0 1.33301 -0.5 6.66602 -1.5 15.999s-2.16699 22.333 -3.5 39c0 11.333 15.333 20 46 26
c3.33301 -18.667 5.83301 -37.667 7.5 -57s2.5 -38.333 2.5 -57c0 -22.667 -0.833008 -46.167 -2.5 -70.5s-4.83398 -48.166 -9.50098 -71.499c-6.66699 -32 -14.5 -72 -23.5 -120s-18.5 -104.333 -28.5 -169c17.333 -4.66699 33.166 -8 47.499 -10s25.833 -3.66699 34.5 -5
c-26.667 -5.33301 -49.334 -11 -68.001 -17s-28 -18.333 -28 -37v-46c0 -10.667 -4.66699 -18 -14 -22l-14 14h-12c-5.33301 22 -10.833 39.667 -16.5 53s-12.834 24.333 -21.501 33s-19.667 15.667 -33 21s-31 10.666 -53 15.999c-15.333 4 -29.666 9.16699 -42.999 15.5
s-25.666 15.5 -36.999 27.5c-0.666992 1.33301 -9.16699 12 -25.5 32l-72.5 88c-45.333 -93.333 -80 -158 -104 -194c-52.667 -78.667 -104.334 -118 -155.001 -118c2 14 7.83301 35.833 17.5 65.5s20.167 60 31.5 91l30.5 84c9 25 14.167 39.833 15.5 44.5
c3.33301 14 7.83301 31.333 13.5 52l19.5 72c14 46.667 35 78 63 94c1.33301 -11.333 2.33301 -22 3 -32s1 -19.667 1 -29v-29c0 -8.66699 -0.333008 -16.334 -1 -23.001l-3 -50c5.33301 4 13.833 17.5 25.5 40.5s27.167 55.5 46.5 97.5c14.667 32 32 54 52 66
c0 -1.33301 1 -13.333 3 -36s4.66699 -56.667 8 -102c2.66699 -33.333 7.66699 -60 15 -80c25.333 -70 93.666 -124.667 204.999 -164z" />
    <glyph glyph-name="O" unicode="O" horiz-adv-x="755" 
d="M80 532c22.667 24 56.3301 42.668 100.997 56.001c24.667 8 52.334 15.167 83.001 21.5s64 11.166 100 14.499c12.667 1.33301 25 2.33301 37 3s24.333 1 37 1c84 0 151.333 -13.667 202 -41c63.333 -34 95 -88.667 95 -164c0 -58.667 -32 -119 -96 -181
c-52.667 -50.667 -111.667 -90.334 -177 -119.001c-20.667 -9.33301 -54 -27 -100 -53c-74.667 -42 -132.667 -65.333 -174 -70c-7.33301 -1.33301 -19.333 -1 -36 1s-29 3 -37 3c-40.667 0 -66.667 7.33301 -78 22s-17 39.334 -17 74.001v21c0 1.33301 0.5 3.5 1.5 6.5
s1.83301 5.83301 2.5 8.5c14 65.333 37.667 127.333 71 186c41.333 72.667 86.333 115.334 135 128.001c0 -37.333 -11.333 -75 -34 -113c-67.333 -110 -101.666 -167.667 -102.999 -173c-7.33301 -28 -11 -49.333 -11 -64c0 -44 24.667 -66 74 -66
c17.333 0 37.333 2.33301 60 7c130.667 24.667 258 93 382 205c48 44 72 94 72 150c0 56.667 -20.667 102.667 -62 138c-39.333 35.333 -88 53 -146 53c-122 0 -226.667 -13.667 -314 -41c-16 -4.66699 -28.667 -10.667 -38 -18s-17.166 -16.833 -23.499 -28.5
s-12 -26 -17 -43l-17.5 -60.5l-13 14c-0.666992 1.33301 -1 3.16602 -1 5.49902v5.5c0 7.33301 1.33301 16.333 4 27s6 21.5 10 32.5s8.5 21.167 13.5 30.5s9.83301 16.333 14.5 21z" />
    <glyph glyph-name="P" unicode="P" horiz-adv-x="497" 
d="M68 0l-0.000976562 26c-1.33301 4 -2 7.66699 -2 11c0 6 1.5 13.667 4.5 23s6.33301 18.5 10 27.5l10 24c3 7 4.5 10.833 4.5 11.5c0 51.333 -4.33301 92.333 -13 123c0.666992 -1.33301 -2.16602 3 -8.49902 13s-13.5 22.167 -21.5 36.5s-15.333 29 -22 44
s-10 26.833 -10 35.5c0 10 2 21.667 6 35c28.667 86 44.667 136.333 48 151c4 17.333 6.66699 39.5 8 66.5s4.16602 53.333 8.49902 79s11.666 47.834 21.999 66.501s26.833 28 49.5 28c28.667 0 66.667 -11.333 114 -34c26.667 -12 62 -31 106 -57
c33.333 -20 57.5 -42.5 72.5 -67.5s22.5 -52.167 22.5 -81.5c0 -55.333 -25 -112 -75 -170c-46.667 -52.667 -98.667 -92.334 -156 -119.001c-45.333 -20 -75.333 -58 -90 -114c-1.33301 -6 -3.66602 -22.167 -6.99902 -48.5s-7.66602 -62.833 -12.999 -109.5h-68z
M189.999 286l13.999 -0.000976562h5c6 0 15.333 2.83301 28 8.5s25.667 12.334 39 20.001l39 23.5c12.667 8 22 14.667 28 20c24.667 21.333 44.167 47 58.5 77s21.5 59.667 21.5 89c0 43.333 -15 82 -45 116c-25.333 30 -60.666 53.333 -105.999 70l-42.5 15
c-15.667 5.33301 -30.167 8 -43.5 8c-33.333 0 -50 -25.667 -50 -77c0 -122.667 18 -246 54 -370z" />
    <glyph glyph-name="Q" unicode="Q" horiz-adv-x="812" 
d="M744 -14c-9.33301 2.66699 -19.832 7 -31.499 13s-24.167 13.667 -37.5 23l-27 18.5l-38.5 25.5c-13.667 8.66699 -26.834 16.167 -39.501 22.5s-22 9.5 -28 9.5c1.33301 0 -3.66699 -1 -15 -3s-25 -6.33301 -41 -13l-88 -38c-24.667 -10.667 -51.5 -19.5 -80.5 -26.5
s-57.833 -10.5 -86.5 -10.5s-52.667 5.83301 -72 17.5s-29 30.834 -29 57.501v17.5c0 7.66699 -0.166992 15.167 -0.5 22.5s-0.5 13.666 -0.5 18.999s0 7.66602 0 6.99902c0 10.667 -3.5 19 -10.5 25s-16.833 11.667 -29.5 17c-46 18.667 -69 42.667 -69 72
c0 14 4.83301 27.667 14.5 41s22 25.833 37 37.5s31.333 22.334 49 32.001s34.5 17.5 50.5 23.5l86.5 34l120.5 46c77.333 28.667 149 43 215 43c42.667 0 78.334 -4.33301 107.001 -13c61.333 -17.333 92 -48.666 92 -93.999c0 -32.667 -16 -72 -48 -118
c-1.33301 -2 -8 -9.83301 -20 -23.5s-24.667 -29.167 -38 -46.5s-25.5 -34.333 -36.5 -51s-16.5 -29.334 -16.5 -38.001c0 -12.667 7.16699 -24.5 21.5 -35.5l48.5 -36c18 -13 35.167 -27.833 51.5 -44.5s26.833 -36.667 31.5 -60c-6.66699 6 -14.834 12 -24.501 18
s-15.5 9 -17.5 9zM458.001 272h12.998c2.66699 1.33301 4.66699 2 6 2c10 0 20.833 -4.66699 32.5 -14s23.167 -19.333 34.5 -30l33 -30c10.667 -9.33301 20.334 -14 29.001 -14c14 0 37.333 15.333 70 46c46.667 43.333 70 92.666 70 147.999
c0 25.333 -7.33301 46.833 -22 64.5s-34.667 28.167 -60 31.5c-11.333 1.33301 -21.833 2.33301 -31.5 3s-18.5 1 -26.5 1c-17.333 0 -35.5 -1 -54.5 -3s-38.167 -5.66699 -57.5 -11l-118 -29c-38.667 -9.33301 -74 -46.333 -106 -111c-10 -20 -19.833 -43.667 -29.5 -71
s-19.167 -57.666 -28.5 -90.999c-6 -22 -9 -41.333 -9 -58c0 -42.667 23 -64 69 -64c35.333 0 74.833 9.33301 118.5 28s88.834 40.667 135.501 66l-24 30c-6.66699 8.66699 -12 16 -16 22c-18.667 27.333 -28 55.333 -28 84zM197.999 341h-30.999
c-10 0 -20.5 -3.83301 -31.5 -11.5s-21.333 -17 -31 -28s-18.334 -22.833 -26.001 -35.5s-13.167 -24 -16.5 -34c20.667 -11.333 39.667 -17 57 -17c42.667 0 69 42 79 126z" />
    <glyph glyph-name="R" unicode="R" horiz-adv-x="694" 
d="M100 95l-0.00292969 13l-13 15v41l-13 13c-1.33301 1.33301 -3.5 24.5 -6.5 69.5s-6.16699 108.167 -9.5 189.5c-3.33301 62 -11.666 112.333 -24.999 151c-8.66699 26 -13 43.667 -13 53c0 16 7.33301 24 22 24c4 0 13.333 -3.33301 28 -10l48.5 -23l52 -26
c17 -8.66699 30.167 -14.667 39.5 -18l69 -26.5c27.333 -10.333 59.333 -23.166 96 -38.499c63.333 -26.667 108.333 -64 135 -112c9.33301 -16.667 14 -34.667 14 -54c0 -56 -40.667 -106.333 -122 -151c22 -32.667 52 -60.667 90 -84l63.5 -38l118.5 -69
c-9.33301 -3.33301 -21.666 -5 -36.999 -5c-31.333 0 -67 9.66699 -107 29c-2.66699 1.33301 -12.834 7.16602 -30.501 17.499l-59.5 34l-64.5 35c-21 11 -36.167 18.167 -45.5 21.5c-33.333 12 -68.666 18 -105.999 18c-12 0 -22.667 -3.16699 -32 -9.5
s-18.666 -13.5 -27.999 -21.5s-19 -15.833 -29 -23.5s-21.667 -12.5 -35 -14.5zM127.997 559l-13.002 -13v-14c0 -1.33301 -0.166992 -2.33301 -0.5 -3s-0.5 -1.66699 -0.5 -3c0 -4 2.5 -11 7.5 -21s7.16699 -14.333 6.5 -13c4.66699 -18.667 9.66699 -37.167 15 -55.5
s9.66602 -36.5 12.999 -54.5c4.66699 -22 11 -41.833 19 -59.5s19 -33.834 33 -48.501c30 -33.333 66 -50 108 -50c14.667 0 29.334 2.66699 44.001 8c64 20 96 55 96 105c0 62 -58.667 118.333 -176 169c-21.333 9.33301 -44.666 18.333 -69.999 27
s-52.666 17.334 -81.999 26.001z" />
    <glyph glyph-name="S" unicode="S" horiz-adv-x="707" 
d="M625 231l-19 15.001h-13h-50h-83c-5.33301 0 -12.666 -0.166992 -21.999 -0.5s-19 -0.833008 -29 -1.5l-29 -2c-9.33301 -0.666992 -16.333 -1.33398 -21 -2.00098h-106c-62.667 0 -114.334 12.167 -155.001 36.5s-61 60.166 -61 107.499c0 52 26 109 78 171
c46.667 55.333 92.667 93 138 113c17.333 8 35.5 15.333 54.5 22s38.833 12.667 59.5 18c27.333 6 66.333 11 117 15c3.33301 0.666992 7.66602 1 12.999 1h12c34.667 0 63 -5.16699 85 -15.5s33 -25.833 33 -46.5c0 -14.667 -6.66699 -30.667 -20 -48
c-15.333 24.667 -34.666 42.5 -57.999 53.5s-51.333 16.5 -84 16.5c-81.333 0 -161.666 -29.667 -240.999 -89c-82.667 -62 -124 -128.333 -124 -199c0 -28.667 6.66699 -52.334 20 -71.001s35.666 -32.334 66.999 -41.001c28 -8 72.667 -12 134 -12
c-4 0 3.83301 0.833008 23.5 2.5s42.834 3.5 69.501 5.5s53.167 3.83301 79.5 5.5s44.166 2.5 53.499 2.5c93.333 0 140 -17.333 140 -52c0 -18.667 -13 -42.667 -39 -72c-44.667 -49.333 -105.667 -90 -183 -122c-37.333 -14.667 -74.166 -24.667 -110.499 -30
s-71.833 -8 -106.5 -8c-60 0 -108.833 10.333 -146.5 31s-64.834 54.334 -81.501 101.001l28 14c9.33301 5.33301 17.666 8 24.999 8l10.5 -2l31.5 -6l-26 -27c19.333 -60 67.333 -90 144 -90c18.667 0 38.667 2.66699 60 8c82.667 20.667 151.834 46.834 207.501 78.501
s97.167 68.834 124.5 111.501z" />
    <glyph glyph-name="T" unicode="T" horiz-adv-x="831" 
d="M307 668c76 -8 166.668 -11.9961 272.001 -11.9961c110 0 187.333 -23 232 -69c-48 8.66699 -93.833 17.834 -137.5 27.501s-89.834 19.167 -138.501 28.5h-32c-31.333 0 -55 -7.16699 -71 -21.5s-24 -33.833 -24 -58.5c0 -4.66699 0.333008 -11.5 1 -20.5
s1.5 -18.667 2.5 -29s1.83301 -20 2.5 -29s1 -15.833 1 -20.5c0 -8.66699 0.666992 -21.834 2 -39.501s3 -36.667 5 -57s3.66699 -40.333 5 -60s2 -35.834 2 -48.501c0 -15.333 -0.666992 -31.166 -2 -47.499s-2 -33.166 -2 -50.499c0 -12 0.333008 -26.167 1 -42.5
s1 -37.833 1 -64.5v-80c-30.667 13.333 -49.334 36 -56.001 68s-10 68.667 -10 110v271c0 59.333 -3.33301 102 -10 128c-6 23.333 -15 41.666 -27 54.999s-27 20.666 -45 21.999c-15.333 1.33301 -34.666 2.83301 -57.999 4.5s-50.666 4.16699 -81.999 7.5
c-50.667 5.33301 -90.334 28.666 -119.001 69.999c12.667 7.33301 28.667 11 48 11c18 0 35.5 -1.5 52.5 -4.5s34.667 -6.83301 53 -11.5s38.333 -10.334 60 -17.001s46.167 -13.334 73.5 -20.001z" />
    <glyph glyph-name="U" unicode="U" horiz-adv-x="723" 
d="M20 54c0 54 4.99805 117.338 14.998 190.005c3.33301 23.333 8.5 49.333 15.5 78s10.5 66.334 10.5 113.001c0 7.33301 0.333008 22.333 1 45s2.33398 52.667 5.00098 90c1.33301 20 8 36 20 48s26.333 19.667 43 23c0 -30 -3 -65 -9 -105
c-6 -45.333 -10.667 -82 -14 -110s-5 -47.333 -5 -58c0 -15.333 -0.5 -31.166 -1.5 -47.499s-2.16699 -33.166 -3.5 -50.499c-8 -86.667 -12 -138 -12 -154c0 -20.667 1.5 -42.334 4.5 -65.001s7.16699 -44.334 12.5 -65.001c63.333 11.333 124.333 45.666 183 102.999
c61.333 61.333 92 121.666 92 180.999c0 6.66699 -0.666992 17.5 -2 32.5s-2 26.167 -2 33.5c0 65.333 12 124 36 176c27.333 59.333 66 98 116 116c6.66699 -28.667 10 -58 10 -88c0 -16.667 -1.5 -34.834 -4.5 -54.501s-6.83301 -40.834 -11.5 -63.501l-7 -20
c-4.66699 -13.333 -9.66699 -29.333 -15 -48s-10.333 -38.334 -15 -59.001s-7 -38.334 -7 -53.001c0 -17.333 3.83301 -34.333 11.5 -51s19.834 -30.334 36.501 -41.001c11.333 -7.33301 26 -15.833 44 -25.5s36 -20.667 54 -33s34.667 -26.166 50 -41.499s26 -32 32 -50
c-46 0 -112 32 -198 96c-3.33301 2 -13.5 9.83301 -30.5 23.5l-72.5 57.5c-34.667 -42.667 -80 -87.667 -136 -135c-75.333 -63.333 -134.333 -95 -177 -95c-46 0 -69 35.667 -69 107zM429.998 286.005c25.333 24 44.5 53.501 57.5 88.501s19.5 72.167 19.5 111.5
c0 20.667 -2.66699 45 -8 73c-56 -34 -84 -88.333 -84 -163c0 -28.667 5 -65.334 15 -110.001z" />
    <glyph glyph-name="V" unicode="V" horiz-adv-x="643" 
d="M541 600h-15.9922c-2.66699 0 -11 4 -25 12c-22.667 10.667 -37.834 25.334 -45.501 44.001s-11.5 45.334 -11.5 80.001c0 30.667 5.5 54 16.5 70s29.167 24 54.5 24c16 0 30.833 -5.33301 44.5 -16s25.167 -24 34.5 -40s16.666 -33.5 21.999 -52.5s8 -36.833 8 -53.5
v-12c0 -37.333 -7.66699 -78.333 -23 -123s-32.333 -87.667 -51 -129c-16 -34 -34.833 -69.833 -56.5 -107.5s-46.5 -77.5 -74.5 -119.5c-29.333 -44 -67.333 -84.333 -114 -121c-25.333 -18.667 -49.166 -31.667 -71.499 -39s-42.5 -11 -60.5 -11
c-27.333 0 -47.833 10.167 -61.5 30.5s-20.5 53.5 -20.5 99.5l-69 328c-0.666992 5.33301 -0.833984 10.666 -0.500977 15.999s0.5 9.33301 0.5 12c18 -9.33301 33.833 -21.166 47.5 -35.499s24.5 -32.5 32.5 -54.5c2.66699 -6.66699 5.16699 -15.167 7.5 -25.5
s5.16602 -23.666 8.49902 -39.999s7.16602 -36.333 11.499 -60l16.5 -86.5c2.66699 -13.333 6 -28.5 10 -45.5s9.16699 -33 15.5 -48s13.666 -27.5 21.999 -37.5s17.833 -15 28.5 -15c15.333 0 29.666 6.83301 42.999 20.5s28.333 28.167 45 43.5
c60.667 55.333 112 117.666 154 186.999c43.333 71.333 73.666 145.666 90.999 222.999c2 8.66699 4.5 20.167 7.5 34.5l9.5 44.5c3.33301 15.333 6.16602 30.166 8.49902 44.499s3.5 25.5 3.5 33.5c0 59.333 -27.667 93.666 -83 102.999c-6 -24 -9 -44 -9 -60
c0 -21.333 4 -39.666 12 -54.999s20.667 -36.333 38 -63z" />
    <glyph glyph-name="W" unicode="W" horiz-adv-x="812" 
d="M536 723l15 15.0049l27 3c2 -0.666992 10.167 -3 24.5 -7s31.666 -9.5 51.999 -16.5s35.5 -14.167 45.5 -21.5c61.333 -45.333 92 -119.333 92 -222c0 -14.667 -0.333008 -26.834 -1 -36.501s-1.66699 -17.5 -3 -23.5c-1.33301 -8 -3.33301 -18.667 -6 -32
c-10.667 -46.667 -30.667 -90.667 -60 -132c-12 -17.333 -25.667 -35.666 -41 -54.999s-34.333 -39.333 -57 -60c-28.667 -26 -58.5 -45.333 -89.5 -58s-61.167 -19 -90.5 -19c-60 0 -106.667 30.667 -140 92c-2 -2 -9.66699 -11.833 -23 -29.5s-28.333 -36.5 -45 -56.5
s-33.5 -38.333 -50.5 -55s-30.167 -25 -39.5 -25h-28c-22.667 0 -38.334 10.167 -47.001 30.5s-13 47.166 -13 80.499v137c0 7.33301 -2 18.666 -6 33.999l-13 50c-4.66699 18 -9 35.833 -13 53.5s-6 31.834 -6 42.501c0 16 3.66699 33.333 11 52
c35.333 -40.667 59.666 -86 72.999 -136c2.66699 -12.667 5.33398 -32 8.00098 -58s5.33398 -53.667 8.00098 -83s5.66699 -57.5 9 -84.5s7 -47.5 11 -61.5c54 52.667 93.333 98 118 136c10.667 16.667 20.167 33.667 28.5 51s14.833 34.666 19.5 51.999l12.5 50l17.5 70
c12 43.333 33.333 78.333 64 105c10 -20.667 15 -42.334 15 -65.001c0 -10.667 -2.33301 -25.667 -7 -45s-9.66699 -38.5 -15 -57.5s-10.166 -35.333 -14.499 -49s-6.5 -19.834 -6.5 -18.501c-2.66699 -7.33301 -4 -22 -4 -44c0 -84 34 -126 102 -126
c8 0 16.333 0.666992 25 2s17.667 3.33301 27 6c62.667 20 116 68.333 160 145c40 71.333 60 143.666 60 216.999v18c0 30.667 -7.66699 58.167 -23 82.5s-37 43.5 -65 57.5c-30.667 16 -56 32.167 -76 48.5s-34 31.833 -42 46.5z" />
    <glyph glyph-name="X" unicode="X" horiz-adv-x="764" 
d="M33 -68l-13.0029 13.998v14c0 19.333 8.16699 44.833 24.5 76.5l49.5 97.5l172 234c6 14 10.667 24.5 14 31.5l5 10.5c0 4 -1.66699 9 -5 15s-12.333 14.333 -27 25l-164 124c-13.333 10.667 -26 23.667 -38 39s-18 30.333 -18 45c0 16 5 24 15 24
c5.33301 0 12.333 -2.66699 21 -8s18 -12 28 -20l31 -26c10.667 -9.33301 20.334 -18.666 29.001 -27.999c65.333 -66.667 124.666 -116.667 177.999 -150l40.5 64l25.5 38c4.66699 6.66699 10.334 14.167 17.001 22.5s13.334 16 20.001 23s13.334 12.833 20.001 17.5
s12.334 7 17.001 7c8 0 12 -7.33301 12 -22c0 -12.667 -1.83301 -24 -5.5 -34s-8.5 -20 -14.5 -30s-13.333 -20.667 -22 -32s-18 -24.666 -28 -39.999c-12 -18.667 -18 -34.667 -18 -48c0 -6 2.5 -12.667 7.5 -20s10.667 -14.5 17 -21.5s12.666 -13.5 18.999 -19.5l14.5 -14
l56 -63l53 -60c3.33301 -4 12.333 -16.5 27 -37.5l49.5 -70l55.5 -74.5c18.667 -24 34 -40.667 46 -50c-57.333 0 -101.666 16 -132.999 48c-10.667 10.667 -21.834 26.834 -33.501 48.501s-24.5 48.834 -38.5 81.501c-18 43.333 -63.667 88.666 -137 135.999
c-2 1.33301 -5 4 -9 8s-8.5 8 -13.5 12s-10 7.66699 -15 11s-9.5 5 -13.5 5c-8.66699 0 -19 -3.83301 -31 -11.5s-24 -16.834 -36 -27.501s-23.333 -22 -34 -34s-19 -22.333 -25 -31l-60 -86l-40 -61l-44 -70.5z" />
    <glyph glyph-name="Y" unicode="Y" horiz-adv-x="681" 
d="M429 518l40.999 52.5c16 21 35.667 45.5 59 73.5c18 22 38.333 38.5 61 49.5s46.334 16.5 71.001 16.5c-12 -34.667 -34 -69.667 -66 -105c-5.33301 -6 -17 -17.167 -35 -33.5l-58 -53l-59.5 -55c-19 -17.667 -32.5 -31.167 -40.5 -40.5
c-24.667 -28.667 -39.334 -46.334 -44.001 -53.001c-9.33301 -12 -16.166 -23.333 -20.499 -34s-6.5 -24.667 -6.5 -42v-34c0 -17.333 1 -31.166 3 -41.499s3 -16.5 3 -18.5c0 -10.667 -0.833008 -27.334 -2.5 -50.001s-3.66699 -46.167 -6 -70.5
s-4.33301 -47.666 -6 -69.999s-2.5 -39.166 -2.5 -50.499c-21.333 30.667 -36.666 67.667 -45.999 111c-2.66699 11.333 -6.66699 33.833 -12 67.5s-13.333 78.5 -24 134.5c-2.66699 16 -10.334 33.667 -23.001 53s-27.334 38.333 -44.001 57l-37.5 44l-52.5 62
c-16.667 20.667 -30.167 41.667 -40.5 63s-17.166 42.333 -20.499 63c21.333 -4 43 -15.333 65 -34s43.667 -44.334 65 -77.001l41.5 -67.5l59.5 -94.5c16 9.33301 32 21 48 35s32 29.667 48 47l38.5 42.5c13.667 15.667 28.167 33.167 43.5 52.5z" />
    <glyph glyph-name="Z" unicode="Z" horiz-adv-x="928" 
d="M279 656l13.9961 12h30c6 0 13.167 -1.33301 21.5 -4s16.333 -5.83398 24 -9.50098s14.334 -7 20.001 -10s9.16699 -4.5 10.5 -4.5l52 -7c15.333 -2 28.333 -4.33301 39 -7c15.333 -2.66699 33.666 -4 54.999 -4c17.333 0 42.833 3.83301 76.5 11.5
s68.834 16.167 105.501 25.5s71.667 17.833 105 25.5s58.666 11.5 75.999 11.5c-17.333 -40.667 -70.333 -85.667 -159 -135c-60 -32.667 -98 -55.667 -114 -69l-106.5 -89.5l-123.5 -109.5l-112 -103c18 -4 39.667 -6 65 -6c5.33301 0 11.166 0.166992 17.499 0.5
s13.833 0.833008 22.5 1.5c10 0 18.333 0.166992 25 0.5s11.667 0.833008 15 1.5c19.333 0 36.833 -1.66699 52.5 -5s30.167 -9 43.5 -17c10.667 -6.66699 23.834 -17.5 39.501 -32.5l47.5 -47l46 -45.5c14.667 -14 26.667 -23 36 -27c-38 0 -106.667 24.667 -206 74
c-46.667 23.333 -92 35 -136 35l-341 -109c19.333 37.333 57 79.333 113 126c2 2 13.833 10.667 35.5 26l74.5 54l84.5 63.5c28.333 21.667 50.5 39.5 66.5 53.5c11.333 10 26 23.667 44 41l63 62l106 106c-19.333 2.66699 -43.166 6.5 -71.499 11.5
s-61.166 11.167 -98.499 18.5c-33.333 6.66699 -63.166 16.834 -89.499 30.501s-49.166 30.167 -68.499 49.5z" />
    <glyph glyph-name="bracketleft" unicode="[" horiz-adv-x="426" 
d="M296 682c-3.33301 -2 -13.666 -6.1709 -30.999 -12.5039l-58 -22l-64.5 -25.5c-21.667 -8.66699 -38.834 -16 -51.501 -22c12.667 -26.667 21.334 -51 26.001 -73s7 -47.667 7 -77c0 -7.33301 -2 -24 -6 -50l-13 -86.5c-4.66699 -31.667 -9 -63.167 -13 -94.5
s-6 -56.333 -6 -75c0 -21.333 1.66699 -42 5 -62c3.33301 0.666992 7.16602 1.5 11.499 2.5s9.5 1.5 15.5 1.5h24c20.667 0 41.167 -3.16699 61.5 -9.5s41.833 -15.166 64.5 -26.499c74.667 -37.333 120.667 -58.666 138 -63.999h-14h-11c-4.66699 0 -17 2.33301 -37 7
l-67.5 15c-25 5.33301 -50 10.333 -75 15s-44.833 7 -59.5 7c-9.33301 0 -22.333 -1.33301 -39 -4s-29.667 -4 -39 -4c-29.333 0 -44 12 -44 36c0 9.33301 1.66699 21.333 5 36s7.33301 33.334 12 56.001c5.33301 26.667 9.33301 51.334 12 74.001l7 60
c2.66699 20 4.66699 40.5 6 61.5s2 42.5 2 64.5c0 11.333 -1.16699 24.333 -3.5 39s-5.5 31 -9.5 49c-19.333 81.333 -29 134 -29 158c88 0 170 13.333 246 40l6 -2c6 -2 10 -4.5 12 -7.5s5.33301 -4.5 10 -4.5z" />
    <glyph glyph-name="backslash" unicode="\" horiz-adv-x="404" 
d="M384 14l-15.999 0.00390625c-14 0 -29.5 6.5 -46.5 19.5s-33.833 28.167 -50.5 45.5s-32 35.166 -46 53.499s-25 33.166 -33 44.499c-29.333 39.333 -53.333 76.666 -72 111.999c-10.667 19.333 -20 39.333 -28 60s-15.333 41 -22 61l-10 25.5l-17 44.5
c-6 16 -11.333 31.5 -16 46.5s-7 25.833 -7 32.5c0 28.667 16.667 47 50 55l17.5 -60l16.5 -54c7.33301 -25.333 14.166 -47.5 20.499 -66.5s12.166 -35.5 17.499 -49.5c6.66699 -18.667 14.334 -37.334 23.001 -56.001l27 -56l26 -30l59.5 -72l65 -85.5
c21 -29 34.833 -52.5 41.5 -70.5z" />
    <glyph glyph-name="bracketright" unicode="]" horiz-adv-x="436" 
d="M170 587l13.999 12.999c2.66699 9.33301 15.167 15.333 37.5 18s51.833 6.66699 88.5 12c38.667 0 66 -6.66699 82 -20s24 -36.666 24 -69.999c0 -10.667 -1 -22.167 -3 -34.5s-4.66699 -25.833 -8 -40.5l-31 -124c-1.33301 -16 -2.5 -31 -3.5 -45s-1.5 -27 -1.5 -39
c0 -62 15.333 -120.333 46 -175c-19.333 -10.667 -39.5 -20.667 -60.5 -30s-42.5 -18 -64.5 -26c-56 -20.667 -106 -31 -150 -31c-53.333 0 -93.333 15.333 -120 46c4.66699 0.666992 9.5 1.16699 14.5 1.5s10.833 0.5 17.5 0.5h55c22.667 0 42.167 0.5 58.5 1.5
s29.833 2.16699 40.5 3.5c36.667 6 65.334 17.333 86.001 34c18 14.667 27 30 27 46c0 17.333 -2.5 35.666 -7.5 54.999s-7.5 35 -7.5 47c0 14 2.33301 35.667 7 65s9.66699 59.166 15 89.499s10.333 57.333 15 81s7 36.834 7 39.501v7
c0 20.667 -4.83301 36.834 -14.5 48.501s-24.5 17.5 -44.5 17.5c-13.333 0 -30 1 -50 3s-43 4 -69 6z" />
    <glyph glyph-name="asciicircum" unicode="^" horiz-adv-x="463" 
d="M33 410l-12.999 13.001l13 13v4c0 5.33301 1.5 11 4.5 17l10.5 20c10.667 19.333 20.334 36 29.001 50l38 60l21 33.5l30.5 49l31.5 52.5c10 17.333 18 31.666 24 42.999c12 22.667 35.667 36 71 40c0 -91.333 11 -169 33 -233c22 -66 61 -134 117 -204
c-72.667 0 -124.667 32 -156 96c-0.666992 2.66699 -7.33398 18.667 -20.001 48l-56 129c-4.66699 -7.33301 -11.834 -19.333 -21.501 -36l-36.5 -65c-40 -74.667 -80 -118 -120 -130z" />
    <glyph glyph-name="underscore" unicode="_" horiz-adv-x="517" 
d="M20 14l-0.000976562 11.999l14 15c4 4 14.667 8 32 12s38 7.66699 62 11s49.5 6.33301 76.5 9s51.667 5 74 7s40.666 3.5 54.999 4.5s20.833 1.5 19.5 1.5c74 0 122 -20 144 -60c-10.667 -2.66699 -28 -4 -52 -4c-4.66699 0 -12.167 0.333008 -22.5 1
s-21.333 1.33398 -33 2.00098s-22.5 1.33398 -32.5 2.00098s-17.667 1 -23 1c-21.333 0 -60 -4 -116 -12l-103 -16c-3.33301 -0.666992 -8.16602 -2 -14.499 -4s-11.166 -3 -14.499 -3c-12.667 0 -23.167 2.16699 -31.5 6.5s-19.833 9.16602 -34.5 14.499z" />
    <glyph glyph-name="grave" unicode="`" horiz-adv-x="272" 
d="M74 723c7.33301 -2 16.668 -9.16699 28.001 -21.5s23.166 -26.833 35.499 -43.5l36.5 -51c12 -17.333 22.667 -32 32 -44c24 -30 39.333 -58.667 46 -86c-72.667 12.667 -150 85.667 -232 219c4.66699 9.33301 11.5 16.333 20.5 21s16.833 7 23.5 7
c4.66699 0 8 -0.333008 10 -1z" />
    <glyph glyph-name="a" unicode="a" horiz-adv-x="822" 
d="M800 123l-26.9971 -27.9922c-6 -32 -23.167 -58.167 -51.5 -78.5s-59.5 -30.5 -93.5 -30.5c-21.333 0 -41.666 5.66699 -60.999 17s-37.333 24.666 -54 39.999c-17.333 15.333 -29 23 -35 23c-8 0 -28 -8.33301 -60 -25c-85.333 -45.333 -139 -72 -161 -80
c-36 -12.667 -71.667 -19 -107 -19h-17.5c-5.66699 0 -15.167 1.33301 -28.5 4c-30 5.33301 -51.5 16.833 -64.5 34.5s-19.5 38.5 -19.5 62.5c0 28.667 10 69 30 121c23.333 61.333 60 124.666 110 189.999c51.333 67.333 105.333 117.666 162 150.999
c10.667 6 20.667 11.333 30 16l26 13c21.333 8.66699 39.666 13 54.999 13c17.333 0 30.5 -5 39.5 -15s13.5 -28.333 13.5 -55c0 -33.333 -0.666992 -62.333 -2 -87s-3.33301 -44.667 -6 -60c-10 -57.333 -30 -99 -60 -125c-11.333 24 -17 51.667 -17 83
c0 5.33301 0.5 13.666 1.5 24.999l3 35.5l3 35.5c1 11.333 1.5 20 1.5 26c0 22 -2 40 -6 54c-70 -16 -141.667 -65.333 -215 -148c-75.333 -84.667 -113 -162.667 -113 -234c0 -64 28 -96 84 -96c47.333 0 120 27.333 218 82c24.667 13.333 61 54.666 109 123.999
c38 56 78.333 84 121 84c4.66699 0 9.16699 -0.333008 13.5 -1s9.16602 -1.66699 14.499 -3c0 -8 -3.33301 -19.333 -10 -34s-14 -29.834 -22 -45.501s-15.333 -30.667 -22 -45s-10 -24.833 -10 -31.5c0 -8 2.5 -16.333 7.5 -25s11.167 -16.834 18.5 -24.501
s15.666 -13.834 24.999 -18.501s18 -7 26 -7c10 0 24.333 4.66699 43 14s36.667 19.333 54 30s31.666 20.167 42.999 28.5s15 11.5 11 9.5z" />
    <glyph glyph-name="b" unicode="b" horiz-adv-x="488" 
d="M130 300l13.998 13.998v14l31.5 87c9 24.667 16.5 44.334 22.5 59.001c30 70.667 64.667 106 104 106c20 0 40 -7 60 -21c70.667 -48 106 -123 106 -225c0 -76 -17 -151.333 -51 -226c-42 -92 -91 -138 -147 -138c-26.667 0 -48.667 8.33301 -66 25
s-34 42.334 -50 77.001c-15.333 33.333 -32.666 54.666 -51.999 63.999h-13l-13 -13l-14 13v14c-21.333 21.333 -33.666 50.5 -36.999 87.5s-5 77.167 -5 120.5v24c0 19.333 0.833008 48.666 2.5 87.999l5 123.5l5 123.5c1.66699 39.333 2.5 68.666 2.5 87.999
c0 9.33301 -0.166992 19.333 -0.5 30s-0.833008 21.667 -1.5 33l-3 50c-2 33.333 2.83301 60.333 14.5 81s26.5 33.667 44.5 39c11.333 -47.333 17 -102.666 17 -165.999c0 -15.333 -0.833008 -38.166 -2.5 -68.499s-3.66699 -62 -6 -95s-4.33301 -64.667 -6 -95
s-2.5 -52.833 -2.5 -67.5v-192c0 -29.333 1.33301 -45 4 -47c12 -1.33301 24.333 -3.66602 37 -6.99902zM252.998 25.998l15.001 -0.000976562c10 0 21.333 6 34 18s25 26.333 37 43s22.5 33.334 31.5 50.001s15.167 30 18.5 40c11.333 36 17 73.667 17 113
c0 68 -16.667 125.667 -50 173c-16.667 23.333 -34.334 35 -53.001 35c-8.66699 0 -17 -3.16699 -25 -9.5s-15.333 -14.333 -22 -24s-12.667 -20.334 -18 -32.001s-10 -23.167 -14 -34.5c-0.666992 -2.66699 -3.33398 -10.334 -8.00098 -23.001s-9.66699 -28.167 -15 -46.5
s-10.166 -38.166 -14.499 -59.499s-6.5 -41.666 -6.5 -60.999c0 -29.333 7.33301 -57.5 22 -84.5z" />
    <glyph glyph-name="c" unicode="c" horiz-adv-x="830" 
d="M810 150l-27.001 -27.0039c-7.33301 -7.33301 -18.5 -15 -33.5 -23s-31.833 -15.833 -50.5 -23.5s-37.5 -14.667 -56.5 -21s-35.833 -11.166 -50.5 -14.499l-184 -42c-32.667 -7.33301 -63.334 -12.666 -92.001 -15.999s-55.667 -5 -81 -5
c-15.333 0 -30.833 0.666992 -46.5 2s-31.167 3.33301 -46.5 6c-81.333 16 -122 56 -122 120c0 43.333 20 94 60 152c34.667 50.667 73.334 92 116.001 124c5.33301 4 16.333 13.333 33 28l65 60c18.667 17.333 37 32.333 55 45s35.333 23 52 31
c8.66699 4 18.334 10.833 29.001 20.5l33.5 29.5c11.667 10 23.667 19.333 36 28s24.833 14.334 37.5 17.001c0 -55.333 -5 -113 -15 -173c-6 -33.333 -13.167 -63.666 -21.5 -90.999s-17.833 -52 -28.5 -74c-18.667 -39.333 -45.334 -59 -80.001 -59h-7.5
c-3 0 -6.5 0.666992 -10.5 2l44 200c1.33301 4 1.33301 9 0 15s-2.66602 11.333 -3.99902 16c-94.667 -52.667 -181 -125.334 -259 -218.001c-42 -50 -63 -94.333 -63 -133c0 -17.333 4.5 -32.5 13.5 -45.5s21.167 -23.667 36.5 -32s33 -14.5 53 -18.5s41 -6 63 -6
c38 0 82.667 6.66699 134 20l62 16.5l83 21.5c20.667 4.66699 65 27.334 133 68.001c30.667 17.333 55 26 73 26c22 0 44.333 -8.66699 67 -26z" />
    <glyph glyph-name="d" unicode="d" horiz-adv-x="655" 
d="M20 0l0.000976562 25.999c0 19.333 9.33301 41.666 28 66.999s41 53.333 67 84c3.33301 3.33301 8.83301 8.5 16.5 15.5s15.334 14.833 23.001 23.5s14.5 17.834 20.5 27.501s9 19.167 9 28.5c0 2.66699 -2.16699 10.5 -6.5 23.5l-15 44
c-5.66699 16.333 -10.667 32.666 -15 48.999s-6.5 29.5 -6.5 39.5c0 22.667 4.16699 45.834 12.5 69.501s19.166 45.834 32.499 66.501c13.333 20 27.666 36 42.999 48s32 21.667 50 29c12.667 4.66699 23.667 8.5 33 11.5s18.166 5.16699 26.499 6.5
s16.833 2.16602 25.5 2.49902s19.334 0.5 32.001 0.5c56.667 0 95 -20.667 115 -62c16 -32 24 -66 24 -102c0 -94 -58 -205.333 -174 -334c52.667 -42.667 100 -64 142 -64c46 0 90 25.667 132 77c0 -36.667 -20 -66.667 -60 -90c-35.333 -20.667 -77.333 -31 -126 -31
c-27.333 0 -52 4 -74 12c-1.33301 0.666992 -6.33301 2.83398 -15 6.50098s-19.167 7.66699 -31.5 12s-21.5 6.5 -27.5 6.5c-12 0 -61 -25 -147 -75c-27.333 -16.667 -54 -25 -80 -25c-17.333 0 -35.333 2.33301 -54 7zM320.001 189.999l27.001 27.998
c24.667 26 48 53 70 81s39.333 62.333 52 103c6 18.667 10.667 36.334 14 53.001s5 33.667 5 51c0 30 -7 55.5 -21 76.5s-35.667 31.5 -65 31.5c-26.667 0 -52.334 -6.5 -77.001 -19.5s-46.5 -29.833 -65.5 -50.5s-34.167 -44 -45.5 -70s-17 -52 -17 -78
c0 -36 12 -62.333 36 -79c10.667 -7.33301 20.167 -11.666 28.5 -12.999s15.5 -3.5 21.5 -6.5s10.5 -8.5 13.5 -16.5s4.5 -22.333 4.5 -43c0 -1.33301 6.33301 -17.333 19 -48zM47.002 25.9971l13.999 -11.999h26c12 0 27 3.33301 45 10s35.5 15.5 52.5 26.5
s31.667 23.833 44 38.5s18.5 30.334 18.5 47.001c0 14.667 -5.5 27 -16.5 37s-22.5 15 -34.5 15c-12.667 0 -26.667 -5.66699 -42 -17s-30 -25.333 -44 -42s-26.667 -34.334 -38 -53.001s-19.666 -35.334 -24.999 -50.001z" />
    <glyph glyph-name="e" unicode="e" horiz-adv-x="835" 
d="M735 65v-13l-11 -15l-20 -10c-10 -4.66699 -23.5 -8.16699 -40.5 -10.5s-31.5 -4.16602 -43.5 -5.49902l-211 -27c-3.33301 -0.666992 -6.66602 -1 -9.99902 -1h-11c-8 0 -16 0.166992 -24 0.5s-14.333 0.5 -19 0.5c-10 0 -22.833 0.833008 -38.5 2.5
s-31.834 3.5 -48.501 5.5l-47 5.5c-14.667 1.66699 -26.334 2.5 -35.001 2.5c-17.333 0 -35 3.5 -53 10.5s-36 15.833 -54 26.5c-19.333 10.667 -32.333 19.834 -39 27.501s-10 17.5 -10 29.5c0 28 27.333 67.333 82 118c38.667 36 78.5 69.167 119.5 99.5
s83.167 57.166 126.5 80.499c52 28.667 102 50.334 150 65.001s93.667 22 137 22c78 0 131.333 -17 160 -51c13.333 -16 20 -35.667 20 -59c0 -17.333 -4.5 -36.166 -13.5 -56.499s-20.5 -39.666 -34.5 -57.999s-29.5 -35 -46.5 -50s-33.5 -25.833 -49.5 -32.5l-58 -24
c-16.667 -6.66699 -31 -12 -43 -16c-48 -16.667 -89.333 -25 -124 -25c-18 0 -42 3 -72 9s-59.5 14.333 -88.5 25s-54.5 23.5 -76.5 38.5s-33.667 31.167 -35 48.5c10 -6 27 -12.333 51 -19s48.833 -12.834 74.5 -18.501l69.5 -15c20.667 -4.33301 32.667 -7.5 36 -9.5
l44 -14.5c13.333 -4.33301 26.333 -6.5 39 -6.5c25.333 0 49.166 3.66699 71.499 11s45.5 16 69.5 26c26 11.333 48 25.166 66 41.499s34.333 35.5 49 57.5c8 12.667 16.333 24.667 25 36s13 23.333 13 36c0 28 -12 51.167 -36 69.5s-50.667 27.5 -80 27.5
c-22 0 -41.167 -2.5 -57.5 -7.5s-38.5 -10.833 -66.5 -17.5c-46.667 -11.333 -88.5 -24.333 -125.5 -39s-71.167 -29.667 -102.5 -45c-76 -38.667 -145 -91 -207 -157c-7.33301 -8 -17.333 -18.333 -30 -31s-19 -25.334 -19 -38.001c0 -17.333 4.33301 -31 13 -41
s20.5 -17.5 35.5 -22.5s32.5 -8.5 52.5 -10.5l63 -6l57 -5.5c24.667 -2.33301 55.334 -3.5 92.001 -3.5h44c57.333 0 112.833 3.66699 166.5 11s104.834 16.666 153.501 27.999z" />
    <glyph glyph-name="f" unicode="f" horiz-adv-x="881" 
d="M538 750c4 0 11.665 3.50195 22.998 10.502l35.5 23l33.5 23.5c10 7.33301 15.667 11.333 17 12c18 6 36.333 9 55 9c35.333 0 66.5 -9.33301 93.5 -28s46.167 -44.334 57.5 -77.001c5.33301 -17.333 8 -33.666 8 -48.999c0 -44 -23.333 -76 -70 -96
c-32.667 -15.333 -75 -23 -127 -23c-48.667 0 -90.667 6.33301 -126 19c-9.33301 2.66699 -19.833 7.5 -31.5 14.5s-20.834 10.5 -27.501 10.5c-11.333 0 -23.833 -7 -37.5 -21s-26.667 -31.333 -39 -52s-23.5 -42.834 -33.5 -66.501s-17.333 -44.834 -22 -63.501
c7.33301 -2 26.5 -4.33301 57.5 -7l101 -9c36.333 -3.33301 70.833 -7.16602 103.5 -11.499s54.667 -9.16602 66 -14.499h-116c-48.667 0 -90 -3.16699 -124 -9.5s-60.333 -16.5 -79 -30.5c-14.667 -11.333 -26.5 -26 -35.5 -44s-13.5 -39.667 -13.5 -65
c0 -35.333 -5 -69.5 -15 -102.5s-23 -64.5 -39 -94.5c-36 -70 -86.333 -108.667 -151 -116c34 23.333 59 44.666 75 63.999c23.333 28 40 64.667 50 110c10 44 15 98.667 15 164v33c-0.666992 6.66699 -1.16699 14.167 -1.5 22.5s-1.16602 17.833 -2.49902 28.5
c-15.333 -4 -35.166 -8 -59.499 -12s-44.166 -6 -59.499 -6c-38.667 0 -71.667 10.667 -99 32c30 2.66699 56.833 5.66699 80.5 9s43.834 6.66602 60.501 9.99902c61.333 11.333 100.666 32.333 117.999 63c4.66699 8.66699 18.5 32.167 41.5 70.5l94.5 160.5
c3.33301 6 7.33301 15.167 12 27.5s9.5 25.833 14.5 40.5l15 44.5c5 15 9.83301 27.833 14.5 38.5l21 -17c6.66699 -5.33301 13.667 -10 21 -14c10.667 -7.33301 19 -11 25 -11zM810.998 682.002c0 61.333 -23.332 91.999 -69.999 91.999c-16 0 -34.5 -4.33301 -55.5 -13
s-42 -19.667 -63 -33s-40.333 -27.666 -58 -42.999s-30.834 -30 -39.501 -44c56.667 -35.333 116.667 -53 180 -53c70.667 0 106 31.333 106 94z" />
    <glyph glyph-name="g" unicode="g" horiz-adv-x="844" 
d="M115 -300l27 -27.998c10 -33.333 46.333 -72 109 -116c60.667 -42.667 111 -67.334 151 -74.001c24 -4 45.333 -6 64 -6c75.333 0 138.666 19.667 189.999 59c58 44 87 103.667 87 179c0 48.667 -16.333 96.667 -49 144l-19.5 32c-11 18 -24 37.667 -39 59
s-30.667 41.666 -47 60.999s-30.833 31.666 -43.5 36.999c-20.667 8.66699 -45 13 -73 13h-53h-44c-23.333 0 -44 1.5 -62 4.5s-34.333 8.83301 -49 17.5c-43.333 24.667 -65 52.667 -65 84c0 42.667 35.667 87.667 107 135c68.667 47.333 154 83 256 107
c36 8 68.667 12 98 12c27.333 0 50.666 -3.33301 69.999 -10c14 -4.66699 24.5 -10.834 31.5 -18.501s11.833 -16.5 14.5 -26.5s4.33398 -20.667 5.00098 -32s1.66699 -22.333 3 -33c1.33301 -3.33301 4 -7.66602 8 -12.999s8.5 -11 13.5 -17s9.33301 -12.333 13 -19
s5.5 -13 5.5 -19c0 -18 -9.33301 -33.833 -28 -47.5s-39.334 -26.667 -62.001 -39s-43.334 -24.666 -62.001 -36.999s-28 -25.833 -28 -40.5c0 -8.66699 5.83301 -25.667 17.5 -51s24.667 -52 39 -80l40.5 -78c12.667 -24 20.334 -39 23.001 -45
c9.33301 -20.667 16.5 -39.667 21.5 -57s7.5 -35.333 7.5 -54c0 -44 -16.667 -90.333 -50 -139c-52.667 -76 -132 -114 -238 -114c-92 0 -185.333 28 -280 84c-98.667 58.667 -167 127.667 -205 207c26.667 5.33301 55.334 8 86.001 8c84.667 0 151.334 -11.667 200.001 -35
c-10 1.33301 -20 2 -30 2h-29c-41.333 0 -85.333 -5.33301 -132 -16zM730 328.002l-15.001 12.999c-4 8.66699 -12.5 14 -25.5 16s-26.167 3 -39.5 3c-56 0 -107 -6.33301 -153 -19c-20.667 -5.33301 -42.167 -13.833 -64.5 -25.5s-46.166 -26.167 -71.499 -43.5
c-59.333 -39.333 -89 -76.333 -89 -111c0 -15.333 5.66699 -28.333 17 -39s25 -19.5 41 -26.5s33 -12 51 -15s33.667 -4.5 47 -4.5c73.333 0 110 33.667 110 101c0 58.667 18 97.334 54 116.001c7.33301 3.33301 53.333 15 138 35zM755.999 218.001l-12.999 13.999
c-10.667 16.667 -30.334 25 -59.001 25c-20 0 -39.667 -5.16699 -59 -15.5s-29 -26.166 -29 -47.499c0 -11.333 8 -35 24 -71c60 25.333 105.333 57 136 95z" />
    <glyph glyph-name="h" unicode="h" horiz-adv-x="494" 
d="M24 26l0.00195312 69.001c0 19.333 0.666992 40.666 2 63.999s3.33301 49.666 6 78.999c12 120 18 196 18 228c0 53.333 -4 97.333 -12 132l-16 70c-3.33301 14.667 -1.16602 27.334 6.50098 38.001s13.167 16 16.5 16c10 0 19.167 -6.33301 27.5 -19
s15.166 -27.5 20.499 -44.5s9.5 -34.167 12.5 -51.5s4.5 -30.333 4.5 -39v-42c0 -12.667 -0.833008 -31.834 -2.5 -57.501l-5.5 -81l-5.5 -80.5c-1.66699 -25.333 -2.5 -44.333 -2.5 -57c0 -42 4 -80 12 -114c5.33301 6.66699 13.166 18.167 23.499 34.5l40.5 63.5
c46 74.667 92.667 114.667 140 120c18 -106.667 50 -193 96 -259l45.5 -43.5c9.66699 -9.66699 17.167 -22.167 22.5 -37.5h-6c-35.333 0 -65.333 9.66699 -90 29s-46 48 -64 86c-4.66699 8.66699 -11.834 23.834 -21.501 45.501l-36.5 84.5l-90 -151
c-40.667 -54.667 -88 -82 -142 -82z" />
    <glyph glyph-name="i" unicode="i" horiz-adv-x="330" 
d="M37 641c-11.333 20.667 -17 37.333 -17 50c0 14 9.66699 21 29 21c12 0 26 -2 42 -6l41 -10c68.667 -18 128 -54.333 178 -109c-34.667 -23.333 -72.667 -35 -114 -35c-74 0 -127 29.667 -159 89zM50 659.999c0 -14 6.33301 -25.833 19 -35.5s28.5 -17.5 47.5 -23.5
s39.167 -10.333 60.5 -13s41 -4 59 -4h19c3.33301 0 6 0.5 8 1.5s3.66699 1.5 5 1.5c-4 10 -13.667 20.333 -29 31s-32.5 20.667 -51.5 30s-38 17 -57 23s-34.167 9 -45.5 9c-23.333 0 -35 -6.66699 -35 -20zM104 204.999c0 0.666992 -7.66797 27.667 -23.001 81
c-6 21.333 -9 36.333 -9 45c0 26.667 15.667 43.667 47 51l30.5 -113l23.5 -83c20.667 -72 43.667 -138.667 69 -200c-43.333 10 -76 38 -98 84c-13.333 28 -26.666 73 -39.999 135z" />
    <glyph glyph-name="j" unicode="j" horiz-adv-x="675" 
d="M457 532c-18 -48 -46.001 -72 -84.001 -72c-18 0 -35.667 4.66699 -53 14s-32.833 21.5 -46.5 36.5s-24.667 31.667 -33 50s-12.5 36.166 -12.5 53.499c0 24 8.83301 43.667 26.5 59s39.167 23 64.5 23c17.333 0 34.5 -3.66699 51.5 -11s32.333 -17.166 46 -29.499
s24.834 -26.5 33.501 -42.5s13 -32.667 13 -50c0 -10 -2 -20.333 -6 -31zM332.999 628l-13 -14v-27c0 -3.33301 -0.333008 -6.33301 -1 -9s-1 -4.66699 -1 -6c0 -11.333 3.5 -23 10.5 -35s13.5 -22.667 19.5 -32c34.667 24.667 52 49 52 73c0 25.333 -22.333 42 -67 50z
M108.999 -177c4.66699 -11.333 10.666 -21.666 17.999 -30.999l30 -38c30 -39.333 75.333 -78 136 -116c71.333 -44.667 132.666 -67 183.999 -67c58.667 0 97.334 29.333 116.001 88c7.33301 24 11 47 11 69c0 58.667 -27.333 142.667 -82 252l-37.5 77.5
c-11 23.667 -20.167 45.5 -27.5 65.5c-4 11.333 -9.5 25.333 -16.5 42s-13.833 34.167 -20.5 52.5s-12.334 36 -17.001 53s-7 31.5 -7 43.5c0 16.667 3.66699 31 11 43s19.333 20.333 36 25l37 -129c10.667 -38 22.334 -74.667 35.001 -110l38 -102l26.5 -63.5
c10.333 -25 22.5 -56.167 36.5 -93.5c12.667 -33.333 22.334 -64.333 29.001 -93s10 -54.334 10 -77.001c0 -90 -48 -144.667 -144 -164c-19.333 -4 -37.333 -6 -54 -6c-98 0 -191.667 41.333 -281 124c-86.667 81.333 -138.667 169.333 -156 264c20 5.33301 37.667 8 53 8
c26.667 0 54.667 -11.667 84 -35c-15.333 2 -30 3 -44 3c-10 0 -22.667 -1 -38 -3v-3c0 -7.33301 3.83301 -18.5 11.5 -33.5z" />
    <glyph glyph-name="k" unicode="k" horiz-adv-x="682" 
d="M34 -14l0.00390625 27.999c-9.33301 20.667 -14 46 -14 76c0 4 1.33301 18 4 42s6.66699 58 12 102c3.33301 31.333 6 69.5 8 114.5s3 97.167 3 156.5c0 6.66699 -0.166992 14.5 -0.5 23.5s-0.5 19.5 -0.5 31.5s-0.333008 22.5 -1 31.5s-1 16.5 -1 22.5c0 44 4 80 12 108
c12 36.667 32 60 60 70c1.33301 -7.33301 3 -22.666 5 -45.999s4.5 -48.833 7.5 -76.5s6.5 -54.167 10.5 -79.5s9 -44 15 -56c20.667 -38 58 -66 112 -84c31.333 -9.33301 64.666 -14 99.999 -14c68 0 125.667 14.333 173 43c54 32.667 81 77.667 81 135
c17.333 -19.333 31.333 -32.666 42 -39.999c-46.667 -72.667 -120.667 -125 -222 -157c-14.667 -4.66699 -33.334 -10 -56.001 -16s-48.667 -12.333 -78 -19c10.667 -14.667 21.834 -27 33.501 -37s24 -19.333 37 -28s27.167 -17.5 42.5 -26.5l51 -31.5l50 -48
c13.333 -12.667 23.333 -22.667 30 -30c60 -63.333 90 -125 90 -185c0 -15.333 -2 -32 -6 -50c-3.33301 6.66699 -8.33301 17.834 -15 33.501s-14 32 -22 49s-16 33.167 -24 48.5s-15 25.666 -21 30.999c-124 117.333 -265 208.666 -423 273.999
c-2.66699 -9.33301 -4.83398 -28 -6.50098 -56s-3.33398 -58.167 -5.00098 -90.5s-3.33398 -62.833 -5.00098 -91.5s-3.5 -48 -5.5 -58c-12 -52.667 -36.333 -86 -73 -100z" />
    <glyph glyph-name="l" unicode="l" horiz-adv-x="460" 
d="M47 0l-0.00292969 26.0029c0 7.33301 5.66699 18.5 17 33.5s23.833 30.5 37.5 46.5s26.167 31.5 37.5 46.5s17 26.167 17 33.5c0 14 -7 30 -21 48l-61 80c-5.33301 6.66699 -11 17 -17 31s-11.833 29.167 -17.5 45.5s-10.334 32.333 -14.001 48s-5.5 28.5 -5.5 38.5
c0 67.333 17 129.666 51 186.999c40 68.667 92.333 103 157 103c32.667 0 59.834 -6.5 81.501 -19.5s37.834 -34.167 48.501 -63.5c11.333 -30.667 17 -72.334 17 -125.001c0 -88.667 -18.333 -170.334 -55 -245.001c-2 -3.33301 -7 -10.333 -15 -21
s-16.5 -22.834 -25.5 -36.501s-17.167 -27.167 -24.5 -40.5s-11 -24 -11 -32c0 -10.667 3.33301 -22.667 10 -36s15 -26.833 25 -40.5s21 -26.334 33 -38.001s23.667 -21.167 35 -28.5c4.66699 -3.33301 13 -8 25 -14l45 -23c2 -1.33301 5 -3.16602 9 -5.49902
s7.33301 -4.5 10 -6.5s3.66699 -3.83301 3 -5.5s-4.66699 -2.5 -12 -2.5c-23.333 0 -48 9 -74 27l-102 71c-2 1.33301 -5.33301 3.83301 -10 7.5s-9.66699 7.83398 -15 12.501s-10.833 8.66699 -16.5 12s-10.167 5 -13.5 5c-9.33301 0 -18.333 -3.83301 -27 -11.5
s-17 -17 -25 -28s-15.5 -22.5 -22.5 -34.5s-13.5 -22.333 -19.5 -31c-7.33301 -5.33301 -12.666 -9 -15.999 -11s-6.16602 -3.33301 -8.49902 -4s-4.83301 -0.666992 -7.5 0s-7 1 -13 1h-10zM196.997 218.003l28 27.999c6 3.33301 13.167 10.666 21.5 21.999
s16.5 24 24.5 38s15.167 27.833 21.5 41.5s11.166 25.167 14.499 34.5c15.333 50 23 105.667 23 167c0 110.667 -32.667 166 -98 166c-53.333 0 -91.666 -26 -114.999 -78c-3.33301 -6 -6.83301 -14.833 -10.5 -26.5s-7.33398 -24.5 -11.001 -38.5s-6.66699 -28.667 -9 -44
s-3.5 -30 -3.5 -44c0 -44 12 -90 36 -138c8.66699 -17.333 19.334 -36.666 32.001 -57.999s28 -44.666 46 -69.999z" />
    <glyph glyph-name="m" unicode="m" horiz-adv-x="765" 
d="M526 300c6 6 15.0049 15.4941 27.0049 28.4941s25.333 26.167 40 39.5s29.167 25 43.5 35s26.5 15 36.5 15c18 0 29.5 -10 34.5 -30s7.5 -45.333 7.5 -76c0 -6 0.166992 -11.833 0.5 -17.5s0.5 -11.834 0.5 -18.501c-0.666992 -15.333 -1 -28.5 -1 -39.5v-26.5
c0 -29.333 2.33301 -58.166 7 -86.499s12.334 -55.833 23.001 -82.5c-52.667 8 -83 43.667 -91 107l-7.5 69c-3 27.333 -6.83301 59.666 -11.5 96.999c-24 -21.333 -47.667 -50 -71 -86c-18 -30 -35 -65 -51 -105c-7.33301 -17.333 -14.333 -33 -21 -47
s-13.334 -25.667 -20.001 -35c-9.33301 -13.333 -16.5 -22.166 -21.5 -26.499s-10.5 -6.5 -16.5 -6.5c-2.66699 0 -9.33398 1 -20.001 3s-18.667 3 -24 3c35.333 102.667 53 175.334 53 218.001c0 25.333 -3 48.5 -9 69.5s-16.333 43.167 -31 66.5
c-20.667 -17.333 -43.834 -41.666 -69.501 -72.999s-53.167 -70.666 -82.5 -117.999c-20.667 -34 -37.834 -61.333 -51.501 -82s-23.167 -34.667 -28.5 -42c-14 -18 -24 -29.667 -30 -35c-14.667 -14.667 -29.667 -22 -45 -22c-17.333 0 -29.833 4.83301 -37.5 14.5
s-11.5 22.5 -11.5 38.5c0 4.66699 0.333008 12.334 1 23.001s1 18.334 1 23.001c0 6 -1.5 16 -4.5 30s-6.33301 28.667 -10 44l-10 43.5c-3 13.667 -4.5 23.5 -4.5 29.5c0 30.667 18.333 50 55 58c4 -13.333 18 -72.333 42 -177c34 20.667 67.667 54 101 100l35 49l50 69
c32.667 42.667 70.667 74.334 114 95.001c12.667 -5.33301 23.167 -11 31.5 -17s16.166 -13.833 23.499 -23.5s15.166 -22 23.499 -37s18.5 -34.5 30.5 -58.5z" />
    <glyph glyph-name="n" unicode="n" horiz-adv-x="580" 
d="M109 177l41.001 28.002c112.667 112.667 190.334 169 233.001 169c15.333 0 28 -4.66699 38 -14s18 -21.333 24 -36s10.167 -31.167 12.5 -49.5s3.5 -36.833 3.5 -55.5v-82c0 -14 1 -26.833 3 -38.5s6.5 -22.834 13.5 -33.501s17 -21.167 30 -31.5s30.5 -21.5 52.5 -33.5
c-81.333 0 -128.333 25.333 -141 76l-23 170c-12 37.333 -30.333 56 -55 56c-12.667 0 -26.334 -5.33301 -41.001 -16s-29 -23.667 -43 -39s-27 -31.833 -39 -49.5s-21 -33.5 -27 -47.5l-11.5 -25.5l-15.5 -33.5l-15 -31c-4.66699 -9.33301 -8.66699 -15.666 -12 -18.999
c-7.33301 -7.33301 -16.833 -13.333 -28.5 -18s-29.5 -12.334 -53.5 -23.001c0 15.333 -0.833008 32.166 -2.5 50.499s-4.16699 37.5 -7.5 57.5c-8 48.667 -14.167 87.834 -18.5 117.501s-6.5 49.834 -6.5 60.501c0 12 0.666992 23.667 2 35s3 22.333 5 33
c12 -10.667 21.667 -20.834 29 -30.501s13.666 -20.834 18.999 -33.501s10.5 -28 15.5 -46z" />
    <glyph glyph-name="o" unicode="o" horiz-adv-x="720" 
d="M72 341l-12.9971 0.000976562l-14 13c-5.33301 5.33301 -9.83301 13 -13.5 23s-5.5 27.333 -5.5 52c0 15.333 1.66699 27 5 35c6 11.333 15.833 21.166 29.5 29.499s29.667 15.666 48 21.999s38.5 11.833 60.5 16.5l67 14c45.333 9.33301 92 16.333 140 21s97 7 147 7
c54 0 96.667 -14.667 128 -44c32.667 -30 49 -72 49 -126c0 -83.333 -31.667 -154.666 -95 -213.999c-60.667 -56.667 -126.334 -103.334 -197.001 -140.001c-41.333 -21.333 -80 -37.333 -116 -48s-72.667 -16 -110 -16c-5.33301 0 -13.333 -0.333008 -24 -1
s-18.334 -1 -23.001 -1c-31.333 0 -58.333 7.66699 -81 23s-34 39.333 -34 72c0 26 6.5 51.667 19.5 77l45.5 90c6 12 13.167 28.5 21.5 49.5s18.666 42 30.999 63s26.5 39.167 42.5 54.5s34.667 23 56 23c-6 -37.333 -20.333 -76 -43 -116
c-58 -105.333 -89 -166.666 -93 -183.999c-0.666992 -1.33301 -2 -4.83301 -4 -10.5s-4.16699 -12.167 -6.5 -19.5s-4.33301 -14.5 -6 -21.5s-2.5 -12.5 -2.5 -16.5c0 -16.667 6.33301 -30.167 19 -40.5s28.667 -15.5 48 -15.5c14 0 27.5 1.5 40.5 4.5
s28.833 6.16699 47.5 9.5c101.333 19.333 193 58 275 116c98.667 70.667 148 150.667 148 240c0 62.667 -23.333 105.667 -70 129c-32.667 15.333 -83 23 -151 23h-34c-49.333 0 -92.5 -2.83301 -129.5 -8.5s-68.5 -12.5 -94.5 -20.5c-74.667 -22.667 -112 -64 -112 -124
v-15c0 -6 1.33301 -14.333 4 -25z" />
    <glyph glyph-name="p" unicode="p" horiz-adv-x="695" 
d="M375 -314l-27.9961 0.00390625c0 -0.666992 -2.16699 -1.16699 -6.5 -1.5s-7.83301 -0.5 -10.5 -0.5c-34.667 0 -79.334 39.333 -134.001 118c-22.667 33.333 -41.834 63.666 -57.501 90.999s-27.834 52.666 -36.501 75.999l-22.5 57l-30.5 80
c-10 26.667 -17.333 52.5 -22 77.5s-7 48.167 -7 69.5c0 84 41 140.667 123 170c52 18 108 27 168 27c114 0 208 -26 282 -78c54.667 -38 82 -80 82 -126c0 -78 -32.667 -138.667 -98 -182c-57.333 -37.333 -126.666 -56 -207.999 -56c-44 0 -83.333 6 -118 18
c4 13.333 8 25.333 12 36l16 33c26 -41.333 65 -62 117 -62c49.333 0 97.666 17.667 144.999 53c49.333 38 74 81.333 74 130c0 50.667 -30 92.667 -90 126c-72.667 40 -149.334 60 -230.001 60c-34 0 -64.5 -4 -91.5 -12s-51.833 -20 -74.5 -36
c-38 -26.667 -57 -63.334 -57 -110.001c0 -13.333 1 -29 3 -47s6.66699 -35.333 14 -52s18 -30.834 32 -42.501s32.667 -17.5 56 -17.5c4.66699 0 10.5 -4.83301 17.5 -14.5s14.333 -22 22 -37s15.667 -31.5 24 -49.5l24.5 -52c12.667 -26.667 28 -60.667 46 -102z" />
    <glyph glyph-name="q" unicode="q" horiz-adv-x="712" 
d="M110 238c-2 -8 -3.00195 -17.001 -3.00195 -27.001c0 -36.667 19.667 -65.667 59 -87c33.333 -19.333 72 -29 116 -29h20h23c22.667 0 40.334 9.33301 53.001 28v13l-14 14l14 14h14l26 26c6 6 9.83301 15.833 11.5 29.5s2.5 26.834 2.5 39.501
c0 36.667 -8.5 61.667 -25.5 75s-43.167 20 -78.5 20h-32c-13.333 0 -29.666 -1.83301 -48.999 -5.5s-37 -9.5 -53 -17.5c-45.333 -22 -73.333 -53 -84 -93zM486.998 122.999l13 -14.998l14 -13h19.5c7.66699 0 17.167 0.333008 28.5 1
c18.667 1.33301 36.334 5.66602 53.001 12.999s25 19.666 25 36.999c0 6 -2.83301 12.167 -8.5 18.5s-12.167 12.333 -19.5 18s-15.166 10.5 -23.499 14.5s-14.833 6.66699 -19.5 8c-20.667 0 -36.334 -7.16699 -47.001 -21.5s-22.334 -34.5 -35.001 -60.5zM309.998 26.001
l-14.002 15c-8 8.66699 -20 13 -36 13h-19c-32.667 0 -61.834 4 -87.501 12s-47.667 18.5 -66 31.5s-33 27.667 -44 44s-17.833 32.5 -20.5 48.5c-2 12 -3 24 -3 36c0 62.667 38.667 113 116 151c62 30.667 128.667 46 200 46c22 0 42 -2.66699 60 -8s35.333 -13 52 -23
c35.333 -22 57.333 -52.667 66 -92c3.33301 -14.667 8.33301 -25.834 15 -33.501s14.334 -13.334 23.001 -17.001s18 -6.5 28 -8.5s20 -5 30 -9c18.667 -8 33 -16.5 43 -25.5s15 -20.833 15 -35.5c0 -16 -2.5 -31.167 -7.5 -45.5s-13.833 -26.666 -26.5 -36.999
s-29.834 -18.666 -51.501 -24.999s-49.167 -9.5 -82.5 -9.5c-29.333 0 -55.833 -10.667 -79.5 -32s-45.167 -48.666 -64.5 -81.999c-17.333 -30 -30.666 -59.833 -39.999 -89.5s-14 -59.834 -14 -90.501c0 -10.667 0.666992 -21 2 -31s3.33301 -19.667 6 -29
c14 -50 47 -88 99 -114c8.66699 -4.66699 26.334 -11.5 53.001 -20.5l85.5 -30c30.333 -11 59.333 -22.5 87 -34.5s46.834 -23 57.501 -33c-25.333 4 -56 9.66699 -92 17l-128 27c-60 13.333 -109.333 35 -148 65s-66.667 67 -84 111c-9.33301 24 -14 48.667 -14 74
c0 36 10 79.333 30 130c6.66699 18.667 14.667 39.167 24 61.5z" />
    <glyph glyph-name="r" unicode="r" horiz-adv-x="655" 
d="M538 518c0.666992 0 5.16504 -1.66309 13.498 -4.99609s17.833 -7.5 28.5 -12.5s21.334 -10.833 32.001 -17.5s18.334 -13 23.001 -19c-84 28.667 -165.333 43 -244 43c-60.667 0 -116 -10 -166 -30c-45.333 -18 -76 -54.333 -92 -109c-12 -38 -18 -88 -18 -150
c0 -1.33301 0.333008 -7.33301 1 -18s1.33398 -22.334 2.00098 -35.001l2 -38c0.666992 -12.667 1 -21.667 1 -27c0 -29.333 -3.83301 -55 -11.5 -77s-23.834 -38.333 -48.501 -49c-27.333 119.333 -41 237.333 -41 354c0 54 9.66699 87.667 29 101
c2 2 11.5 7.16699 28.5 15.5l56.5 27l58.5 27c18.333 8.33301 29.833 13.166 34.5 14.499c15.333 5.33301 33.166 10.833 53.499 16.5s42.5 11.167 66.5 16.5c2 -3.33301 10.833 -6.33301 26.5 -9s33.5 -5.33398 53.5 -8.00098s40.333 -4.83398 61 -6.50098
s37.334 -3.16699 50.001 -4.5z" />
    <glyph glyph-name="s" unicode="s" horiz-adv-x="873" 
d="M74 164l27.998 -27.998c3.33301 -7.33301 9.83301 -15.666 19.5 -24.999s20.667 -18.5 33 -27.5s24.833 -17.333 37.5 -25s23.667 -13.5 33 -17.5c22 -9.33301 47.667 -16.166 77 -20.499s62.333 -6.5 99 -6.5h31h29h10c40.667 0 86 9.33301 136 28
c16.667 6.66699 35.167 15 55.5 25s39.5 21.333 57.5 34s33 26.167 45 40.5s18 29.166 18 44.499c0 44.667 -38.333 74 -115 88c-12.667 2 -28.5 4.83301 -47.5 8.5l-67.5 13.5l-105.5 19.5l-144.5 25.5c-45.333 8 -85.666 17.667 -120.999 29
c-60.667 21.333 -91 44.666 -91 69.999c0 14 4.16699 25.5 12.5 34.5s19.333 16.333 33 22s29 10.334 46 14.001s34.167 7.83398 51.5 12.501c13.333 3.33301 29.5 6.83301 48.5 10.5l56 10.5c18.333 3.33301 35.166 6.16602 50.499 8.49902s25.333 4.16602 30 5.49902
c60 9.33301 110.667 14 152 14c132 0 198 -32.667 198 -98c0 -14 -4 -31 -12 -51c-29.333 27.333 -54.666 49.666 -75.999 66.999c-36 28 -70 42 -102 42c-116 0 -252.667 -27.333 -410 -82c46 -46 116.667 -76 212 -90l99.5 -13l139.5 -19
c30.667 -4.66699 58.334 -10.167 83.001 -16.5s46 -12.833 64 -19.5c57.333 -20 86 -46.667 86 -80c0 -10.667 -2.5 -21 -7.5 -31s-11.833 -20.333 -20.5 -31c-44.667 -56.667 -112.334 -101.334 -203.001 -134.001c-80 -28 -161 -42 -243 -42
c-84.667 0 -156.334 14.667 -215.001 44c-70.667 34 -118.667 87 -144 159c38.667 20 64.334 30 77.001 30s32.334 -5.66699 59.001 -17c-21.333 0 -36.833 -2.83301 -46.5 -8.5s-21.5 -11.5 -35.5 -17.5z" />
    <glyph glyph-name="t" unicode="t" horiz-adv-x="609" 
d="M267 682c4.66699 -19.333 8.16895 -35.835 10.502 -49.502s3.5 -24.5 3.5 -32.5c0 -6.66699 -0.166992 -12.667 -0.5 -18s-0.5 -10.666 -0.5 -15.999c0 -19.333 6.66699 -32.333 20 -39s30.666 -10 51.999 -10c9.33301 0 19.333 0.5 30 1.5s21.334 1.83301 32.001 2.5
l20 4.5c13.333 3 29.166 6.16699 47.499 9.5s36.833 6.5 55.5 9.5s33.334 4.5 44.001 4.5c5.33301 0 8 -0.666992 8 -2c0 -6 -8.5 -13 -25.5 -21s-37.5 -16 -61.5 -24s-48.833 -15.333 -74.5 -22s-47.167 -12 -64.5 -16c-6.66699 -1.33301 -15.834 -3 -27.501 -5
s-23.334 -5.16699 -35.001 -9.5s-22.167 -10.666 -31.5 -18.999s-14.666 -19.833 -15.999 -34.5l-40 -396h-55c0 36.667 3 80 9 130c6 57.333 10.667 103.666 14 138.999s5 59.333 5 72c0 54 -14.333 88.333 -43 103l-39 19.5c-14 7 -27.333 15.333 -40 25
s-23.167 21 -31.5 34s-12.5 28.167 -12.5 45.5c0 20.667 7 36.834 21 48.501s30.667 17.5 50 17.5c23.333 0 42.166 -8.83301 56.499 -26.5s31.5 -42.834 51.5 -75.501c7.33301 11.333 12 24.333 14 39s5.33301 31 10 49c4 14.667 10 27.334 18 38.001s16.667 18.667 26 24z
M63.002 586.998c-13.333 -12.667 -19.9971 -24.665 -19.9971 -35.998c0 -12.667 6.5 -22.834 19.5 -30.501s28.167 -13.167 45.5 -16.5s34.666 -4.83301 51.999 -4.5s30.333 2.16602 39 5.49902c-18.667 26 -36.334 48.333 -53.001 67s-34.334 28 -53.001 28
c-11.333 0 -21.333 -4.33301 -30 -13z" />
    <glyph glyph-name="u" unicode="u" horiz-adv-x="784" 
d="M630 560l-0.00195312 -15.0029c1.33301 -2.66699 1.66602 -6 0.999023 -10s-1 -7 -1 -9c0 -8.66699 -1.66699 -18.667 -5 -30s-7.33301 -22.833 -12 -34.5s-9.66699 -23.167 -15 -34.5s-10 -21.666 -14 -30.999l-38 -82c-12.667 -27.333 -19 -51.333 -19 -72
c0 -32 15 -62.667 45 -92c6.66699 -6.66699 19.5 -12.334 38.5 -17.001s39 -8.5 60 -11.5s40.5 -5.5 58.5 -7.5s29.667 -4 35 -6c-6.66699 0 -16.667 -0.666992 -30 -2s-27.333 -3 -42 -5s-28.5 -3.66699 -41.5 -5s-22.833 -2 -29.5 -2h-12.5
c-3.66699 0 -6.5 0.333008 -8.5 1c-15.333 0 -27.166 1 -35.499 3s-17.166 6.16699 -26.499 12.5s-20.5 15.833 -33.5 28.5s-31.5 29.667 -55.5 51c-27.333 -24.667 -57 -48.167 -89 -70.5s-66 -44.166 -102 -65.499c-9.33301 -6 -20.5 -12.833 -33.5 -20.5l-44.5 -25.5
c-37.333 -20 -67 -30 -89 -30c-21.333 0 -38.5 8.16699 -51.5 24.5s-19.5 36.833 -19.5 61.5c0 14.667 2.33301 29 7 43s10.667 28.833 18 44.5l24 49.5c8.66699 17.333 17.334 36.666 26.001 57.999l34.5 83.5c10.333 25 21.166 47.5 32.499 67.5
c6.66699 10.667 12.834 23 18.501 37s11.5 27 17.5 39s12.167 22.167 18.5 30.5s13.166 12.5 20.499 12.5c6.66699 0 13 -3 19 -9s9 -13 9 -21c0 -10 -3.83301 -23 -11.5 -39s-17.667 -35.5 -30 -58.5l-43.5 -81.5c-16.667 -31.333 -34 -68 -52 -110
c-32 -73.333 -48 -134.666 -48 -183.999c52 0 105.333 14.667 160 44c95.333 52 156 98 182 138c18 26.667 27 66.667 27 120c0 46.667 14.667 93.334 44 140.001c2.66699 4.66699 11.834 16.834 27.501 36.501l65.5 82.5h4c8 0 16.667 -4.5 26 -13.5zM599.998 545.997
l-41 -28c-8.66699 -6 -17.5 -15.5 -26.5 -28.5s-17.167 -27.167 -24.5 -42.5s-13.166 -30.333 -17.499 -45s-6.5 -26.667 -6.5 -36c0 -16 6.66699 -38 20 -66c35.333 24.667 60.666 60.667 75.999 108c13.333 40 20 86 20 138z" />
    <glyph glyph-name="v" unicode="v" horiz-adv-x="617" 
d="M133 68l26.002 26.9971c25.333 10 50.333 29.667 75 59l76 92c21.333 26 42.333 50.167 63 72.5s41.667 42.833 63 61.5c56 48 109.667 76 161 84c-4.66699 -4.66699 -17.667 -16.167 -39 -34.5l-72 -61.5l-78 -68c-25.333 -22.667 -44.333 -40.667 -57 -54
c-13.333 -14 -25.833 -30.833 -37.5 -50.5s-24.834 -40.167 -39.501 -61.5c-14.667 -20 -29.834 -38 -45.501 -54s-30.834 -29.667 -45.501 -41c-36 -27.333 -75.667 -45 -119 -53c-5.33301 24 -10.666 51 -15.999 81s-10.333 63 -15 99
c-4.66699 34.667 -8 67.334 -10 98.001s-3 59.334 -3 86.001s1 51 3 73c43.333 -21.333 69.333 -74.666 78 -159.999c12 -111.333 22.667 -176.333 32 -195z" />
    <glyph glyph-name="w" unicode="w" horiz-adv-x="793" 
d="M580 600l12.9971 13.9941h15c18 12 41.333 18 70 18c18 0 33 -4.66699 45 -14s21.667 -21.166 29 -35.499s12.5 -30.333 15.5 -48s4.5 -34.5 4.5 -50.5c0 -7.33301 0.166992 -14.666 0.5 -21.999s0.5 -14.666 0.5 -21.999v-11c0 -4 -0.333008 -8 -1 -12l-5 -32
c-2 -12.667 -5.33301 -27.334 -10 -44.001c-10.667 -39.333 -24.334 -78.5 -41.001 -117.5s-42.334 -77.5 -77.001 -115.5c-70 -76 -144.333 -120.667 -223 -134c-6 -1.33301 -11.167 -2.33301 -15.5 -3s-7.83301 -1 -10.5 -1c-18.667 0 -34 3.66699 -46 11
s-21.833 18 -29.5 32s-14 31.333 -19 52s-10.167 44.334 -15.5 71.001l-50.5 -44l-43.5 -36c-45.333 -37.333 -80.333 -56 -105 -56c-15.333 0 -26.5 7 -33.5 21s-11.5 34.333 -13.5 61c-1.33301 16 -2.83301 39.667 -4.5 71s-3.16699 64.5 -4.5 99.5s-2.5 68.167 -3.5 99.5
s-1.5 55 -1.5 71c8 0 26.333 4.33301 55 13c2.66699 -14 5.33398 -37.833 8.00098 -71.5s5.83398 -69.5 9.50098 -107.5l11 -110c3.66699 -35.333 7.83398 -61.666 12.501 -78.999c32 20 59.333 40.333 82 61c14 12.667 26.333 25 37 37s20.834 24.667 30.501 38
s19.5 27.666 29.5 42.999l34 50c24.667 33.333 49 57 73 71c1.33301 -2.66699 2 -6.66699 2 -12c0 -11.333 -2 -28.666 -6 -51.999s-8.66699 -47.666 -14 -72.999s-10 -49.666 -14 -72.999s-6 -40.666 -6 -51.999c0 -24 4 -43 12 -57s21.333 -21 40 -21
c14.667 0 32.667 4.33301 54 13c36 14.667 70 35.667 102 63s60 58.5 84 93.5s43 72.333 57 112s21 79.167 21 118.5c0 17.333 -1.66699 34.666 -5 51.999s-8.5 33 -15.5 47s-16 25.333 -27 34s-23.833 13 -38.5 13c-15.333 0 -32.666 -5.66699 -51.999 -17
c-2 0 -7.33301 14.333 -16 43z" />
    <glyph glyph-name="x" unicode="x" horiz-adv-x="558" 
d="M20 0l-0.00292969 16c0 8.66699 6.83301 22.5 20.5 41.5s29.167 38.833 46.5 59.5l50.5 59.5c16.333 19 26.833 32.833 31.5 41.5c11.333 19.333 17 40 17 62c0 6 -1.16699 16.167 -3.5 30.5s-5.16602 29.666 -8.49902 45.999l-10 47c-3.33301 15 -6 26.5 -8 34.5
c-0.666992 3.33301 -2.16699 10.166 -4.5 20.499s-4.66602 21.333 -6.99902 33s-4.5 23 -6.5 34s-3 18.833 -3 23.5c0 14.667 5.16699 26.834 15.5 36.501s25.833 14.5 46.5 14.5c4.66699 0 8.5 -6.5 11.5 -19.5s5.33301 -29.5 7 -49.5s3.16699 -42.333 4.5 -67l4 -72
c1.33301 -23.333 3 -44.5 5 -63.5s5 -33.167 9 -42.5c14.667 11.333 30.834 25.833 48.501 43.5s35.167 37.834 52.5 60.501l37 49.5l53 69.5c34 42.667 70.333 73 109 91c0 -56 -29 -116.667 -87 -182c2 2 -5.33301 -4.66699 -22 -20s-35.5 -34.333 -56.5 -57
s-40.333 -46.667 -58 -72s-26.5 -47 -26.5 -65c0 -28.667 13 -60 39 -94c0.666992 -1.33301 8 -9.83301 22 -25.5l46.5 -53.5l48 -58.5c15 -19 24.167 -32.5 27.5 -40.5c-74 26 -142.667 76 -206 150c-26 31.333 -44.667 47 -56 47c-8.66699 0 -19.334 -7.5 -32.001 -22.5
l-40.5 -49.5c-14.333 -18 -29.666 -34.5 -45.999 -49.5s-32.833 -22.5 -49.5 -22.5c-12 0 -19 5 -21 15z" />
    <glyph glyph-name="y" unicode="y" horiz-adv-x="634" 
d="M580 656l26.0049 -0.00292969c5.33301 -25.333 8 -48.333 8 -69c0 -41.333 -11.333 -86.333 -34 -135c-6.66699 -15.333 -15.5 -34.333 -26.5 -57l-36.5 -79c-22 -49.333 -33 -100 -33 -152v-478c0 -5.33301 0.166992 -14 0.5 -26s0.5 -24.333 0.5 -37
s0.166992 -25 0.5 -37s0.5 -20.667 0.5 -26c0 -31.333 -0.666992 -58.333 -2 -81s-3.33301 -41 -6 -55c-10 -64.667 -33.333 -97 -70 -97c-20.667 0 -45.334 10.667 -74.001 32c-26 19.333 -50.167 41.5 -72.5 66.5s-42.833 52.5 -61.5 82.5
c-12 18.667 -25.667 43.334 -41 74.001s-32.333 67 -51 109c-18.667 43.333 -35.334 80.5 -50.001 111.5s-27.334 55.833 -38.001 74.5c2.66699 0.666992 6.83398 2 12.501 4l19.5 7c13.333 4 26 6 38 6h17.5c6.33301 0 13.5 -0.666992 21.5 -2h13
c-8.66699 0 -19.834 -2.83301 -33.501 -8.5l-46.5 -19.5c3.33301 -14.667 8.5 -29.667 15.5 -45s15.167 -31.666 24.5 -48.999l58 -106c13.333 -25.333 21 -40.666 23 -45.999c16.667 -44 46.667 -91 90 -141c46 -52.667 89 -87.667 129 -105
c12 35.333 21.167 74.166 27.5 116.499s9.5 88.166 9.5 137.499v105c0 47.333 -1.66699 85 -5 113s-5 48.333 -5 61v43c0 69.333 -1 117 -3 143c-4 50 -12 97 -24 141l-33 -19l-45 -25c-30 -17.333 -58.667 -26 -86 -26c-36 0 -62.167 12.833 -78.5 38.5
s-24.5 56.167 -24.5 91.5c0 14.667 1.66699 31 5 49s8.33301 35.167 15 51.5s14.667 31 24 44s20 22.167 32 27.5c0 -6.66699 -0.5 -17.667 -1.5 -33l-3 -47c-1 -16 -2 -30.5 -3 -43.5s-1.5 -20.5 -1.5 -22.5c0 -70.667 19.333 -106 58 -106c36 0 68.667 12.667 98 38
s52.666 53.333 69.999 84l17.5 52c4.33301 12.667 8.16602 24.334 11.499 35.001s7 21.834 11 33.501l16 48.5c22.667 67.333 54.667 118.333 96 153z" />
    <glyph glyph-name="z" unicode="z" horiz-adv-x="749" 
d="M208 455l17.9971 -13.002c8.66699 -1.33301 20.834 -2.66602 36.501 -3.99902l48.5 -4l45.5 -3.5c13.667 -1 22.5 -1.5 26.5 -1.5c20 0 38.167 0.833008 54.5 2.5s30.5 4.5 42.5 8.5c10 3.33301 24 9.83301 42 19.5l56 29.5c19.333 10 37.833 19 55.5 27
s30.834 12 39.501 12c24.667 0 43.334 -12 56.001 -36c-91.333 -32 -168.666 -69.5 -231.999 -112.5s-113 -89.5 -149 -139.5c0.666992 -5.33301 2.83398 -8.16602 6.50098 -8.49902s8.33398 0 14.001 1s11.5 2.5 17.5 4.5s11.667 3 17 3h24h25c13.333 0 26 -0.5 38 -1.5
s23.667 -3.16699 35 -6.5c17.333 -6 32.833 -12.667 46.5 -20s26.5 -15.833 38.5 -25.5s24.333 -20.834 37 -33.501s26.667 -27.667 42 -45l-294 73h-29c-17.333 0 -43.666 -9.5 -78.999 -28.5s-85.333 -49.833 -150 -92.5c-47.333 -30.667 -86.333 -46 -117 -46
c21.333 60.667 75.666 115 162.999 163c32.667 18 66.167 44.167 100.5 78.5s69.5 76.5 105.5 126.5l-7 3c-4.66699 2 -9.83398 4 -15.501 6l-16.5 6c-5.33301 2 -9 3 -11 3c-4.66699 0 -11 -0.666992 -19 -2l-24.5 -4l-24 -4c-7.66699 -1.33301 -13.834 -2 -18.501 -2
c-18.667 0 -32.834 5 -42.501 15s-18.5 25.667 -26.5 47c3.33301 14.667 7.5 19.834 12.5 15.501s8.83301 -7.83301 11.5 -10.5z" />
    <glyph glyph-name="braceleft" unicode="{" horiz-adv-x="314" 
d="M294 778c-2.66699 -5.33301 -10.1689 -13.334 -22.502 -24.001s-25 -22.834 -38 -36.501s-24.833 -27.667 -35.5 -42s-16 -27.166 -16 -38.499c0 -6.66699 1.16699 -16.167 3.5 -28.5s6.5 -23.833 12.5 -34.5l26 -46c10.667 -19.333 16 -36.333 16 -51
c0 -13.333 -4.66699 -31 -14 -53l-41 -96c-3.33301 -7.33301 -10.833 -19.666 -22.5 -36.999l-36 -56c-12.333 -20 -23.5 -39.5 -33.5 -58.5s-15 -33.5 -15 -43.5c0 -33.333 12.833 -59.833 38.5 -79.5s57.5 -29.5 95.5 -29.5h68c-14 -9.33301 -30.167 -17.5 -48.5 -24.5
s-38.5 -10.5 -60.5 -10.5c-20 0 -38.167 3.5 -54.5 10.5s-31.166 14.833 -44.499 23.5c-34.667 23.333 -52 56.333 -52 99v7c0 29.333 8.33301 57.833 25 85.5l47 80.5c18.667 34.667 28 63 28 85c-5.33301 2.66699 -9.66602 1 -12.999 -5s-6.33301 -11 -9 -15
c1.33301 6 3.33301 14 6 24c0.666992 2 4.16699 5.83301 10.5 11.5l21.5 18.5c8 6.66699 15.5 13.334 22.5 20.001s11.5 12 13.5 16c6.66699 13.333 10 26 10 38s-4.66699 26.667 -14 44c-10.667 19.333 -20.667 39.333 -30 60s-14 40 -14 58c0 28.667 13.333 54.667 40 78
c2 1.33301 7.5 5.66602 16.5 12.999s19.667 15 32 23s25.5 15.333 39.5 22s26.667 10 38 10v-4c0 -2 -1 -3.83301 -3 -5.5s-3 -3.16699 -3 -4.5c0 -2.66699 3.33301 -4 10 -4z" />
    <glyph glyph-name="bar" unicode="|" horiz-adv-x="193" 
d="M173 -54l-32.9971 -16.002h-24c-34.667 0 -59.334 13.667 -74.001 41s-22 63.333 -22 108v86c0 19.333 1.66699 41.666 5 66.999s7.33301 54 12 86c3.33301 24 7 55.167 11 93.5s8 83.166 12 134.499c6 24.667 14.667 44.834 26 60.501s26.666 27.167 45.999 34.5
c5.33301 -28.667 8 -61.667 8 -99c0 -20.667 -0.666992 -41 -2 -61s-3.33301 -39.667 -6 -59l-28 -204l-9.5 -63.5c-3.66699 -24.333 -5.5 -51.166 -5.5 -80.499c0 -33.333 6.16699 -60.666 18.5 -81.999s34.166 -36.666 65.499 -45.999z" />
    <glyph glyph-name="braceright" unicode="}" horiz-adv-x="464" 
d="M280 492c-0.666992 -1.33301 -2.50781 -4.66895 -5.50781 -10.002l-10 -18.5c-3.66699 -7 -7 -13.833 -10 -20.5s-4.5 -12 -4.5 -16c0 -11.333 5.33301 -21.666 16 -30.999s24.667 -14 42 -14c14.667 0 33.334 2.66699 56.001 8l80 20
c-14 -33.333 -42.667 -63.333 -86 -90c-16 -10 -29.333 -19 -40 -27s-19 -15 -25 -21c-15.333 -13.333 -23 -26.666 -23 -39.999c0 -6 1.33301 -13.333 4 -22s5.83398 -17.834 9.50098 -27.501s6.83398 -18.834 9.50098 -27.501s4 -16 4 -22
c0 -41.333 -23.333 -74.333 -70 -99c-19.333 -10 -39.666 -19.333 -60.999 -28s-42.666 -13 -63.999 -13c-17.333 0 -32.833 3.66699 -46.5 11s-25.5 14.666 -35.5 21.999c22.667 2.66699 45.334 5.16699 68.001 7.5s45.334 4.83301 68.001 7.5
c53.333 17.333 80 42.333 80 75c0 9.33301 -2.16699 19 -6.5 29s-9.16602 20 -14.499 30s-10.166 19.5 -14.499 28.5s-6.5 16.5 -6.5 22.5c0 8 3 16.667 9 26s12.667 18.833 20 28.5s14 19.167 20 28.5s9 18 9 26v6c0 1.33301 -2 4 -6 8l-13.5 13
c-5 4.66699 -9.66699 8.83398 -14 12.501s-6.83301 6.16699 -7.5 7.5c-6 16 -9 29.667 -9 41c0 16.667 6.66699 35.667 20 57c9.33301 14 16.666 25.833 21.999 35.5s8 19.834 8 30.501c0 2 0.166992 4.5 0.5 7.5s0.5 5.83301 0.5 8.5c0 10 -3.5 19 -10.5 27
s-14.5 15.667 -22.5 23c-1.33301 0 -6.83301 1.83301 -16.5 5.5s-20 8 -31 13s-21.167 10.333 -30.5 16s-14 10.834 -14 15.501c0 9.33301 4.66699 20.666 14 33.999c26 -10 46.5 -18.167 61.5 -24.5s23.833 -10.166 26.5 -11.499c44.667 -22.667 67 -52.667 67 -90
c0 -21.333 -5.66699 -47.333 -17 -78z" />
    <glyph glyph-name="asciitilde" unicode="~" horiz-adv-x="497" 
d="M251 492l2.00098 0.00195312c4 -35.333 9 -59 15 -71c8.66699 -14.667 20.5 -25.5 35.5 -32.5s31.167 -10.5 48.5 -10.5c12 0 24.167 4 36.5 12s24 17 35 27s20.667 19.667 29 29s14.5 15.333 18.5 18c4 -18.667 6 -34.334 6 -47.001
c0 -22.667 -8.33301 -40.334 -25 -53.001c-6.66699 -4 -16.167 -8 -28.5 -12s-25.166 -7.5 -38.499 -10.5s-26.333 -5.5 -39 -7.5s-22.667 -3 -30 -3c-28.667 0 -53.834 7.16699 -75.501 21.5s-40.5 37.833 -56.5 70.5l-81.5 -75.5l-82.5 -75.5
c0 30.667 14.667 63.334 44 98.001c10 10.667 64 55.667 162 135c9.33301 4 15 6 17 6c3.33301 0 4.66602 -1.83301 3.99902 -5.5s-1 -6.83398 -1 -9.50098s1.66699 -4 5 -4z" />
    <glyph glyph-name="nonbreakingspace" unicode="&#xa0;" horiz-adv-x="500" 
 />
    <glyph glyph-name="FLW168" unicode="&#xa8;" horiz-adv-x="685" 
d="M244 928l13.9971 0.00195312l26 -28c10 -10 15 -31 15 -63c0 -7.33301 0.5 -17 1.5 -29s1.5 -24.667 1.5 -38c0 -14.667 -1.33301 -28 -4 -40s-7.66699 -19.333 -15 -22c72.667 -5.33301 141.334 -17.833 206.001 -37.5s123.334 -47.167 176.001 -82.5
c-28 0 -54.667 4.33301 -80 13c-80.667 26.667 -122.667 40 -126 40c-11.333 1.33301 -26.166 2.83301 -44.499 4.5s-37.5 3.66699 -57.5 6l-57.5 7c-18.333 2.33301 -33.166 4.83301 -44.499 7.5c-8 2 -15.667 3.33301 -23 4s-14.333 1 -21 1
c-17.333 0 -32.166 -1.83301 -44.499 -5.5s-22.166 -6.83398 -29.499 -9.50098c-36 -12 -54 -40.333 -54 -85c0 -7.33301 0.5 -17.166 1.5 -29.499s3.16699 -27.166 6.5 -44.499c1.33301 -10.667 3.33301 -24 6 -40l9 -55c4 -9.33301 15.167 -17 33.5 -23
s39.5 -11.167 63.5 -15.5s48.333 -8 73 -11s45 -5.83301 61 -8.5c75.333 -14 133.333 -28.167 174 -42.5l72 -25.5c-12 -4 -26.667 -6 -44 -6c-23.333 0 -49.666 3.5 -78.999 10.5l-97 22.5l-50.5 11l-59 12.5l-62 13.5c-21 4.66699 -40.833 9.33398 -59.5 14.001
c-14 -54.667 -21 -102.667 -21 -144c0 -99.333 38.667 -155 116 -167c48 -8 103 -12 165 -12c29.333 0 59.666 1.83301 90.999 5.5l98 11.5l-38 -22c-8.66699 -2.66699 -20.667 -6 -36 -10s-32.5 -7.66699 -51.5 -11s-38.5 -6.33301 -58.5 -9s-38.667 -4 -56 -4
c-44 0 -88.167 5 -132.5 15s-83.5 22 -117.5 36c-18.667 7.33301 -31.667 14.833 -39 22.5s-11 16.5 -11 26.5c0 7.33301 1.5 18.666 4.5 33.999s4.5 26.666 4.5 33.999c0 13.333 -0.833008 33.166 -2.5 59.499s-3.33398 54.166 -5.00098 83.499
s-3.33398 57.166 -5.00098 83.499s-2.5 45.833 -2.5 58.5c0 2 -0.833008 10.167 -2.5 24.5s-3.33398 30.5 -5.00098 48.5l-5 53c-1.66699 17.333 -2.5 30 -2.5 38c0 58 19 90 57 96c40 6 82.667 9 128 9c8 0 17.833 -0.166992 29.5 -0.5s21.5 -0.833008 29.5 -1.5
c-9.33301 8.66699 -18.333 18.667 -27 30s-13 28 -13 50s2 46 6 72c0.666992 2.66699 2.16699 9.33398 4.5 20.001zM461.997 709.002l-27.001 27c-6 6 -12 15.5 -18 28.5s-11.667 26.667 -17 41s-9.66602 28.166 -12.999 41.499s-5 23 -5 29
c0 16.667 17.667 29.334 53 38.001c18 -78 27 -146.333 27 -205z" />
    <glyph glyph-name="FLW168" unicode="&#x401;" horiz-adv-x="685" 
d="M244 928l13.9971 0.00195312l26 -28c10 -10 15 -31 15 -63c0 -7.33301 0.5 -17 1.5 -29s1.5 -24.667 1.5 -38c0 -14.667 -1.33301 -28 -4 -40s-7.66699 -19.333 -15 -22c72.667 -5.33301 141.334 -17.833 206.001 -37.5s123.334 -47.167 176.001 -82.5
c-28 0 -54.667 4.33301 -80 13c-80.667 26.667 -122.667 40 -126 40c-11.333 1.33301 -26.166 2.83301 -44.499 4.5s-37.5 3.66699 -57.5 6l-57.5 7c-18.333 2.33301 -33.166 4.83301 -44.499 7.5c-8 2 -15.667 3.33301 -23 4s-14.333 1 -21 1
c-17.333 0 -32.166 -1.83301 -44.499 -5.5s-22.166 -6.83398 -29.499 -9.50098c-36 -12 -54 -40.333 -54 -85c0 -7.33301 0.5 -17.166 1.5 -29.499s3.16699 -27.166 6.5 -44.499c1.33301 -10.667 3.33301 -24 6 -40l9 -55c4 -9.33301 15.167 -17 33.5 -23
s39.5 -11.167 63.5 -15.5s48.333 -8 73 -11s45 -5.83301 61 -8.5c75.333 -14 133.333 -28.167 174 -42.5l72 -25.5c-12 -4 -26.667 -6 -44 -6c-23.333 0 -49.666 3.5 -78.999 10.5l-97 22.5l-50.5 11l-59 12.5l-62 13.5c-21 4.66699 -40.833 9.33398 -59.5 14.001
c-14 -54.667 -21 -102.667 -21 -144c0 -99.333 38.667 -155 116 -167c48 -8 103 -12 165 -12c29.333 0 59.666 1.83301 90.999 5.5l98 11.5l-38 -22c-8.66699 -2.66699 -20.667 -6 -36 -10s-32.5 -7.66699 -51.5 -11s-38.5 -6.33301 -58.5 -9s-38.667 -4 -56 -4
c-44 0 -88.167 5 -132.5 15s-83.5 22 -117.5 36c-18.667 7.33301 -31.667 14.833 -39 22.5s-11 16.5 -11 26.5c0 7.33301 1.5 18.666 4.5 33.999s4.5 26.666 4.5 33.999c0 13.333 -0.833008 33.166 -2.5 59.499s-3.33398 54.166 -5.00098 83.499
s-3.33398 57.166 -5.00098 83.499s-2.5 45.833 -2.5 58.5c0 2 -0.833008 10.167 -2.5 24.5s-3.33398 30.5 -5.00098 48.5l-5 53c-1.66699 17.333 -2.5 30 -2.5 38c0 58 19 90 57 96c40 6 82.667 9 128 9c8 0 17.833 -0.166992 29.5 -0.5s21.5 -0.833008 29.5 -1.5
c-9.33301 8.66699 -18.333 18.667 -27 30s-13 28 -13 50s2 46 6 72c0.666992 2.66699 2.16699 9.33398 4.5 20.001zM461.997 709.002l-27.001 27c-6 6 -12 15.5 -18 28.5s-11.667 26.667 -17 41s-9.66602 28.166 -12.999 41.499s-5 23 -5 29
c0 16.667 17.667 29.334 53 38.001c18 -78 27 -146.333 27 -205z" />
    <glyph glyph-name="FLW170" unicode="&#xaa;" horiz-adv-x="718" 
d="M204 259l-60.0049 -38c-6 -1.33301 -12.667 -1.83301 -20 -1.5s-14.166 0.833008 -20.499 1.5s-11.833 1.5 -16.5 2.5l-7 1.5c2.66699 10.667 5.66699 21.334 9 32.001s7.66602 21.667 12.999 33c14 29.333 29.833 53 47.5 71s42.834 34.333 75.501 49l28 13.5l26 12.5
c15.333 8 31.333 17.667 48 29s31.667 17 45 17c5.33301 0 11 -0.833008 17 -2.5s12.333 -2.5 19 -2.5c4.66699 0 8.66699 1.83301 12 5.5s5 8.16699 5 13.5c0 4 -2.66699 11.667 -8 23l-17.5 36l-17.5 35c-5.33301 10.667 -8.33301 17.334 -9 20.001
c-2.66699 9.33301 -5 17.833 -7 25.5s-3.66699 14.5 -5 20.5c-18.667 -9.33301 -31 -18.666 -37 -27.999s-9 -24 -9 -44c0 -20.667 -2.16699 -36.167 -6.5 -46.5s-14.166 -21.166 -29.499 -32.499l-81 -57c-18.667 -13.333 -29 -20.666 -31 -21.999
c-22 -16.667 -41.5 -33 -58.5 -49s-31.5 -32.333 -43.5 -49c-30 -38.667 -45 -79.667 -45 -123c0 -68.667 43 -113.667 129 -135c20.667 -5.33301 48.667 -9.33301 84 -12s78 -4 128 -4c22.667 0 52.834 1.5 90.501 4.5s74.834 7.16699 111.501 12.5
s68.334 11.666 95.001 18.999s40 15.333 40 24c0 6 -11.667 9 -35 9c-3.33301 0 -8.5 -0.833008 -15.5 -2.5s-14.5 -3.33398 -22.5 -5.00098s-15.167 -3.33398 -21.5 -5.00098s-9.83301 -2.5 -10.5 -2.5h-27l-99 -15c-76 -12 -138.667 -18 -188 -18
c-31.333 0 -61 2.66699 -89 8s-53 13.666 -75 24.999c-28 14.667 -42 40.667 -42 78c0 -1.33301 2.83301 -2.33301 8.5 -3s12.167 -1.66699 19.5 -3l45 -8c2 0.666992 9.16699 3.5 21.5 8.5s25.833 11.333 40.5 19s22 14.167 22 19.5v24
c0 7.33301 -1.83301 11.666 -5.5 12.999s-10.5 2.33301 -20.5 3z" />
    <glyph glyph-name="FLW170" unicode="&#x404;" horiz-adv-x="718" 
d="M204 259l-60.0049 -38c-6 -1.33301 -12.667 -1.83301 -20 -1.5s-14.166 0.833008 -20.499 1.5s-11.833 1.5 -16.5 2.5l-7 1.5c2.66699 10.667 5.66699 21.334 9 32.001s7.66602 21.667 12.999 33c14 29.333 29.833 53 47.5 71s42.834 34.333 75.501 49l28 13.5l26 12.5
c15.333 8 31.333 17.667 48 29s31.667 17 45 17c5.33301 0 11 -0.833008 17 -2.5s12.333 -2.5 19 -2.5c4.66699 0 8.66699 1.83301 12 5.5s5 8.16699 5 13.5c0 4 -2.66699 11.667 -8 23l-17.5 36l-17.5 35c-5.33301 10.667 -8.33301 17.334 -9 20.001
c-2.66699 9.33301 -5 17.833 -7 25.5s-3.66699 14.5 -5 20.5c-18.667 -9.33301 -31 -18.666 -37 -27.999s-9 -24 -9 -44c0 -20.667 -2.16699 -36.167 -6.5 -46.5s-14.166 -21.166 -29.499 -32.499l-81 -57c-18.667 -13.333 -29 -20.666 -31 -21.999
c-22 -16.667 -41.5 -33 -58.5 -49s-31.5 -32.333 -43.5 -49c-30 -38.667 -45 -79.667 -45 -123c0 -68.667 43 -113.667 129 -135c20.667 -5.33301 48.667 -9.33301 84 -12s78 -4 128 -4c22.667 0 52.834 1.5 90.501 4.5s74.834 7.16699 111.501 12.5
s68.334 11.666 95.001 18.999s40 15.333 40 24c0 6 -11.667 9 -35 9c-3.33301 0 -8.5 -0.833008 -15.5 -2.5s-14.5 -3.33398 -22.5 -5.00098s-15.167 -3.33398 -21.5 -5.00098s-9.83301 -2.5 -10.5 -2.5h-27l-99 -15c-76 -12 -138.667 -18 -188 -18
c-31.333 0 -61 2.66699 -89 8s-53 13.666 -75 24.999c-28 14.667 -42 40.667 -42 78c0 -1.33301 2.83301 -2.33301 8.5 -3s12.167 -1.66699 19.5 -3l45 -8c2 0.666992 9.16699 3.5 21.5 8.5s25.833 11.333 40.5 19s22 14.167 22 19.5v24
c0 7.33301 -1.83301 11.666 -5.5 12.999s-10.5 2.33301 -20.5 3z" />
    <glyph glyph-name="softhyphen" unicode="&#xad;" 
d="M20 286l41.001 -0.000976562c15.333 5.33301 29.833 9 43.5 11s26.5 3 38.5 3c22.667 0 46.167 0.666992 70.5 2s49.5 3.33301 75.5 6c63.333 6.66699 114.5 11.667 153.5 15s66.5 5 82.5 5c-15.333 -10 -39.333 -19.667 -72 -29c-12 -3.33301 -26 -6.66602 -42 -9.99902
s-36.5 -7.16602 -61.5 -11.499l-93 -15.5c-37 -6 -82.167 -14 -135.5 -24c-20.667 0 -39.834 3.66699 -57.501 11s-32.167 19.666 -43.5 36.999z" />
    <glyph glyph-name="paragraph" unicode="&#xb6;" horiz-adv-x="601" 
d="M294 546l-25.999 0.00292969l-80.5 19.5l-80.5 18.5c-58 22 -87 62.667 -87 122c0 3.33301 0.333008 8.66602 1 15.999s1 12.666 1 15.999c12 106 116.667 159 314 159c11.333 0 28.333 -0.5 51 -1.5s46.5 -2.16699 71.5 -3.5s48.833 -2.5 71.5 -3.5s39.667 -1.5 51 -1.5
v-68h-19c-5.33301 0 -11.333 0.166992 -18 0.5s-12.334 0.166016 -17.001 -0.500977v-914h-69v914h-95v-914h-69v641z" />
    <glyph glyph-name="periodcentered" unicode="&#xb7;" horiz-adv-x="180" 
d="M158 410c-9.33301 -36 -30.667 -54.001 -64 -54.001c-18.667 0 -35.667 5.83301 -51 17.5s-23 27.834 -23 48.501c0 17.333 6.83301 33.333 20.5 48s30.167 22 49.5 22c18.667 0 35 -6.33301 49 -19s21 -28.667 21 -48c0 -3.33301 -0.666992 -8.33301 -2 -15z" />
    <glyph glyph-name="FLW184" unicode="&#xb8;" horiz-adv-x="835" 
d="M735 65l-0.00292969 -12.9971l-11 -15l-20 -10c-10 -4.66699 -23.5 -8.33398 -40.5 -11.001s-31.5 -4.33398 -43.5 -5.00098l-245 -26c-3.33301 -0.666992 -6.66602 -0.5 -9.99902 0.5s-5.66602 1.5 -6.99902 1.5h-10c-10 0 -22.833 0.666992 -38.5 2
s-32 2.83301 -49 4.5s-33.167 3.16699 -48.5 4.5s-27.333 2 -36 2c-17.333 0 -35 3.5 -53 10.5s-36 15.833 -54 26.5c-19.333 10.667 -32.333 19.834 -39 27.501s-10 17.5 -10 29.5c0 28 27.333 67.333 82 118c38.667 36 78.5 69.167 119.5 99.5s83.167 57.166 126.5 80.499
c52 28.667 102 50.334 150 65.001s93.667 22 137 22c78 0 131.333 -17 160 -51c13.333 -16 20 -35.667 20 -59c0 -17.333 -4.5 -36.166 -13.5 -56.499s-20.5 -39.666 -34.5 -57.999s-29.5 -35 -46.5 -50s-33.5 -25.833 -49.5 -32.5l-58 -24
c-16.667 -6.66699 -31 -12 -43 -16c-48 -16.667 -89.333 -25 -124 -25c-18 0 -42 3 -72 9s-59.5 14.333 -88.5 25s-54.5 23.5 -76.5 38.5s-33.667 31.167 -35 48.5c10 -6 27 -12.333 51 -19s48.833 -12.834 74.5 -18.501l69.5 -15c20.667 -4.33301 32.667 -7.5 36 -9.5
l44.5 -14.5c13 -4.33301 25.833 -6.5 38.5 -6.5c25.333 0 49.166 3.66699 71.499 11s45.5 16 69.5 26c26 11.333 48 25.166 66 41.499s34.333 35.5 49 57.5c8 12.667 16.333 24.667 25 36s13 23.333 13 36c0 28 -12 51.167 -36 69.5s-50.667 27.5 -80 27.5
c-22 0 -41.167 -2.5 -57.5 -7.5s-38.5 -10.833 -66.5 -17.5c-46.667 -11.333 -88.5 -24.333 -125.5 -39s-71.167 -29.667 -102.5 -45c-76 -38.667 -145 -91 -207 -157c-7.33301 -8 -17.333 -18.333 -30 -31s-19 -25.334 -19 -38.001c0 -18 5.66699 -32.5 17 -43.5
s26.333 -19.167 45 -24.5s39.834 -8.83301 63.501 -10.5s47.834 -2.5 72.501 -2.5c13.333 0 29.5 0.166992 48.5 0.5s40.833 0.5 65.5 0.5h46c56 0 111 2.16699 165 6.5s105.333 12.166 154 23.499zM601.997 751.003h14l12 -28c4 -8.66699 1.66699 -22.5 -7 -41.5
s-19.667 -39.833 -33 -62.5s-27.5 -45.5 -42.5 -68.5s-26.833 -42.833 -35.5 -59.5c-15.333 8 -23 22 -23 42c0 16.667 3.5 34 10.5 52s16 36.167 27 54.5s23.333 36.833 37 55.5zM708.997 532.003l-12.999 26.999c-2.66699 5.33301 -4 14.333 -4 27
c0 9.33301 0.666992 19.5 2 30.5s3 21.833 5 32.5s4.33301 20.5 7 29.5s5 15.833 7 20.5c8.66699 16.667 33 29.334 73 38.001c-10.667 -39.333 -22.334 -76 -35.001 -110s-26.667 -65.667 -42 -95z" />
    <glyph glyph-name="FLW184" unicode="&#x451;" horiz-adv-x="835" 
d="M735 65l-0.00292969 -12.9971l-11 -15l-20 -10c-10 -4.66699 -23.5 -8.33398 -40.5 -11.001s-31.5 -4.33398 -43.5 -5.00098l-245 -26c-3.33301 -0.666992 -6.66602 -0.5 -9.99902 0.5s-5.66602 1.5 -6.99902 1.5h-10c-10 0 -22.833 0.666992 -38.5 2
s-32 2.83301 -49 4.5s-33.167 3.16699 -48.5 4.5s-27.333 2 -36 2c-17.333 0 -35 3.5 -53 10.5s-36 15.833 -54 26.5c-19.333 10.667 -32.333 19.834 -39 27.501s-10 17.5 -10 29.5c0 28 27.333 67.333 82 118c38.667 36 78.5 69.167 119.5 99.5s83.167 57.166 126.5 80.499
c52 28.667 102 50.334 150 65.001s93.667 22 137 22c78 0 131.333 -17 160 -51c13.333 -16 20 -35.667 20 -59c0 -17.333 -4.5 -36.166 -13.5 -56.499s-20.5 -39.666 -34.5 -57.999s-29.5 -35 -46.5 -50s-33.5 -25.833 -49.5 -32.5l-58 -24
c-16.667 -6.66699 -31 -12 -43 -16c-48 -16.667 -89.333 -25 -124 -25c-18 0 -42 3 -72 9s-59.5 14.333 -88.5 25s-54.5 23.5 -76.5 38.5s-33.667 31.167 -35 48.5c10 -6 27 -12.333 51 -19s48.833 -12.834 74.5 -18.501l69.5 -15c20.667 -4.33301 32.667 -7.5 36 -9.5
l44.5 -14.5c13 -4.33301 25.833 -6.5 38.5 -6.5c25.333 0 49.166 3.66699 71.499 11s45.5 16 69.5 26c26 11.333 48 25.166 66 41.499s34.333 35.5 49 57.5c8 12.667 16.333 24.667 25 36s13 23.333 13 36c0 28 -12 51.167 -36 69.5s-50.667 27.5 -80 27.5
c-22 0 -41.167 -2.5 -57.5 -7.5s-38.5 -10.833 -66.5 -17.5c-46.667 -11.333 -88.5 -24.333 -125.5 -39s-71.167 -29.667 -102.5 -45c-76 -38.667 -145 -91 -207 -157c-7.33301 -8 -17.333 -18.333 -30 -31s-19 -25.334 -19 -38.001c0 -18 5.66699 -32.5 17 -43.5
s26.333 -19.167 45 -24.5s39.834 -8.83301 63.501 -10.5s47.834 -2.5 72.501 -2.5c13.333 0 29.5 0.166992 48.5 0.5s40.833 0.5 65.5 0.5h46c56 0 111 2.16699 165 6.5s105.333 12.166 154 23.499zM601.997 751.003h14l12 -28c4 -8.66699 1.66699 -22.5 -7 -41.5
s-19.667 -39.833 -33 -62.5s-27.5 -45.5 -42.5 -68.5s-26.833 -42.833 -35.5 -59.5c-15.333 8 -23 22 -23 42c0 16.667 3.5 34 10.5 52s16 36.167 27 54.5s23.333 36.833 37 55.5zM708.997 532.003l-12.999 26.999c-2.66699 5.33301 -4 14.333 -4 27
c0 9.33301 0.666992 19.5 2 30.5s3 21.833 5 32.5s4.33301 20.5 7 29.5s5 15.833 7 20.5c8.66699 16.667 33 29.334 73 38.001c-10.667 -39.333 -22.334 -76 -35.001 -110s-26.667 -65.667 -42 -95z" />
    <glyph glyph-name="FLW185" unicode="&#xb9;" horiz-adv-x="810" 
d="M488 161l12 14.998c2.66699 2.66699 6 9.33398 10 20.001s7.66699 22.667 11 36s6.33301 26.333 9 39s4.33398 22 5.00098 28c7.33301 64.667 13 123.667 17 177s6 101 6 143c0 1.33301 -0.5 6.83301 -1.5 16.5s-2.16699 22.834 -3.5 39.501c0 11.333 13.333 20 40 26
c3.33301 -19.333 5.5 -38.666 6.5 -57.999s1.5 -38.666 1.5 -57.999c0 -23.333 -0.666992 -47.166 -2 -71.499s-4 -48.5 -8 -72.5l-19.5 -122c-7.66699 -48.667 -15.834 -105.667 -24.501 -171c15.333 0 29.833 -0.833008 43.5 -2.5s22.5 -5.83398 26.5 -12.501
c-27.333 -6.66699 -43.666 -11.334 -48.999 -14.001c-17.333 -9.33301 -27 -21.5 -29 -36.5s-3 -31.833 -3 -50.5c0 -10.667 -4.33301 -18.334 -13 -23.001l-12 14l-11 -2c-4.66699 22 -9.16699 40 -13.5 54s-10.333 25.5 -18 34.5s-17.167 16.333 -28.5 22
s-26.333 11.167 -45 16.5c-12.667 4 -24.834 10.167 -36.501 18.5s-22.834 17.833 -33.501 28.5c-2.66699 2.66699 -10.834 13.167 -24.501 31.5s-33.167 47.166 -58.5 86.499c-39.333 -95.333 -69 -160.666 -89 -195.999c-22.667 -40 -45 -71.167 -67 -93.5
s-44 -33.5 -66 -33.5c2 14 7.16699 36.5 15.5 67.5s17.333 62.667 27 95l26 87.5l13.5 46c2.66699 11.333 6 27.5 10 48.5s9.33301 42.833 16 65.5s14.5 44 23.5 64s19.833 34.333 32.5 43c1.33301 -11.333 2.33301 -22 3 -32s1 -20 1 -30v-28.5
c0 -8.33301 -0.333008 -16.166 -1 -23.499l-3 -51c-0.666992 -0.666992 2.33301 8.33301 9 27s15.334 40 26.001 64s22.5 47.333 35.5 70s24.833 38 35.5 46c0 -0.666992 1 -12.834 3 -36.501s4.33301 -58.167 7 -103.5c2 -34 6 -61 12 -81
c22.667 -71.333 81.334 -127 176.001 -167zM720 624.998c20 0 36.667 -2.49707 50 -7.49707s20 -18.833 20 -41.5s-6.16699 -45.334 -18.5 -68.001s-29.5 -37.334 -51.5 -44.001c-9.33301 -2.66699 -19.5 -2.33398 -30.5 0.999023s-21.167 8.83301 -30.5 16.5
s-17 16.667 -23 27s-9 21.166 -9 32.499s3 22 9 32s13.5 18.833 22.5 26.5s19 13.834 30 18.501s21.5 7 31.5 7zM720 605.001c-14.667 0 -28.667 -5.83398 -42 -17.501s-20 -26.167 -20 -43.5s7 -31.166 21 -41.499s27.667 -12.833 41 -7.5c30.667 12.667 46 35.667 46 69
c0 17.333 -4 28.5 -12 33.5s-19.333 7.5 -34 7.5zM760 430c12.667 0 19 -2.66699 19 -8c0 -6.66699 -6 -13.334 -18 -20.001s-25.833 -12.834 -41.5 -18.501s-31.334 -10.334 -47.001 -14.001s-27.167 -5.5 -34.5 -5.5c-12.667 0 -19 2.66699 -19 8
c0 6.66699 6 13.334 18 20.001s25.833 12.834 41.5 18.501s31.334 10.334 47.001 14.001s27.167 5.5 34.5 5.5z" />
    <glyph glyph-name="FLW185" unicode="&#x2116;" horiz-adv-x="810" 
d="M488 161l12 14.998c2.66699 2.66699 6 9.33398 10 20.001s7.66699 22.667 11 36s6.33301 26.333 9 39s4.33398 22 5.00098 28c7.33301 64.667 13 123.667 17 177s6 101 6 143c0 1.33301 -0.5 6.83301 -1.5 16.5s-2.16699 22.834 -3.5 39.501c0 11.333 13.333 20 40 26
c3.33301 -19.333 5.5 -38.666 6.5 -57.999s1.5 -38.666 1.5 -57.999c0 -23.333 -0.666992 -47.166 -2 -71.499s-4 -48.5 -8 -72.5l-19.5 -122c-7.66699 -48.667 -15.834 -105.667 -24.501 -171c15.333 0 29.833 -0.833008 43.5 -2.5s22.5 -5.83398 26.5 -12.501
c-27.333 -6.66699 -43.666 -11.334 -48.999 -14.001c-17.333 -9.33301 -27 -21.5 -29 -36.5s-3 -31.833 -3 -50.5c0 -10.667 -4.33301 -18.334 -13 -23.001l-12 14l-11 -2c-4.66699 22 -9.16699 40 -13.5 54s-10.333 25.5 -18 34.5s-17.167 16.333 -28.5 22
s-26.333 11.167 -45 16.5c-12.667 4 -24.834 10.167 -36.501 18.5s-22.834 17.833 -33.501 28.5c-2.66699 2.66699 -10.834 13.167 -24.501 31.5s-33.167 47.166 -58.5 86.499c-39.333 -95.333 -69 -160.666 -89 -195.999c-22.667 -40 -45 -71.167 -67 -93.5
s-44 -33.5 -66 -33.5c2 14 7.16699 36.5 15.5 67.5s17.333 62.667 27 95l26 87.5l13.5 46c2.66699 11.333 6 27.5 10 48.5s9.33301 42.833 16 65.5s14.5 44 23.5 64s19.833 34.333 32.5 43c1.33301 -11.333 2.33301 -22 3 -32s1 -20 1 -30v-28.5
c0 -8.33301 -0.333008 -16.166 -1 -23.499l-3 -51c-0.666992 -0.666992 2.33301 8.33301 9 27s15.334 40 26.001 64s22.5 47.333 35.5 70s24.833 38 35.5 46c0 -0.666992 1 -12.834 3 -36.501s4.33301 -58.167 7 -103.5c2 -34 6 -61 12 -81
c22.667 -71.333 81.334 -127 176.001 -167zM720 624.998c20 0 36.667 -2.49707 50 -7.49707s20 -18.833 20 -41.5s-6.16699 -45.334 -18.5 -68.001s-29.5 -37.334 -51.5 -44.001c-9.33301 -2.66699 -19.5 -2.33398 -30.5 0.999023s-21.167 8.83301 -30.5 16.5
s-17 16.667 -23 27s-9 21.166 -9 32.499s3 22 9 32s13.5 18.833 22.5 26.5s19 13.834 30 18.501s21.5 7 31.5 7zM720 605.001c-14.667 0 -28.667 -5.83398 -42 -17.501s-20 -26.167 -20 -43.5s7 -31.166 21 -41.499s27.667 -12.833 41 -7.5c30.667 12.667 46 35.667 46 69
c0 17.333 -4 28.5 -12 33.5s-19.333 7.5 -34 7.5zM760 430c12.667 0 19 -2.66699 19 -8c0 -6.66699 -6 -13.334 -18 -20.001s-25.833 -12.834 -41.5 -18.501s-31.334 -10.334 -47.001 -14.001s-27.167 -5.5 -34.5 -5.5c-12.667 0 -19 2.66699 -19 8
c0 6.66699 6 13.334 18 20.001s25.833 12.834 41.5 18.501s31.334 10.334 47.001 14.001s27.167 5.5 34.5 5.5z" />
    <glyph glyph-name="FLW186" unicode="&#xba;" horiz-adv-x="544" 
d="M163 220l-48 -22.0088c-7.33301 0 -16.333 1.66699 -27 5s-17.334 5.66602 -20.001 6.99902c8 34.667 22.667 64.334 44 89.001s47.666 41.667 78.999 51c7.33301 2 14.5 4.33301 21.5 7s13.833 5 20.5 7c8 2 17.833 5 29.5 9l34 11.5l28 9.5
c7.66699 2.66699 11.167 4 10.5 4c4.66699 2 6.5 8 5.5 18s-3.33301 20.833 -7 32.5s-7.33398 22.667 -11.001 33s-5.83398 16.5 -6.50098 18.5c-1.33301 5.33301 -4.33301 8.83301 -9 10.5s-9.5 1.66699 -14.5 0s-9.66699 -4.5 -14 -8.5s-6.83301 -9 -7.5 -15
c-1.33301 -18 -4.16602 -31.5 -8.49902 -40.5s-12.166 -16.833 -23.499 -23.5l-66 -37.5c-15.333 -8.33301 -23.666 -13.166 -24.999 -14.499c-17.333 -11.333 -33.166 -22.5 -47.499 -33.5s-26.5 -22.5 -36.5 -34.5c-12 -14.667 -21.833 -30.5 -29.5 -47.5
s-12.167 -34.5 -13.5 -52.5c-4.66699 -60 25 -105.667 89 -137c14.667 -7.33301 34.834 -15.166 60.501 -23.499s57.5 -16.166 95.5 -23.499l36 -7c14 -2.66699 29.167 -5.16699 45.5 -7.5s32.833 -4.33301 49.5 -6s32.667 -2.5 48 -2.5c22 0 40.333 2.33301 55 7
s22.667 10.334 24 17.001c0 4 -3.33301 7.16699 -10 9.5s-14.334 4 -23.001 5s-17.5 1.66699 -26.5 2s-15.5 0.5 -19.5 0.5h-95c-29.333 0 -56 1.33301 -80 4s-45.333 7 -64 13c-24 8 -45.5 16 -64.5 24s-35.833 17.333 -50.5 28c-5.33301 4.66699 -12 13.334 -20 26.001
s-12 23 -12 31c0 8.66699 7 10.334 21 5.00098l33 -14c2 0.666992 8 2.33398 18 5.00098s20.833 6.33398 32.5 11.001s17.5 9.33398 17.5 14.001v20c0 6 -1 10.333 -3 13s-7 3.66699 -15 3z" />
    <glyph glyph-name="FLW186" unicode="&#x454;" horiz-adv-x="544" 
d="M163 220l-48 -22.0088c-7.33301 0 -16.333 1.66699 -27 5s-17.334 5.66602 -20.001 6.99902c8 34.667 22.667 64.334 44 89.001s47.666 41.667 78.999 51c7.33301 2 14.5 4.33301 21.5 7s13.833 5 20.5 7c8 2 17.833 5 29.5 9l34 11.5l28 9.5
c7.66699 2.66699 11.167 4 10.5 4c4.66699 2 6.5 8 5.5 18s-3.33301 20.833 -7 32.5s-7.33398 22.667 -11.001 33s-5.83398 16.5 -6.50098 18.5c-1.33301 5.33301 -4.33301 8.83301 -9 10.5s-9.5 1.66699 -14.5 0s-9.66699 -4.5 -14 -8.5s-6.83301 -9 -7.5 -15
c-1.33301 -18 -4.16602 -31.5 -8.49902 -40.5s-12.166 -16.833 -23.499 -23.5l-66 -37.5c-15.333 -8.33301 -23.666 -13.166 -24.999 -14.499c-17.333 -11.333 -33.166 -22.5 -47.499 -33.5s-26.5 -22.5 -36.5 -34.5c-12 -14.667 -21.833 -30.5 -29.5 -47.5
s-12.167 -34.5 -13.5 -52.5c-4.66699 -60 25 -105.667 89 -137c14.667 -7.33301 34.834 -15.166 60.501 -23.499s57.5 -16.166 95.5 -23.499l36 -7c14 -2.66699 29.167 -5.16699 45.5 -7.5s32.833 -4.33301 49.5 -6s32.667 -2.5 48 -2.5c22 0 40.333 2.33301 55 7
s22.667 10.334 24 17.001c0 4 -3.33301 7.16699 -10 9.5s-14.334 4 -23.001 5s-17.5 1.66699 -26.5 2s-15.5 0.5 -19.5 0.5h-95c-29.333 0 -56 1.33301 -80 4s-45.333 7 -64 13c-24 8 -45.5 16 -64.5 24s-35.833 17.333 -50.5 28c-5.33301 4.66699 -12 13.334 -20 26.001
s-12 23 -12 31c0 8.66699 7 10.334 21 5.00098l33 -14c2 0.666992 8 2.33398 18 5.00098s20.833 6.33398 32.5 11.001s17.5 9.33398 17.5 14.001v20c0 6 -1 10.333 -3 13s-7 3.66699 -15 3z" />
    <glyph glyph-name="FLW192" unicode="&#xc0;" horiz-adv-x="559" 
d="M130 410l13.001 13.002v13c9.33301 9.33301 17 20.666 23 33.999s11.333 28.666 16 45.999l15 58c5.33301 21.333 12 44.333 20 69c12.667 40.667 26.667 71 42 91s30.666 30 45.999 30c13.333 0 25.666 -7 36.999 -21s21.833 -32 31.5 -54s18.167 -46.833 25.5 -74.5
s13.333 -55.167 18 -82.5c2.66699 -13.333 5.66699 -30.833 9 -52.5s9 -42.667 17 -63s19.5 -38 34.5 -53s35.5 -22.5 61.5 -22.5c-22 -24.667 -36.667 -47.667 -44 -69c-7.33301 -23.333 -11 -52 -11 -86v-63c0 -24.667 4.66699 -50.667 14 -78l33 -95
c3.33301 -10.667 1.33301 -21.334 -6 -32.001c-72 52 -108 152 -108 300c0 21.333 -4.83301 37.333 -14.5 48s-21.5 16 -35.5 16c-4 0 -9.83301 -0.5 -17.5 -1.5s-15.5 -2.16699 -23.5 -3.5l-21.5 -3.5c-6.33301 -1 -10.166 -1.5 -11.499 -1.5h-82
c-42.667 0 -68 -21.333 -76 -64c-12 -63.333 -23 -101 -33 -113c-3.33301 -4.66699 -10 -8.16699 -20 -10.5s-18.667 -3.5 -26 -3.5h-19c-4 0 -7.16699 3.66699 -9.5 11s-4 17 -5 29s-1.66699 25.5 -2 40.5s-0.5 30.5 -0.5 46.5v118v23v115c16 2 28.333 3 37 3
c16.667 0 29 -4.16699 37 -12.5s20 -23.166 36 -44.499zM279.001 656.002l-13 -42c-6.66699 -9.33301 -14 -23.333 -22 -42s-15.5 -38.5 -22.5 -59.5s-12.833 -41.5 -17.5 -61.5s-7 -36.333 -7 -49c0 -50.667 29.333 -76 88 -76h10c57.333 0 86 26 86 78
c0 58 -34 142 -102 252z" />
    <glyph glyph-name="FLW192" unicode="&#x410;" horiz-adv-x="559" 
d="M130 410l13.001 13.002v13c9.33301 9.33301 17 20.666 23 33.999s11.333 28.666 16 45.999l15 58c5.33301 21.333 12 44.333 20 69c12.667 40.667 26.667 71 42 91s30.666 30 45.999 30c13.333 0 25.666 -7 36.999 -21s21.833 -32 31.5 -54s18.167 -46.833 25.5 -74.5
s13.333 -55.167 18 -82.5c2.66699 -13.333 5.66699 -30.833 9 -52.5s9 -42.667 17 -63s19.5 -38 34.5 -53s35.5 -22.5 61.5 -22.5c-22 -24.667 -36.667 -47.667 -44 -69c-7.33301 -23.333 -11 -52 -11 -86v-63c0 -24.667 4.66699 -50.667 14 -78l33 -95
c3.33301 -10.667 1.33301 -21.334 -6 -32.001c-72 52 -108 152 -108 300c0 21.333 -4.83301 37.333 -14.5 48s-21.5 16 -35.5 16c-4 0 -9.83301 -0.5 -17.5 -1.5s-15.5 -2.16699 -23.5 -3.5l-21.5 -3.5c-6.33301 -1 -10.166 -1.5 -11.499 -1.5h-82
c-42.667 0 -68 -21.333 -76 -64c-12 -63.333 -23 -101 -33 -113c-3.33301 -4.66699 -10 -8.16699 -20 -10.5s-18.667 -3.5 -26 -3.5h-19c-4 0 -7.16699 3.66699 -9.5 11s-4 17 -5 29s-1.66699 25.5 -2 40.5s-0.5 30.5 -0.5 46.5v118v23v115c16 2 28.333 3 37 3
c16.667 0 29 -4.16699 37 -12.5s20 -23.166 36 -44.499zM279.001 656.002l-13 -42c-6.66699 -9.33301 -14 -23.333 -22 -42s-15.5 -38.5 -22.5 -59.5s-12.833 -41.5 -17.5 -61.5s-7 -36.333 -7 -49c0 -50.667 29.333 -76 88 -76h10c57.333 0 86 26 86 78
c0 58 -34 142 -102 252z" />
    <glyph glyph-name="FLW193" unicode="&#xc1;" horiz-adv-x="874" 
d="M49 696c6.66699 0 17.5049 -1.16797 32.5049 -3.50098s31.167 -5 48.5 -8l53 -9.5c18 -3.33301 33.333 -5.66602 46 -6.99902c34.667 -3.33301 67.667 -6.16602 99 -8.49902s61.333 -3.5 90 -3.5h48h49l58 2c19.333 0.666992 37.666 1 54.999 1c30 0 55.167 -2 75.5 -6
s29.5 -12.333 27.5 -25c-4 -6.66699 -10.5 -11 -19.5 -13s-19.5 -3 -31.5 -3h-24c-16.667 0 -34.834 0.833008 -54.501 2.5s-39.667 3.5 -60 5.5s-40.333 3.83301 -60 5.5s-38.167 2.5 -55.5 2.5h-96c-28 0 -53 0.166992 -75 0.5s-41.667 1.16602 -59 2.49902
c9.33301 -5.33301 17.166 -11.833 23.499 -19.5s10.5 -15.834 12.5 -24.501c2.66699 -12 4.5 -24.167 5.5 -36.5s2.83301 -24.333 5.5 -36s6.5 -22.834 11.5 -33.501s12.833 -20.334 23.5 -29.001c4.66699 -3.33301 13 -8.66602 25 -15.999l425 -32c84 -34 126 -80 126 -138
c0 -18.667 -4.66699 -39 -14 -61c-26 -64 -98 -116 -216 -156c-96 -32.667 -187.667 -49 -275 -49c-42.667 0 -84.667 14.667 -126 44c-11.333 8 -21.666 27 -30.999 57s-17.5 62.5 -24.5 97.5s-12.333 68.333 -16 100s-5.5 52.834 -5.5 63.501s2.16699 20.834 6.5 30.501
s9.16602 19 14.499 28s10.166 18.167 14.499 27.5s6.5 19.333 6.5 30c0 6 -0.833008 15.333 -2.5 28s-3.5 25.667 -5.5 39s-3.83301 26.333 -5.5 39s-2.5 22 -2.5 28v11c0 4 0.333008 7.66699 1 11c-54 6 -104.667 17.333 -152 34c-1.33301 0 1.16699 4.66699 7.5 14
s13.166 14 20.499 14zM567.005 394.999v1.00195c-10 1.33301 -24 2 -42 2h-68c-19.333 0 -41 -0.333008 -65 -1s-50.333 -2.33398 -79 -5.00098c-12.667 -1.33301 -22.334 -3.33301 -29.001 -6s-11.5 -5.66699 -14.5 -9s-4.66699 -6.16602 -5 -8.49902l-0.5 -3.5
c2 3.33301 2.16699 -0.333984 0.5 -11.001l-6.5 -41c-2.66699 -16.667 -5.33398 -34.334 -8.00098 -53.001s-4 -34.334 -4 -47.001c0 -4.66699 -0.333008 -8.66699 -1 -12s-0.333984 -5.66602 0.999023 -6.99902l13 -59c2 -9.33301 2 -15.833 0 -19.5
s-6 -6.83398 -12 -9.50098l-4 -1c-2 -0.666992 -1.16699 -3.5 2.5 -8.5s7.83398 -10.333 12.501 -16l12.5 -15c3.66699 -4.33301 4.83398 -6.16602 3.50098 -5.49902c44 -22.667 96.333 -34 157 -34c29.333 0 60.833 5.5 94.5 16.5s65.834 23.5 96.501 37.5
c78.667 36 128.667 77.667 150 125c8 18 12 34.667 12 50c0 40 -26 73 -78 99c-28.667 14 -75 27.667 -139 41z" />
    <glyph glyph-name="FLW193" unicode="&#x411;" horiz-adv-x="874" 
d="M49 696c6.66699 0 17.5049 -1.16797 32.5049 -3.50098s31.167 -5 48.5 -8l53 -9.5c18 -3.33301 33.333 -5.66602 46 -6.99902c34.667 -3.33301 67.667 -6.16602 99 -8.49902s61.333 -3.5 90 -3.5h48h49l58 2c19.333 0.666992 37.666 1 54.999 1c30 0 55.167 -2 75.5 -6
s29.5 -12.333 27.5 -25c-4 -6.66699 -10.5 -11 -19.5 -13s-19.5 -3 -31.5 -3h-24c-16.667 0 -34.834 0.833008 -54.501 2.5s-39.667 3.5 -60 5.5s-40.333 3.83301 -60 5.5s-38.167 2.5 -55.5 2.5h-96c-28 0 -53 0.166992 -75 0.5s-41.667 1.16602 -59 2.49902
c9.33301 -5.33301 17.166 -11.833 23.499 -19.5s10.5 -15.834 12.5 -24.501c2.66699 -12 4.5 -24.167 5.5 -36.5s2.83301 -24.333 5.5 -36s6.5 -22.834 11.5 -33.501s12.833 -20.334 23.5 -29.001c4.66699 -3.33301 13 -8.66602 25 -15.999l425 -32c84 -34 126 -80 126 -138
c0 -18.667 -4.66699 -39 -14 -61c-26 -64 -98 -116 -216 -156c-96 -32.667 -187.667 -49 -275 -49c-42.667 0 -84.667 14.667 -126 44c-11.333 8 -21.666 27 -30.999 57s-17.5 62.5 -24.5 97.5s-12.333 68.333 -16 100s-5.5 52.834 -5.5 63.501s2.16699 20.834 6.5 30.501
s9.16602 19 14.499 28s10.166 18.167 14.499 27.5s6.5 19.333 6.5 30c0 6 -0.833008 15.333 -2.5 28s-3.5 25.667 -5.5 39s-3.83301 26.333 -5.5 39s-2.5 22 -2.5 28v11c0 4 0.333008 7.66699 1 11c-54 6 -104.667 17.333 -152 34c-1.33301 0 1.16699 4.66699 7.5 14
s13.166 14 20.499 14zM567.005 394.999v1.00195c-10 1.33301 -24 2 -42 2h-68c-19.333 0 -41 -0.333008 -65 -1s-50.333 -2.33398 -79 -5.00098c-12.667 -1.33301 -22.334 -3.33301 -29.001 -6s-11.5 -5.66699 -14.5 -9s-4.66699 -6.16602 -5 -8.49902l-0.5 -3.5
c2 3.33301 2.16699 -0.333984 0.5 -11.001l-6.5 -41c-2.66699 -16.667 -5.33398 -34.334 -8.00098 -53.001s-4 -34.334 -4 -47.001c0 -4.66699 -0.333008 -8.66699 -1 -12s-0.333984 -5.66602 0.999023 -6.99902l13 -59c2 -9.33301 2 -15.833 0 -19.5
s-6 -6.83398 -12 -9.50098l-4 -1c-2 -0.666992 -1.16699 -3.5 2.5 -8.5s7.83398 -10.333 12.501 -16l12.5 -15c3.66699 -4.33301 4.83398 -6.16602 3.50098 -5.49902c44 -22.667 96.333 -34 157 -34c29.333 0 60.833 5.5 94.5 16.5s65.834 23.5 96.501 37.5
c78.667 36 128.667 77.667 150 125c8 18 12 34.667 12 50c0 40 -26 73 -78 99c-28.667 14 -75 27.667 -139 41z" />
    <glyph glyph-name="FLW194" unicode="&#xc2;" horiz-adv-x="874" 
d="M49 696c6.66699 0 17.498 -1.16309 32.498 -3.49609s31.167 -5 48.5 -8l53 -9.5c18 -3.33301 33.333 -5.66602 46 -6.99902c34.667 -3.33301 67.667 -6.16602 99 -8.49902s61.333 -3.5 90 -3.5h48h49c54.667 0 101.167 -4.5 139.5 -13.5s68.5 -23.167 90.5 -42.5
c-22 -30.667 -55.333 -57.334 -100 -80.001l-46.5 -22l-72.5 -34l202 -60c84 -34 126 -80 126 -138c0 -18.667 -4.66699 -39 -14 -61c-26 -64 -98 -116 -216 -156c-96 -32.667 -187.667 -49 -275 -49c-42.667 0 -84.667 14.667 -126 44c-44.667 32 -67 69.333 -67 112
c0 10.667 1.33301 27.667 4 51l8.5 74l8.5 74c2.66699 23.333 4 40.333 4 51c0 6 -0.833008 15.333 -2.5 28s-3.5 25.667 -5.5 39s-3.83301 26.333 -5.5 39s-2.5 22 -2.5 28c0 10 1 20 3 30c14 -6 26.167 -13.667 36.5 -23s17.166 -20 20.499 -32
c2.66699 -12 4.5 -24.167 5.5 -36.5s2.83301 -24.333 5.5 -36s6.5 -22.834 11.5 -33.501s12.833 -20.334 23.5 -29.001c2 -1.33301 5.33301 -10 10 -26l16 -52.5c6 -19 12.5 -37 19.5 -54s13.5 -26.833 19.5 -29.5c-22.667 -4 -36.667 -7.5 -42 -10.5s-8 -8.16699 -8 -15.5
v-21c0 -13.333 -1 -23.5 -3 -30.5s-4.66699 -12 -8 -15s-6.66602 -4.5 -9.99902 -4.5h-10l-15 2l-6 18c-1.33301 4 -3.16602 8 -5.49902 12s-5.83301 8.66699 -10.5 14l-20 23v-17c0 -49.333 25.333 -87 76 -113c44 -22.667 96.333 -34 157 -34
c29.333 0 60.833 5.5 94.5 16.5s65.834 23.5 96.501 37.5c78.667 36 128.667 77.667 150 125c8 18 12 34.667 12 50c0 40 -26 73 -78 99c-30 15.333 -76.333 29.333 -139 42l-116 25l-197 43c13.333 4.66699 33.666 10 60.999 16s55.833 11.667 85.5 17l83.5 15.5
c26 5 44 8.83301 54 11.5c26.667 7.33301 51.5 16.166 74.5 26.499s44.167 22.5 63.5 36.5c-56.667 27.333 -140 41 -250 41h-96c-33.333 0 -62.5 0.333008 -87.5 1s-46.167 2 -63.5 4c-27.333 3.33301 -54.166 7.66602 -80.499 12.999s-52.166 12.666 -77.499 21.999
c-1.33301 0 1.16699 4.66699 7.5 14s13.166 14 20.499 14z" />
    <glyph glyph-name="FLW194" unicode="&#x412;" horiz-adv-x="874" 
d="M49 696c6.66699 0 17.498 -1.16309 32.498 -3.49609s31.167 -5 48.5 -8l53 -9.5c18 -3.33301 33.333 -5.66602 46 -6.99902c34.667 -3.33301 67.667 -6.16602 99 -8.49902s61.333 -3.5 90 -3.5h48h49c54.667 0 101.167 -4.5 139.5 -13.5s68.5 -23.167 90.5 -42.5
c-22 -30.667 -55.333 -57.334 -100 -80.001l-46.5 -22l-72.5 -34l202 -60c84 -34 126 -80 126 -138c0 -18.667 -4.66699 -39 -14 -61c-26 -64 -98 -116 -216 -156c-96 -32.667 -187.667 -49 -275 -49c-42.667 0 -84.667 14.667 -126 44c-44.667 32 -67 69.333 -67 112
c0 10.667 1.33301 27.667 4 51l8.5 74l8.5 74c2.66699 23.333 4 40.333 4 51c0 6 -0.833008 15.333 -2.5 28s-3.5 25.667 -5.5 39s-3.83301 26.333 -5.5 39s-2.5 22 -2.5 28c0 10 1 20 3 30c14 -6 26.167 -13.667 36.5 -23s17.166 -20 20.499 -32
c2.66699 -12 4.5 -24.167 5.5 -36.5s2.83301 -24.333 5.5 -36s6.5 -22.834 11.5 -33.501s12.833 -20.334 23.5 -29.001c2 -1.33301 5.33301 -10 10 -26l16 -52.5c6 -19 12.5 -37 19.5 -54s13.5 -26.833 19.5 -29.5c-22.667 -4 -36.667 -7.5 -42 -10.5s-8 -8.16699 -8 -15.5
v-21c0 -13.333 -1 -23.5 -3 -30.5s-4.66699 -12 -8 -15s-6.66602 -4.5 -9.99902 -4.5h-10l-15 2l-6 18c-1.33301 4 -3.16602 8 -5.49902 12s-5.83301 8.66699 -10.5 14l-20 23v-17c0 -49.333 25.333 -87 76 -113c44 -22.667 96.333 -34 157 -34
c29.333 0 60.833 5.5 94.5 16.5s65.834 23.5 96.501 37.5c78.667 36 128.667 77.667 150 125c8 18 12 34.667 12 50c0 40 -26 73 -78 99c-30 15.333 -76.333 29.333 -139 42l-116 25l-197 43c13.333 4.66699 33.666 10 60.999 16s55.833 11.667 85.5 17l83.5 15.5
c26 5 44 8.83301 54 11.5c26.667 7.33301 51.5 16.166 74.5 26.499s44.167 22.5 63.5 36.5c-56.667 27.333 -140 41 -250 41h-96c-33.333 0 -62.5 0.333008 -87.5 1s-46.167 2 -63.5 4c-27.333 3.33301 -54.166 7.66602 -80.499 12.999s-52.166 12.666 -77.499 21.999
c-1.33301 0 1.16699 4.66699 7.5 14s13.166 14 20.499 14z" />
    <glyph glyph-name="FLW195" unicode="&#xc3;" horiz-adv-x="766" 
d="M231 -4c-3.33301 9.33301 -7.50391 20.3369 -12.5039 33.0039s-10.667 25.5 -17 38.5s-12.666 25 -18.999 36s-12.166 19.167 -17.499 24.5c4.66699 26.667 10.667 55.167 18 85.5s11 60.833 11 91.5c0 12.667 -0.666992 31.667 -2 57s-3 52.166 -5 80.499
s-3.66699 55.166 -5 80.499s-2 44.333 -2 57c0 9.33301 0.166992 18.333 0.5 27s0.833008 17.334 1.5 26.001c-26 0 -53.167 3.66699 -81.5 11s-54.833 15.333 -79.5 24c-1.33301 0 1.16699 1.16699 7.5 3.5s12.833 3.5 19.5 3.5s17.5 -0.166992 32.5 -0.5
s31.333 -0.666016 49 -0.999023s35.5 -1 53.5 -2s33.333 -2.16699 46 -3.5c34.667 -3.33301 67.667 -6.16602 99 -8.49902s61.333 -3.5 90 -3.5h48h49c15.333 0.666992 30.833 1.16699 46.5 1.5s31.167 0.5 46.5 0.5c20 0 39 -0.666992 57 -2s33.333 -4 46 -8
s22 -9.5 28 -16.5s7 -16.5 3 -28.5c-9.33301 -11.333 -26.333 -17 -51 -17c-17.333 0 -37.166 2.16699 -59.499 6.5s-45.333 9.16602 -69 14.499s-47.334 10.166 -71.001 14.499s-45.5 6.5 -65.5 6.5h-96c-19.333 0 -35 -0.166992 -47 -0.5s-23 -0.5 -33 -0.5h-15.5
c-5 0 -10.167 0.333008 -15.5 1c3.33301 -18.667 6 -34.334 8 -47.001s4 -29.667 6 -51c2.66699 -24 4.5 -48.833 5.5 -74.5s2.5 -50.834 4.5 -75.501s5.33301 -48.167 10 -70.5s12 -42.166 22 -59.499c1.33301 -2.66699 2.33301 -4.33398 3 -5.00098s1.33398 -2 2.00098 -4
s1.33398 -5.5 2.00098 -10.5s2 -13.167 4 -24.5l-9 -34.5c-3.33301 -13 -5 -23.833 -5 -32.5v-43c0 -28 -1 -49 -3 -63s-4.5 -23.833 -7.5 -29.5s-6.16699 -8.33398 -9.5 -8.00098s-6.33301 0.5 -9 0.5h-12zM744.996 600.004l-0.999023 2
c2.66699 -2.66699 3.16699 -4 1.5 -4s-1.83398 0.666992 -0.500977 2z" />
    <glyph glyph-name="FLW195" unicode="&#x413;" horiz-adv-x="766" 
d="M231 -4c-3.33301 9.33301 -7.50391 20.3369 -12.5039 33.0039s-10.667 25.5 -17 38.5s-12.666 25 -18.999 36s-12.166 19.167 -17.499 24.5c4.66699 26.667 10.667 55.167 18 85.5s11 60.833 11 91.5c0 12.667 -0.666992 31.667 -2 57s-3 52.166 -5 80.499
s-3.66699 55.166 -5 80.499s-2 44.333 -2 57c0 9.33301 0.166992 18.333 0.5 27s0.833008 17.334 1.5 26.001c-26 0 -53.167 3.66699 -81.5 11s-54.833 15.333 -79.5 24c-1.33301 0 1.16699 1.16699 7.5 3.5s12.833 3.5 19.5 3.5s17.5 -0.166992 32.5 -0.5
s31.333 -0.666016 49 -0.999023s35.5 -1 53.5 -2s33.333 -2.16699 46 -3.5c34.667 -3.33301 67.667 -6.16602 99 -8.49902s61.333 -3.5 90 -3.5h48h49c15.333 0.666992 30.833 1.16699 46.5 1.5s31.167 0.5 46.5 0.5c20 0 39 -0.666992 57 -2s33.333 -4 46 -8
s22 -9.5 28 -16.5s7 -16.5 3 -28.5c-9.33301 -11.333 -26.333 -17 -51 -17c-17.333 0 -37.166 2.16699 -59.499 6.5s-45.333 9.16602 -69 14.499s-47.334 10.166 -71.001 14.499s-45.5 6.5 -65.5 6.5h-96c-19.333 0 -35 -0.166992 -47 -0.5s-23 -0.5 -33 -0.5h-15.5
c-5 0 -10.167 0.333008 -15.5 1c3.33301 -18.667 6 -34.334 8 -47.001s4 -29.667 6 -51c2.66699 -24 4.5 -48.833 5.5 -74.5s2.5 -50.834 4.5 -75.501s5.33301 -48.167 10 -70.5s12 -42.166 22 -59.499c1.33301 -2.66699 2.33301 -4.33398 3 -5.00098s1.33398 -2 2.00098 -4
s1.33398 -5.5 2.00098 -10.5s2 -13.167 4 -24.5l-9 -34.5c-3.33301 -13 -5 -23.833 -5 -32.5v-43c0 -28 -1 -49 -3 -63s-4.5 -23.833 -7.5 -29.5s-6.16699 -8.33398 -9.5 -8.00098s-6.33301 0.5 -9 0.5h-12zM744.996 600.004l-0.999023 2
c2.66699 -2.66699 3.16699 -4 1.5 -4s-1.83398 0.666992 -0.500977 2z" />
    <glyph glyph-name="FLW196" unicode="&#xc4;" horiz-adv-x="892" 
d="M55 468l15.9951 22.0068c3.33301 4.66699 8.83301 10.834 16.5 18.501s16 15 25 22s17.833 13 26.5 18s16 7.5 22 7.5h76l143 -37c52 -13.333 97 -30.333 135 -51s72 -35.667 102 -45c23.333 -7.33301 46 -13 68 -17s42.667 -8.33301 62 -13s37.333 -10.334 54 -17.001
s31.334 -16.334 44.001 -29.001c14.667 -14.667 22.667 -29.5 24 -44.5s2 -29.833 2 -44.5c0 -16 -4.33301 -30.5 -13 -43.5s-19.834 -24.833 -33.501 -35.5s-29.167 -20 -46.5 -28s-34.666 -14.667 -51.999 -20l-126 -38.5l-176 -51.5c-78 -22.667 -151 -34 -219 -34
c-32.667 0 -65.334 2.83301 -98.001 8.5s-61.667 14.5 -87 26.5l296 32l-26 72c-10.667 28.667 -20.667 62.667 -30 102l-14.5 67c-4.33301 20 -6.5 39.667 -6.5 59c0 18.667 1.5 37.667 4.5 57s8.16699 37.333 15.5 54c13.333 -8 24.833 -18.5 34.5 -31.5
s14.834 -27.167 15.501 -42.5l5 -104c1.33301 -25.333 5.83301 -53.333 13.5 -84s19.834 -64.667 36.501 -102c6.66699 -14 18 -24 34 -30s32.333 -9 49 -9c38 0 87.667 11 149 33c27.333 9.33301 53.833 19.666 79.5 30.999s50.167 23.666 73.5 36.999
c22 12 40 24.667 54 38s21 27 21 41c0 11.333 -2.5 20.166 -7.5 26.499s-12.167 12.166 -21.5 17.499s-21 11 -35 17s-30 14.333 -48 25c-50.667 31.333 -110 56.666 -178 75.999c-61.333 17.333 -112.333 32.333 -153 45s-71.667 23.334 -93 32.001c-10.667 4 -21 6 -31 6
c-19.333 0 -34.666 -3.66699 -45.999 -11s-21.5 -15.333 -30.5 -24s-18.167 -16.667 -27.5 -24s-21.666 -11 -36.999 -11h-18.5c-7 0 -13.667 0.666992 -20 2s-11.666 4.16602 -15.999 8.49902s-6.5 11.166 -6.5 20.499z" />
    <glyph glyph-name="FLW196" unicode="&#x414;" horiz-adv-x="892" 
d="M55 468l15.9951 22.0068c3.33301 4.66699 8.83301 10.834 16.5 18.501s16 15 25 22s17.833 13 26.5 18s16 7.5 22 7.5h76l143 -37c52 -13.333 97 -30.333 135 -51s72 -35.667 102 -45c23.333 -7.33301 46 -13 68 -17s42.667 -8.33301 62 -13s37.333 -10.334 54 -17.001
s31.334 -16.334 44.001 -29.001c14.667 -14.667 22.667 -29.5 24 -44.5s2 -29.833 2 -44.5c0 -16 -4.33301 -30.5 -13 -43.5s-19.834 -24.833 -33.501 -35.5s-29.167 -20 -46.5 -28s-34.666 -14.667 -51.999 -20l-126 -38.5l-176 -51.5c-78 -22.667 -151 -34 -219 -34
c-32.667 0 -65.334 2.83301 -98.001 8.5s-61.667 14.5 -87 26.5l296 32l-26 72c-10.667 28.667 -20.667 62.667 -30 102l-14.5 67c-4.33301 20 -6.5 39.667 -6.5 59c0 18.667 1.5 37.667 4.5 57s8.16699 37.333 15.5 54c13.333 -8 24.833 -18.5 34.5 -31.5
s14.834 -27.167 15.501 -42.5l5 -104c1.33301 -25.333 5.83301 -53.333 13.5 -84s19.834 -64.667 36.501 -102c6.66699 -14 18 -24 34 -30s32.333 -9 49 -9c38 0 87.667 11 149 33c27.333 9.33301 53.833 19.666 79.5 30.999s50.167 23.666 73.5 36.999
c22 12 40 24.667 54 38s21 27 21 41c0 11.333 -2.5 20.166 -7.5 26.499s-12.167 12.166 -21.5 17.499s-21 11 -35 17s-30 14.333 -48 25c-50.667 31.333 -110 56.666 -178 75.999c-61.333 17.333 -112.333 32.333 -153 45s-71.667 23.334 -93 32.001c-10.667 4 -21 6 -31 6
c-19.333 0 -34.666 -3.66699 -45.999 -11s-21.5 -15.333 -30.5 -24s-18.167 -16.667 -27.5 -24s-21.666 -11 -36.999 -11h-18.5c-7 0 -13.667 0.666992 -20 2s-11.666 4.16602 -15.999 8.49902s-6.5 11.166 -6.5 20.499z" />
    <glyph glyph-name="FLW197" unicode="&#xc5;" horiz-adv-x="685" 
d="M583 43l-42.001 -29.002c-8 -5.33301 -19.667 -10 -35 -14s-32.333 -7.33301 -51 -10s-38.167 -4.66699 -58.5 -6s-38.833 -2 -55.5 -2c-44 0 -88.167 3.66699 -132.5 11s-83.5 18.333 -117.5 33c-18.667 8 -31.667 16 -39 24s-11 17.333 -11 28c0 8 1.5 20 4.5 36
s4.5 28 4.5 36c0 13.333 -0.833008 34 -2.5 62l-5 88l-5 88c-1.66699 28 -2.5 48.667 -2.5 62c0 2 -0.833008 10.5 -2.5 25.5s-3.33398 32 -5.00098 51l-5 56c-1.66699 18.333 -2.5 31.5 -2.5 39.5c0 61.333 19 95 57 101c38 6.66699 80.667 10 128 10
c183.333 0 336.666 -44.333 459.999 -133c-14 0 -27.5 1.16699 -40.5 3.5s-26.167 5.83301 -39.5 10.5c-40.667 14.667 -71.667 25.334 -93 32.001s-32.333 10 -33 10c-11.333 1.33301 -27 3.33301 -47 6l-61.5 8.5c-21 3 -40.5 5.66699 -58.5 8s-30.333 3.5 -37 3.5
c-59.333 0 -98.666 -3.33301 -117.999 -10c-36 -13.333 -54 -43.333 -54 -90c0 -7.33301 0.5 -17.5 1.5 -30.5s3.16699 -28.833 6.5 -47.5c1.33301 -10.667 3.33301 -24.5 6 -41.5l9 -58.5c3.33301 -9.33301 14 -17.166 32 -23.499s38.833 -11.833 62.5 -16.5
s48 -8.66699 73 -12s46.167 -6.33301 63.5 -9l172 -51.5c40.667 -11.667 65.334 -18.167 74.001 -19.5c-6 -2 -12.667 -3.66699 -20 -5s-15.333 -2 -24 -2c-23.333 0 -49.666 3.66699 -78.999 11l-97 24l-50.5 11.5l-59 13.5l-62 14c-21 4.66699 -40.833 9.66699 -59.5 15
c-14 -58 -21 -108.667 -21 -152c0 -104 38.667 -162.667 116 -176c48 -8 103 -12 165 -12c29.333 0 60 3.83301 92 11.5s65 13.5 99 17.5z" />
    <glyph glyph-name="FLW197" unicode="&#x415;" horiz-adv-x="685" 
d="M583 43l-42.001 -29.002c-8 -5.33301 -19.667 -10 -35 -14s-32.333 -7.33301 -51 -10s-38.167 -4.66699 -58.5 -6s-38.833 -2 -55.5 -2c-44 0 -88.167 3.66699 -132.5 11s-83.5 18.333 -117.5 33c-18.667 8 -31.667 16 -39 24s-11 17.333 -11 28c0 8 1.5 20 4.5 36
s4.5 28 4.5 36c0 13.333 -0.833008 34 -2.5 62l-5 88l-5 88c-1.66699 28 -2.5 48.667 -2.5 62c0 2 -0.833008 10.5 -2.5 25.5s-3.33398 32 -5.00098 51l-5 56c-1.66699 18.333 -2.5 31.5 -2.5 39.5c0 61.333 19 95 57 101c38 6.66699 80.667 10 128 10
c183.333 0 336.666 -44.333 459.999 -133c-14 0 -27.5 1.16699 -40.5 3.5s-26.167 5.83301 -39.5 10.5c-40.667 14.667 -71.667 25.334 -93 32.001s-32.333 10 -33 10c-11.333 1.33301 -27 3.33301 -47 6l-61.5 8.5c-21 3 -40.5 5.66699 -58.5 8s-30.333 3.5 -37 3.5
c-59.333 0 -98.666 -3.33301 -117.999 -10c-36 -13.333 -54 -43.333 -54 -90c0 -7.33301 0.5 -17.5 1.5 -30.5s3.16699 -28.833 6.5 -47.5c1.33301 -10.667 3.33301 -24.5 6 -41.5l9 -58.5c3.33301 -9.33301 14 -17.166 32 -23.499s38.833 -11.833 62.5 -16.5
s48 -8.66699 73 -12s46.167 -6.33301 63.5 -9l172 -51.5c40.667 -11.667 65.334 -18.167 74.001 -19.5c-6 -2 -12.667 -3.66699 -20 -5s-15.333 -2 -24 -2c-23.333 0 -49.666 3.66699 -78.999 11l-97 24l-50.5 11.5l-59 13.5l-62 14c-21 4.66699 -40.833 9.66699 -59.5 15
c-14 -58 -21 -108.667 -21 -152c0 -104 38.667 -162.667 116 -176c48 -8 103 -12 165 -12c29.333 0 60 3.83301 92 11.5s65 13.5 99 17.5z" />
    <glyph glyph-name="FLW198" unicode="&#xc6;" horiz-adv-x="902" 
d="M401 547c4 9.33301 7.99902 23.001 11.999 41.001s6.33301 36.667 7 56c0.666992 14.667 0.666992 28 0 40s-0.333984 20 0.999023 24l1 41c0.666992 22 2.66699 39.167 6 51.5s9.66602 18.5 18.999 18.5c14 0 22.833 -5.5 26.5 -16.5s5.16699 -26.5 4.5 -46.5v-43l1 -20
c0.666992 -8.66699 1.66699 -20.334 3 -35.001s3 -29.167 5 -43.5s4.33301 -27.5 7 -39.5s5 -20 7 -24c18 -31.333 40.5 -55.5 67.5 -72.5s57.5 -25.5 91.5 -25.5c51.333 0 94.666 14.333 129.999 43c40.667 32.667 61 77.667 61 135l16.5 -23.5
c5 -7 9.83301 -12.5 14.5 -16.5c-34 -72.667 -89.333 -125 -166 -157c-11.333 -5.33301 -25.5 -10.666 -42.5 -15.999l-58.5 -19c8 -14.667 16.333 -27 25 -37s18 -19.333 28 -28l32 -26.5l38 -31.5l37.5 -48c10.333 -13.333 17.833 -23.333 22.5 -30
c45.333 -63.333 68 -125 68 -185c0 -8 -0.5 -16.167 -1.5 -24.5s-2.16699 -16.833 -3.5 -25.5c-2.66699 6.66699 -6.5 17.834 -11.5 33.501l-16 49c-5.66699 17 -11.5 33.167 -17.5 48.5s-11.333 25.666 -16 30.999c-46 57.333 -93.167 108.833 -141.5 154.5
s-101.833 84.834 -160.5 117.501c-6 0 -9.66699 -1.83301 -11 -5.5s-2.33301 -5.83398 -3 -6.50098c0.666992 -28.667 1.5 -54 2.5 -76s2.16699 -42.667 3.5 -62c3.33301 -44 6.16602 -78 8.49902 -102s3.5 -38 3.5 -42c0 -7.33301 0.166992 -14.666 0.5 -21.999
s0.5 -14.333 0.5 -21c0 -16 -1.33301 -28 -4 -36l-8 -25c-4 -2.66699 -6.83301 -4.83398 -8.5 -6.50098s-3.5 -2.83398 -5.5 -3.50098s-4.83301 -1 -8.5 -1h-17.5c-13.333 0 -22.5 1.33301 -27.5 4l-14.5 8l-5 31c-1.33301 11.333 -2.16602 23 -2.49902 35
s-0.5 25.667 -0.5 41c0 4 1 16.833 3 38.5s4 47 6 76l6 90.5c2 31.333 3 59 3 83c-117.333 -65.333 -222.666 -156.666 -315.999 -273.999c-4.66699 -5.33301 -10 -15.666 -16 -30.999s-12 -31.5 -18 -48.5s-11.5 -33.333 -16.5 -49s-8.83301 -26.834 -11.5 -33.501
c-0.666992 8.66699 -1.5 17.167 -2.5 25.5s-1.5 16.5 -1.5 24.5c0 30 6.5 59.167 19.5 87.5s29.167 60.833 48.5 97.5l22 30c10 13.333 22.667 29.333 38 48l38 31.5c11.333 9 21.833 17.833 31.5 26.5s18.834 18 27.501 28s17 22.333 25 37
c-11.333 3.33301 -25 13.333 -41 30s-31.667 34.667 -47 54s-29.166 37.833 -41.499 55.5s-20.5 29.167 -24.5 34.5c-23.333 34 -43.666 65.833 -60.999 95.5s-34.666 62.5 -51.999 98.5c8.66699 8.66699 19 22 31 40c7.33301 -28.667 15.666 -53 24.999 -73
s21.333 -40.667 36 -62c13.333 -19.333 26.333 -36.333 39 -51l44 -51c4.66699 -5.33301 12.667 -13.666 24 -24.999l35.5 -34.5c12.333 -11.667 24.333 -21.834 36 -30.501s20.5 -13 26.5 -13c22.667 0 40.5 9.16699 53.5 27.5s23.167 37.166 30.5 56.499z" />
    <glyph glyph-name="FLW198" unicode="&#x416;" horiz-adv-x="902" 
d="M401 547c4 9.33301 7.99902 23.001 11.999 41.001s6.33301 36.667 7 56c0.666992 14.667 0.666992 28 0 40s-0.333984 20 0.999023 24l1 41c0.666992 22 2.66699 39.167 6 51.5s9.66602 18.5 18.999 18.5c14 0 22.833 -5.5 26.5 -16.5s5.16699 -26.5 4.5 -46.5v-43l1 -20
c0.666992 -8.66699 1.66699 -20.334 3 -35.001s3 -29.167 5 -43.5s4.33301 -27.5 7 -39.5s5 -20 7 -24c18 -31.333 40.5 -55.5 67.5 -72.5s57.5 -25.5 91.5 -25.5c51.333 0 94.666 14.333 129.999 43c40.667 32.667 61 77.667 61 135l16.5 -23.5
c5 -7 9.83301 -12.5 14.5 -16.5c-34 -72.667 -89.333 -125 -166 -157c-11.333 -5.33301 -25.5 -10.666 -42.5 -15.999l-58.5 -19c8 -14.667 16.333 -27 25 -37s18 -19.333 28 -28l32 -26.5l38 -31.5l37.5 -48c10.333 -13.333 17.833 -23.333 22.5 -30
c45.333 -63.333 68 -125 68 -185c0 -8 -0.5 -16.167 -1.5 -24.5s-2.16699 -16.833 -3.5 -25.5c-2.66699 6.66699 -6.5 17.834 -11.5 33.501l-16 49c-5.66699 17 -11.5 33.167 -17.5 48.5s-11.333 25.666 -16 30.999c-46 57.333 -93.167 108.833 -141.5 154.5
s-101.833 84.834 -160.5 117.501c-6 0 -9.66699 -1.83301 -11 -5.5s-2.33301 -5.83398 -3 -6.50098c0.666992 -28.667 1.5 -54 2.5 -76s2.16699 -42.667 3.5 -62c3.33301 -44 6.16602 -78 8.49902 -102s3.5 -38 3.5 -42c0 -7.33301 0.166992 -14.666 0.5 -21.999
s0.5 -14.333 0.5 -21c0 -16 -1.33301 -28 -4 -36l-8 -25c-4 -2.66699 -6.83301 -4.83398 -8.5 -6.50098s-3.5 -2.83398 -5.5 -3.50098s-4.83301 -1 -8.5 -1h-17.5c-13.333 0 -22.5 1.33301 -27.5 4l-14.5 8l-5 31c-1.33301 11.333 -2.16602 23 -2.49902 35
s-0.5 25.667 -0.5 41c0 4 1 16.833 3 38.5s4 47 6 76l6 90.5c2 31.333 3 59 3 83c-117.333 -65.333 -222.666 -156.666 -315.999 -273.999c-4.66699 -5.33301 -10 -15.666 -16 -30.999s-12 -31.5 -18 -48.5s-11.5 -33.333 -16.5 -49s-8.83301 -26.834 -11.5 -33.501
c-0.666992 8.66699 -1.5 17.167 -2.5 25.5s-1.5 16.5 -1.5 24.5c0 30 6.5 59.167 19.5 87.5s29.167 60.833 48.5 97.5l22 30c10 13.333 22.667 29.333 38 48l38 31.5c11.333 9 21.833 17.833 31.5 26.5s18.834 18 27.501 28s17 22.333 25 37
c-11.333 3.33301 -25 13.333 -41 30s-31.667 34.667 -47 54s-29.166 37.833 -41.499 55.5s-20.5 29.167 -24.5 34.5c-23.333 34 -43.666 65.833 -60.999 95.5s-34.666 62.5 -51.999 98.5c8.66699 8.66699 19 22 31 40c7.33301 -28.667 15.666 -53 24.999 -73
s21.333 -40.667 36 -62c13.333 -19.333 26.333 -36.333 39 -51l44 -51c4.66699 -5.33301 12.667 -13.666 24 -24.999l35.5 -34.5c12.333 -11.667 24.333 -21.834 36 -30.501s20.5 -13 26.5 -13c22.667 0 40.5 9.16699 53.5 27.5s23.167 37.166 30.5 56.499z" />
    <glyph glyph-name="FLW199" unicode="&#xc7;" horiz-adv-x="604" 
d="M77 531l47.9922 47.9961c6.66699 3.33301 16 5 28 5c13.333 0 26 -2.66699 38 -8c12 -6 22 -10.833 30 -14.5s16 -7 24 -10s16.833 -6.5 26.5 -10.5l37.5 -16l139 -63c0 -16 -5.16699 -28.5 -15.5 -37.5s-22.166 -16.167 -35.499 -21.5s-26.166 -10.166 -38.499 -14.499
s-20.5 -9.83301 -24.5 -16.5c33.333 -9.33301 62.333 -18 87 -26l61 -20c34 -12 59.5 -24.667 76.5 -38s25.5 -29.333 25.5 -48c0 -18 -9 -36.5 -27 -55.5s-40 -37.167 -66 -54.5s-53.5 -33.333 -82.5 -48s-54.5 -26.667 -76.5 -36c-76.667 -30.667 -145 -46 -205 -46
c-11.333 0 -23.333 2.16699 -36 6.5s-24.167 10.333 -34.5 18s-19 16.834 -26 27.501s-10.5 22.667 -10.5 36c0 6.66699 3.16699 14.334 9.5 23.001s13.5 16.334 21.5 23.001s15.5 11.167 22.5 13.5s10.833 0.833008 11.5 -4.5
c4.66699 -33.333 12.334 -59.166 23.001 -77.499s31.334 -27.5 62.001 -27.5c26 0 60.333 7.66699 103 23c38.667 12.667 73 27.667 103 45s56.667 34.666 80 51.999c18.667 14 33.667 26.833 45 38.5s17 23.834 17 36.501c0 11.333 -3.83301 20.833 -11.5 28.5
s-17.667 13.667 -30 18s-26.5 7.5 -42.5 9.5s-32.333 3 -49 3c-4.66699 0 -17 -0.833008 -37 -2.5s-41.833 -3.66699 -65.5 -6s-47 -4.33301 -70 -6s-39.833 -2.5 -50.5 -2.5c-28 0 -49.333 3.33301 -64 10s-16 15.334 -4 26.001c10 9.33301 19.833 16.166 29.5 20.499
s19.167 7.66602 28.5 9.99902s18.5 4.33301 27.5 6s17.833 3.83398 26.5 6.50098c9.33301 3.33301 21.333 8 36 14s28.834 13 42.501 21s25.5 16.667 35.5 26s15 18.666 15 27.999c0 6 -6.33301 12.833 -19 20.5s-27.5 14.667 -44.5 21s-33.833 11.833 -50.5 16.5
s-29 7 -37 7c-15.333 0 -29.666 -3.83301 -42.999 -11.5s-25.166 -16.167 -35.499 -25.5s-18.666 -17.833 -24.999 -25.5s-10.5 -11.5 -12.5 -11.5c-14.667 0 -22 7 -22 21c0 12 3.33301 25.833 10 41.5s13.667 27.167 21 34.5z" />
    <glyph glyph-name="FLW199" unicode="&#x417;" horiz-adv-x="604" 
d="M77 531l47.9922 47.9961c6.66699 3.33301 16 5 28 5c13.333 0 26 -2.66699 38 -8c12 -6 22 -10.833 30 -14.5s16 -7 24 -10s16.833 -6.5 26.5 -10.5l37.5 -16l139 -63c0 -16 -5.16699 -28.5 -15.5 -37.5s-22.166 -16.167 -35.499 -21.5s-26.166 -10.166 -38.499 -14.499
s-20.5 -9.83301 -24.5 -16.5c33.333 -9.33301 62.333 -18 87 -26l61 -20c34 -12 59.5 -24.667 76.5 -38s25.5 -29.333 25.5 -48c0 -18 -9 -36.5 -27 -55.5s-40 -37.167 -66 -54.5s-53.5 -33.333 -82.5 -48s-54.5 -26.667 -76.5 -36c-76.667 -30.667 -145 -46 -205 -46
c-11.333 0 -23.333 2.16699 -36 6.5s-24.167 10.333 -34.5 18s-19 16.834 -26 27.501s-10.5 22.667 -10.5 36c0 6.66699 3.16699 14.334 9.5 23.001s13.5 16.334 21.5 23.001s15.5 11.167 22.5 13.5s10.833 0.833008 11.5 -4.5
c4.66699 -33.333 12.334 -59.166 23.001 -77.499s31.334 -27.5 62.001 -27.5c26 0 60.333 7.66699 103 23c38.667 12.667 73 27.667 103 45s56.667 34.666 80 51.999c18.667 14 33.667 26.833 45 38.5s17 23.834 17 36.501c0 11.333 -3.83301 20.833 -11.5 28.5
s-17.667 13.667 -30 18s-26.5 7.5 -42.5 9.5s-32.333 3 -49 3c-4.66699 0 -17 -0.833008 -37 -2.5s-41.833 -3.66699 -65.5 -6s-47 -4.33301 -70 -6s-39.833 -2.5 -50.5 -2.5c-28 0 -49.333 3.33301 -64 10s-16 15.334 -4 26.001c10 9.33301 19.833 16.166 29.5 20.499
s19.167 7.66602 28.5 9.99902s18.5 4.33301 27.5 6s17.833 3.83398 26.5 6.50098c9.33301 3.33301 21.333 8 36 14s28.834 13 42.501 21s25.5 16.667 35.5 26s15 18.666 15 27.999c0 6 -6.33301 12.833 -19 20.5s-27.5 14.667 -44.5 21s-33.833 11.833 -50.5 16.5
s-29 7 -37 7c-15.333 0 -29.666 -3.83301 -42.999 -11.5s-25.166 -16.167 -35.499 -25.5s-18.666 -17.833 -24.999 -25.5s-10.5 -11.5 -12.5 -11.5c-14.667 0 -22 7 -22 21c0 12 3.33301 25.833 10 41.5s13.667 27.167 21 34.5z" />
    <glyph glyph-name="FLW200" unicode="&#xc8;" horiz-adv-x="723" 
d="M20 54c0 54 4.99609 117.334 14.9961 190.001c3.33301 23.333 6.33301 50.833 9 82.5s8.33398 69.834 17.001 114.501c2.66699 12.667 4.33398 28 5.00098 46s1 45.667 1 83c0 21.333 6.33301 37.666 19 48.999s27.334 18.666 44.001 21.999c0 -30 -3 -65 -9 -105
c-6 -45.333 -10.667 -82 -14 -110s-5 -47.333 -5 -58c0 -15.333 -0.5 -31.166 -1.5 -47.499s-2.16699 -33.166 -3.5 -50.499c-8 -86.667 -12 -138 -12 -154c0 -20.667 1.5 -42.334 4.5 -65.001s7.16699 -44.334 12.5 -65.001c63.333 11.333 124.333 45.666 183 102.999
c61.333 61.333 92 121.666 92 180.999c0 6.66699 -0.666992 17.5 -2 32.5s-2 26.167 -2 33.5c0 65.333 12 124 36 176c27.333 59.333 66 98 116 116c6.66699 -28.667 10 -58 10 -88c0 -16.667 -1.83301 -34.5 -5.5 -53.5s-7.16699 -40.5 -10.5 -64.5
c0 2.66699 -2.33301 -2.66602 -7 -15.999s-9.66699 -29.666 -15 -48.999s-10.333 -39.833 -15 -61.5s-7 -39.5 -7 -53.5c0 -17.333 3.83301 -34.333 11.5 -51s19.834 -30.334 36.501 -41.001c11.333 -7.33301 26 -15.833 44 -25.5s36 -20.667 54 -33
s34.667 -26.166 50 -41.499s26 -32 32 -50c-46 0 -112 32 -198 96c-3.33301 2 -13.5 9.83301 -30.5 23.5l-72.5 57.5c-34.667 -42.667 -80 -87.667 -136 -135c-75.333 -63.333 -134.333 -95 -177 -95c-46 0 -69 35.667 -69 107zM429.996 286.001
c51.333 48 77 114.668 77 200.001c0 20.667 -2.66699 45 -8 73c-56 -34 -84 -88.333 -84 -163c0 -28.667 5 -65.334 15 -110.001z" />
    <glyph glyph-name="FLW200" unicode="&#x418;" horiz-adv-x="723" 
d="M20 54c0 54 4.99609 117.334 14.9961 190.001c3.33301 23.333 6.33301 50.833 9 82.5s8.33398 69.834 17.001 114.501c2.66699 12.667 4.33398 28 5.00098 46s1 45.667 1 83c0 21.333 6.33301 37.666 19 48.999s27.334 18.666 44.001 21.999c0 -30 -3 -65 -9 -105
c-6 -45.333 -10.667 -82 -14 -110s-5 -47.333 -5 -58c0 -15.333 -0.5 -31.166 -1.5 -47.499s-2.16699 -33.166 -3.5 -50.499c-8 -86.667 -12 -138 -12 -154c0 -20.667 1.5 -42.334 4.5 -65.001s7.16699 -44.334 12.5 -65.001c63.333 11.333 124.333 45.666 183 102.999
c61.333 61.333 92 121.666 92 180.999c0 6.66699 -0.666992 17.5 -2 32.5s-2 26.167 -2 33.5c0 65.333 12 124 36 176c27.333 59.333 66 98 116 116c6.66699 -28.667 10 -58 10 -88c0 -16.667 -1.83301 -34.5 -5.5 -53.5s-7.16699 -40.5 -10.5 -64.5
c0 2.66699 -2.33301 -2.66602 -7 -15.999s-9.66699 -29.666 -15 -48.999s-10.333 -39.833 -15 -61.5s-7 -39.5 -7 -53.5c0 -17.333 3.83301 -34.333 11.5 -51s19.834 -30.334 36.501 -41.001c11.333 -7.33301 26 -15.833 44 -25.5s36 -20.667 54 -33
s34.667 -26.166 50 -41.499s26 -32 32 -50c-46 0 -112 32 -198 96c-3.33301 2 -13.5 9.83301 -30.5 23.5l-72.5 57.5c-34.667 -42.667 -80 -87.667 -136 -135c-75.333 -63.333 -134.333 -95 -177 -95c-46 0 -69 35.667 -69 107zM429.996 286.001
c51.333 48 77 114.668 77 200.001c0 20.667 -2.66699 45 -8 73c-56 -34 -84 -88.333 -84 -163c0 -28.667 5 -65.334 15 -110.001z" />
    <glyph glyph-name="FLW201" unicode="&#xc9;" horiz-adv-x="723" 
d="M20 54c0 54 4.99805 117.332 14.998 189.999l11.5 80c4.33301 30 9.16602 67.667 14.499 113c0.666992 8 1.83398 22.833 3.50098 44.5s2.5 51.167 2.5 88.5c0 20.667 6.33301 36.834 19 48.501s27.334 19.167 44.001 22.5c0 -30 -3 -65 -9 -105
c-6 -45.333 -10.667 -82 -14 -110s-5 -47.333 -5 -58c0 -15.333 -0.5 -31.166 -1.5 -47.499s-2.16699 -33.166 -3.5 -50.499c-8 -86.667 -12 -138 -12 -154c0 -20.667 1.5 -42.334 4.5 -65.001s7.16699 -44.334 12.5 -65.001c63.333 11.333 124.333 45.666 183 102.999
c61.333 61.333 92 121.666 92 180.999c0 6.66699 -0.666992 17.5 -2 32.5s-2 26.167 -2 33.5c0 65.333 12 124 36 176c27.333 59.333 66 98 116 116c6.66699 -28.667 10 -58 10 -88c0 -16.667 -2.66699 -34.667 -8 -54s-8 -40.666 -8 -63.999c0 -2 -11.667 -42.667 -35 -122
c-6 -21.333 -9 -40.666 -9 -57.999s3.83301 -34.333 11.5 -51s19.834 -30.334 36.501 -41.001c11.333 -7.33301 26 -15.833 44 -25.5s36 -20.667 54 -33s34.667 -26.166 50 -41.499s26 -32 32 -50c-46 0 -112 32 -198 96c-3.33301 2 -13.5 9.83301 -30.5 23.5l-72.5 57.5
c-34.667 -42.667 -80 -87.667 -136 -135c-75.333 -63.333 -134.333 -95 -177 -95c-46 0 -69 35.667 -69 107zM429.998 285.999c51.333 48 77 114.668 77 200.001c0 20.667 -2.66699 45 -8 73c-56 -34 -84 -88.333 -84 -163c0 -28.667 5 -65.334 15 -110.001zM230.998 568
l43.001 48.999c7.33301 8.66699 18.666 15.834 33.999 21.501s30 8.16699 44 7.5h-18c14 -0.666992 23.5 -4 28.5 -10s3.83301 -13.333 -3.5 -22l-43 -49c-6.66699 -8 -17.667 -14.833 -33 -20.5s-30.333 -8.16699 -45 -7.5h19c-14.667 0.666992 -24.5 4 -29.5 10
s-3.83301 13 3.5 21z" />
    <glyph glyph-name="FLW201" unicode="&#x419;" horiz-adv-x="723" 
d="M20 54c0 54 4.99805 117.332 14.998 189.999l11.5 80c4.33301 30 9.16602 67.667 14.499 113c0.666992 8 1.83398 22.833 3.50098 44.5s2.5 51.167 2.5 88.5c0 20.667 6.33301 36.834 19 48.501s27.334 19.167 44.001 22.5c0 -30 -3 -65 -9 -105
c-6 -45.333 -10.667 -82 -14 -110s-5 -47.333 -5 -58c0 -15.333 -0.5 -31.166 -1.5 -47.499s-2.16699 -33.166 -3.5 -50.499c-8 -86.667 -12 -138 -12 -154c0 -20.667 1.5 -42.334 4.5 -65.001s7.16699 -44.334 12.5 -65.001c63.333 11.333 124.333 45.666 183 102.999
c61.333 61.333 92 121.666 92 180.999c0 6.66699 -0.666992 17.5 -2 32.5s-2 26.167 -2 33.5c0 65.333 12 124 36 176c27.333 59.333 66 98 116 116c6.66699 -28.667 10 -58 10 -88c0 -16.667 -2.66699 -34.667 -8 -54s-8 -40.666 -8 -63.999c0 -2 -11.667 -42.667 -35 -122
c-6 -21.333 -9 -40.666 -9 -57.999s3.83301 -34.333 11.5 -51s19.834 -30.334 36.501 -41.001c11.333 -7.33301 26 -15.833 44 -25.5s36 -20.667 54 -33s34.667 -26.166 50 -41.499s26 -32 32 -50c-46 0 -112 32 -198 96c-3.33301 2 -13.5 9.83301 -30.5 23.5l-72.5 57.5
c-34.667 -42.667 -80 -87.667 -136 -135c-75.333 -63.333 -134.333 -95 -177 -95c-46 0 -69 35.667 -69 107zM429.998 285.999c51.333 48 77 114.668 77 200.001c0 20.667 -2.66699 45 -8 73c-56 -34 -84 -88.333 -84 -163c0 -28.667 5 -65.334 15 -110.001zM230.998 568
l43.001 48.999c7.33301 8.66699 18.666 15.834 33.999 21.501s30 8.16699 44 7.5h-18c14 -0.666992 23.5 -4 28.5 -10s3.83301 -13.333 -3.5 -22l-43 -49c-6.66699 -8 -17.667 -14.833 -33 -20.5s-30.333 -8.16699 -45 -7.5h19c-14.667 0.666992 -24.5 4 -29.5 10
s-3.83301 13 3.5 21z" />
    <glyph glyph-name="FLW202" unicode="&#xca;" horiz-adv-x="665" 
d="M74 731l14.9893 -0.000976562v-16c4 -4 7.83301 -10.833 11.5 -20.5s6.83398 -20.667 9.50098 -33s4.83398 -24.666 6.50098 -36.999s2.5 -23.166 2.5 -32.499v-18c0 -12 -0.666992 -27.5 -2 -46.5s-2.83301 -38.167 -4.5 -57.5l-4.5 -51.5
c-1.33301 -15 -2 -24.5 -2 -28.5c0 -10.667 0.333008 -20 1 -28s1.66699 -14.667 3 -20c0 -10 2 -25.333 6 -46c36.667 21.333 78.167 36.666 124.5 45.999s97.5 14 153.5 14c20 0 44.333 -0.5 73 -1.5s56.167 -2.66699 82.5 -5s48.833 -5.33301 67.5 -9
s28 -8.16699 28 -13.5c0 -6 -3.33301 -11 -10 -15s-15.167 -7.33301 -25.5 -10s-21.5 -4.5 -33.5 -5.5s-23 -1.5 -33 -1.5c-4.66699 0 -10.667 0.166992 -18 0.5s-15.166 0.5 -23.499 0.5s-16.166 0.166992 -23.499 0.5s-13.333 0.5 -18 0.5
c-5.33301 0 -10.5 -0.166992 -15.5 -0.5s-9.16699 -0.5 -12.5 -0.5c-14.667 0 -32 -1 -52 -3s-42.667 -3 -68 -3c-6 0 -15 -0.666992 -27 -2s-24.167 -3.66602 -36.5 -6.99902s-23.166 -7.83301 -32.499 -13.5s-14 -12.834 -14 -21.501c0 -16.667 3.83301 -29.5 11.5 -38.5
s18.5 -17.5 32.5 -25.5l49.5 -27c19 -10 39.833 -24 62.5 -42l19 -15c2.66699 -2 8.66699 -5.83301 18 -11.5l24.5 -14.5c7 -4 11.167 -6.33301 12.5 -7l14 -9l29 -18.5c8.66699 -5.66699 18 -11.167 28 -16.5l15 -10c4 -7.33301 8.33301 -14.666 13 -21.999l14 -23
c-61.333 0 -147 35 -257 105c-9.33301 5.33301 -25.666 15.5 -48.999 30.5l-94 59.5l-21 -41c-5.33301 -10 -8.66602 -16.333 -9.99902 -19c-16 -26 -44 -41 -84 -45c-2.66699 17.333 -5 35 -7 53s-3 36.333 -3 55c0 6 1.33301 22.5 4 49.5s5.83398 57 9.50098 90
s6.83398 65.667 9.50098 98s4 57.166 4 74.499c0 5.33301 -0.166992 13.333 -0.5 24s-0.666016 22 -0.999023 34s-0.666016 23.333 -0.999023 34s-0.5 18.667 -0.5 24c0 68.667 10 115 30 139z" />
    <glyph glyph-name="FLW202" unicode="&#x41a;" horiz-adv-x="665" 
d="M74 731l14.9893 -0.000976562v-16c4 -4 7.83301 -10.833 11.5 -20.5s6.83398 -20.667 9.50098 -33s4.83398 -24.666 6.50098 -36.999s2.5 -23.166 2.5 -32.499v-18c0 -12 -0.666992 -27.5 -2 -46.5s-2.83301 -38.167 -4.5 -57.5l-4.5 -51.5
c-1.33301 -15 -2 -24.5 -2 -28.5c0 -10.667 0.333008 -20 1 -28s1.66699 -14.667 3 -20c0 -10 2 -25.333 6 -46c36.667 21.333 78.167 36.666 124.5 45.999s97.5 14 153.5 14c20 0 44.333 -0.5 73 -1.5s56.167 -2.66699 82.5 -5s48.833 -5.33301 67.5 -9
s28 -8.16699 28 -13.5c0 -6 -3.33301 -11 -10 -15s-15.167 -7.33301 -25.5 -10s-21.5 -4.5 -33.5 -5.5s-23 -1.5 -33 -1.5c-4.66699 0 -10.667 0.166992 -18 0.5s-15.166 0.5 -23.499 0.5s-16.166 0.166992 -23.499 0.5s-13.333 0.5 -18 0.5
c-5.33301 0 -10.5 -0.166992 -15.5 -0.5s-9.16699 -0.5 -12.5 -0.5c-14.667 0 -32 -1 -52 -3s-42.667 -3 -68 -3c-6 0 -15 -0.666992 -27 -2s-24.167 -3.66602 -36.5 -6.99902s-23.166 -7.83301 -32.499 -13.5s-14 -12.834 -14 -21.501c0 -16.667 3.83301 -29.5 11.5 -38.5
s18.5 -17.5 32.5 -25.5l49.5 -27c19 -10 39.833 -24 62.5 -42l19 -15c2.66699 -2 8.66699 -5.83301 18 -11.5l24.5 -14.5c7 -4 11.167 -6.33301 12.5 -7l14 -9l29 -18.5c8.66699 -5.66699 18 -11.167 28 -16.5l15 -10c4 -7.33301 8.33301 -14.666 13 -21.999l14 -23
c-61.333 0 -147 35 -257 105c-9.33301 5.33301 -25.666 15.5 -48.999 30.5l-94 59.5l-21 -41c-5.33301 -10 -8.66602 -16.333 -9.99902 -19c-16 -26 -44 -41 -84 -45c-2.66699 17.333 -5 35 -7 53s-3 36.333 -3 55c0 6 1.33301 22.5 4 49.5s5.83398 57 9.50098 90
s6.83398 65.667 9.50098 98s4 57.166 4 74.499c0 5.33301 -0.166992 13.333 -0.5 24s-0.666016 22 -0.999023 34s-0.666016 23.333 -0.999023 34s-0.5 18.667 -0.5 24c0 68.667 10 115 30 139z" />
    <glyph glyph-name="FLW203" unicode="&#xcb;" horiz-adv-x="618" 
d="M65 0l-7.00098 -103.001c-15.333 0 -25.5 2.66699 -30.5 8s-7.5 13 -7.5 23c0 9.33301 1.16699 20.833 3.5 34.5s3.5 28.167 3.5 43.5v12c0 35.333 7.33301 74.166 22 116.499s30.667 82.833 48 121.5c15.333 32 33.166 65.833 53.499 101.5s43.5 73.5 69.5 113.5
c14.667 21.333 30.834 41.5 48.501 60.5s37.834 37.167 60.501 54.5c48.667 36 89.667 54 123 54c52 0 78 -43.333 78 -130l67 -467c0.666992 -4.66699 0.833984 -9.66699 0.500977 -15s-0.5 -9 -0.5 -11c-33.333 16.667 -58.333 45.334 -75 86.001
c-0.666992 2 -1.83398 15.5 -3.50098 40.5s-4.33398 55.833 -8.00098 92.5s-8.16699 76 -13.5 118s-12.166 81 -20.499 117s-18.166 66 -29.499 90s-24.666 36 -39.999 36c-14.667 0 -28 -6.5 -40 -19.5s-26.333 -26.833 -43 -41.5
c-56.667 -51.333 -105.334 -110.333 -146.001 -177c-20.667 -34 -38.334 -68.5 -53.001 -103.5s-25.667 -70.5 -33 -106.5c-2 -8 -4.33301 -19 -7 -33l-8.5 -43c-3 -14.667 -5.5 -28.667 -7.5 -42s-3.33301 -23.666 -4 -30.999z" />
    <glyph glyph-name="FLW203" unicode="&#x41b;" horiz-adv-x="618" 
d="M65 0l-7.00098 -103.001c-15.333 0 -25.5 2.66699 -30.5 8s-7.5 13 -7.5 23c0 9.33301 1.16699 20.833 3.5 34.5s3.5 28.167 3.5 43.5v12c0 35.333 7.33301 74.166 22 116.499s30.667 82.833 48 121.5c15.333 32 33.166 65.833 53.499 101.5s43.5 73.5 69.5 113.5
c14.667 21.333 30.834 41.5 48.501 60.5s37.834 37.167 60.501 54.5c48.667 36 89.667 54 123 54c52 0 78 -43.333 78 -130l67 -467c0.666992 -4.66699 0.833984 -9.66699 0.500977 -15s-0.5 -9 -0.5 -11c-33.333 16.667 -58.333 45.334 -75 86.001
c-0.666992 2 -1.83398 15.5 -3.50098 40.5s-4.33398 55.833 -8.00098 92.5s-8.16699 76 -13.5 118s-12.166 81 -20.499 117s-18.166 66 -29.499 90s-24.666 36 -39.999 36c-14.667 0 -28 -6.5 -40 -19.5s-26.333 -26.833 -43 -41.5
c-56.667 -51.333 -105.334 -110.333 -146.001 -177c-20.667 -34 -38.334 -68.5 -53.001 -103.5s-25.667 -70.5 -33 -106.5c-2 -8 -4.33301 -19 -7 -33l-8.5 -43c-3 -14.667 -5.5 -28.667 -7.5 -42s-3.33301 -23.666 -4 -30.999z" />
    <glyph glyph-name="FLW204" unicode="&#xcc;" horiz-adv-x="755" 
d="M393 492l7.99805 -13.002c4 -19.333 6.83301 -34 8.5 -44s3.5 -18.5 5.5 -25.5s4.5 -14 7.5 -21s7.83301 -16.833 14.5 -29.5c6.66699 14 13 31.5 19 52.5s11.333 37.833 16 50.5c2 6.66699 5.16699 14.834 9.5 24.501s8.83301 19 13.5 28l13.5 25.5
c4.33301 8 7.5 14 9.5 18c12.667 24 25.667 42.667 39 56c18 -43.333 33 -91 45 -143c4 -16.667 7.66699 -36.834 11 -60.501s6.5 -48.5 9.5 -74.5s5.83301 -52 8.5 -78s5 -50 7 -72c2.66699 -28 7 -53.5 13 -76.5s13 -43.5 21 -61.5c4.66699 -11.333 25.667 -50 63 -116
c-66 0 -109.333 36 -130 108c-4 13.333 -7.16699 31.166 -9.5 53.499s-4.83301 49.833 -7.5 82.5c-2.66699 38.667 -5.16699 71.334 -7.5 98.001s-4.5 46.334 -6.5 59.001c-9.33301 56.667 -24 95.667 -44 117c-0.666992 -2.66699 -5.16699 -16.834 -13.5 -42.501
s-18.166 -54.5 -29.499 -86.5s-22.833 -62.833 -34.5 -92.5s-21.167 -50.167 -28.5 -61.5c-30.667 -46.667 -68 -75 -112 -85c4 23.333 9.33301 50 16 80s14.667 63 24 99l28 107c2 9.33301 3 19.333 3 30c0 47.333 -31.667 86 -95 116l-45 20.5l-55 24.5
c-8 -32.667 -12 -96.667 -12 -192c0 -92 -6.66699 -161.667 -20 -209c-20.667 -70.667 -59.667 -114.667 -117 -132c-2 21.333 -3 42.666 -3 63.999c0 4.66699 0.333008 13.334 1 26.001s1 29.667 1 51c0 10.667 0.166992 20.167 0.5 28.5s0.5 15.833 0.5 22.5
c0 5.33301 -1 15.333 -3 30l-6.5 48.5c-2.33301 17.667 -4.5 35.334 -6.5 53.001s-3 31.834 -3 42.501v27c0 4 0.666992 7.5 2 10.5s2 5.16699 2 6.5c36.667 -36 64 -95 82 -177c28 91.333 42 177.666 42 258.999c0 12.667 -1.16699 24.834 -3.5 36.501
s-5.5 22.834 -9.5 33.501l-42 108c12 -2 23.167 -5.83301 33.5 -11.5s19.833 -12.5 28.5 -20.5s17 -16.5 25 -25.5l22 -24.5c29.333 -22.667 59.333 -44.334 90 -65.001s64.334 -39.667 101.001 -57z" />
    <glyph glyph-name="FLW204" unicode="&#x41c;" horiz-adv-x="755" 
d="M393 492l7.99805 -13.002c4 -19.333 6.83301 -34 8.5 -44s3.5 -18.5 5.5 -25.5s4.5 -14 7.5 -21s7.83301 -16.833 14.5 -29.5c6.66699 14 13 31.5 19 52.5s11.333 37.833 16 50.5c2 6.66699 5.16699 14.834 9.5 24.501s8.83301 19 13.5 28l13.5 25.5
c4.33301 8 7.5 14 9.5 18c12.667 24 25.667 42.667 39 56c18 -43.333 33 -91 45 -143c4 -16.667 7.66699 -36.834 11 -60.501s6.5 -48.5 9.5 -74.5s5.83301 -52 8.5 -78s5 -50 7 -72c2.66699 -28 7 -53.5 13 -76.5s13 -43.5 21 -61.5c4.66699 -11.333 25.667 -50 63 -116
c-66 0 -109.333 36 -130 108c-4 13.333 -7.16699 31.166 -9.5 53.499s-4.83301 49.833 -7.5 82.5c-2.66699 38.667 -5.16699 71.334 -7.5 98.001s-4.5 46.334 -6.5 59.001c-9.33301 56.667 -24 95.667 -44 117c-0.666992 -2.66699 -5.16699 -16.834 -13.5 -42.501
s-18.166 -54.5 -29.499 -86.5s-22.833 -62.833 -34.5 -92.5s-21.167 -50.167 -28.5 -61.5c-30.667 -46.667 -68 -75 -112 -85c4 23.333 9.33301 50 16 80s14.667 63 24 99l28 107c2 9.33301 3 19.333 3 30c0 47.333 -31.667 86 -95 116l-45 20.5l-55 24.5
c-8 -32.667 -12 -96.667 -12 -192c0 -92 -6.66699 -161.667 -20 -209c-20.667 -70.667 -59.667 -114.667 -117 -132c-2 21.333 -3 42.666 -3 63.999c0 4.66699 0.333008 13.334 1 26.001s1 29.667 1 51c0 10.667 0.166992 20.167 0.5 28.5s0.5 15.833 0.5 22.5
c0 5.33301 -1 15.333 -3 30l-6.5 48.5c-2.33301 17.667 -4.5 35.334 -6.5 53.001s-3 31.834 -3 42.501v27c0 4 0.666992 7.5 2 10.5s2 5.16699 2 6.5c36.667 -36 64 -95 82 -177c28 91.333 42 177.666 42 258.999c0 12.667 -1.16699 24.834 -3.5 36.501
s-5.5 22.834 -9.5 33.501l-42 108c12 -2 23.167 -5.83301 33.5 -11.5s19.833 -12.5 28.5 -20.5s17 -16.5 25 -25.5l22 -24.5c29.333 -22.667 59.333 -44.334 90 -65.001s64.334 -39.667 101.001 -57z" />
    <glyph glyph-name="FLW205" unicode="&#xcd;" horiz-adv-x="679" 
d="M513 805l12.999 -13.002v-28c0.666992 -1.33301 2.16699 -6.5 4.5 -15.5s4.83301 -19.667 7.5 -32s4 -20.5 4 -24.5v-18c0 -8 -0.166992 -16.5 -0.5 -25.5s-0.833008 -18.5 -1.5 -28.5c-4 -48 -6 -78 -6 -90v-37c0 -26.667 3.5 -47.167 10.5 -61.5
s26.167 -21.5 57.5 -21.5c2.66699 0.666992 7.33398 2 14.001 4s13.334 3 20.001 3c8.66699 0 16.334 -2.33301 23.001 -7l-3 -14c-1.33301 -6 -8.16602 -11.167 -20.499 -15.5s-25.5 -9.83301 -39.5 -16.5s-26.833 -16 -38.5 -28s-17.5 -28.667 -17.5 -50v-354
c-22.667 20.667 -41.334 50.334 -56.001 89.001s-22 86 -22 142v42v62c0 3.33301 -0.166992 7.33301 -0.5 12s-0.166016 8.66699 0.500977 12c0 25.333 -3.16699 42.166 -9.5 50.499s-22.833 12.5 -49.5 12.5h-65c-8.66699 -1.33301 -19.667 -2.16602 -33 -2.49902
s-29.333 -0.833008 -48 -1.5c-11.333 0 -22.833 0.333008 -34.5 1s-23.834 1.66699 -36.501 3c-11.333 1.33301 -22.833 3.33301 -34.5 6l-35.5 8c-11.333 -41.333 -17 -82.666 -17 -123.999c0 -97.333 28.667 -174 86 -230c-100.667 0 -151 68 -151 204
c0 4.66699 -0.666992 16.834 -2 36.501s-3 41.5 -5 65.5s-3.66699 47.167 -5 69.5s-2 38.5 -2 48.5c0 84 18.667 142.667 56 176c15.333 -32.667 23 -66.667 23 -102c0 -13.333 -1 -30 -3 -50c-2 -13.333 -4 -30.666 -6 -51.999c41.333 -5.33301 85.833 -9 133.5 -11
s98.5 -3 152.5 -3c30.667 0 52.667 4.83301 66 14.5s20 29.167 20 58.5c0 4.66699 -0.333008 11.5 -1 20.5s-1.5 18.167 -2.5 27.5s-1.83301 18.166 -2.5 26.499s-1.33398 14.166 -2.00098 17.499v63v51c0 10 1.33301 21.667 4 35s6.5 26.333 11.5 39
s11.167 24.167 18.5 34.5s15.666 17.5 24.999 21.5z" />
    <glyph glyph-name="FLW205" unicode="&#x41d;" horiz-adv-x="679" 
d="M513 805l12.999 -13.002v-28c0.666992 -1.33301 2.16699 -6.5 4.5 -15.5s4.83301 -19.667 7.5 -32s4 -20.5 4 -24.5v-18c0 -8 -0.166992 -16.5 -0.5 -25.5s-0.833008 -18.5 -1.5 -28.5c-4 -48 -6 -78 -6 -90v-37c0 -26.667 3.5 -47.167 10.5 -61.5
s26.167 -21.5 57.5 -21.5c2.66699 0.666992 7.33398 2 14.001 4s13.334 3 20.001 3c8.66699 0 16.334 -2.33301 23.001 -7l-3 -14c-1.33301 -6 -8.16602 -11.167 -20.499 -15.5s-25.5 -9.83301 -39.5 -16.5s-26.833 -16 -38.5 -28s-17.5 -28.667 -17.5 -50v-354
c-22.667 20.667 -41.334 50.334 -56.001 89.001s-22 86 -22 142v42v62c0 3.33301 -0.166992 7.33301 -0.5 12s-0.166016 8.66699 0.500977 12c0 25.333 -3.16699 42.166 -9.5 50.499s-22.833 12.5 -49.5 12.5h-65c-8.66699 -1.33301 -19.667 -2.16602 -33 -2.49902
s-29.333 -0.833008 -48 -1.5c-11.333 0 -22.833 0.333008 -34.5 1s-23.834 1.66699 -36.501 3c-11.333 1.33301 -22.833 3.33301 -34.5 6l-35.5 8c-11.333 -41.333 -17 -82.666 -17 -123.999c0 -97.333 28.667 -174 86 -230c-100.667 0 -151 68 -151 204
c0 4.66699 -0.666992 16.834 -2 36.501s-3 41.5 -5 65.5s-3.66699 47.167 -5 69.5s-2 38.5 -2 48.5c0 84 18.667 142.667 56 176c15.333 -32.667 23 -66.667 23 -102c0 -13.333 -1 -30 -3 -50c-2 -13.333 -4 -30.666 -6 -51.999c41.333 -5.33301 85.833 -9 133.5 -11
s98.5 -3 152.5 -3c30.667 0 52.667 4.83301 66 14.5s20 29.167 20 58.5c0 4.66699 -0.333008 11.5 -1 20.5s-1.5 18.167 -2.5 27.5s-1.83301 18.166 -2.5 26.499s-1.33398 14.166 -2.00098 17.499v63v51c0 10 1.33301 21.667 4 35s6.5 26.333 11.5 39
s11.167 24.167 18.5 34.5s15.666 17.5 24.999 21.5z" />
    <glyph glyph-name="FLW206" unicode="&#xce;" horiz-adv-x="755" 
d="M80 532c22.667 24 56.332 42.6709 100.999 56.0039c24.667 8 52.334 15.167 83.001 21.5s64 11.166 100 14.499c12.667 1.33301 25 2.33301 37 3s24.333 1 37 1c84 0 151.333 -13.667 202 -41c63.333 -34 95 -88.667 95 -164c0 -58.667 -32 -119 -96 -181
c-52.667 -50.667 -111.667 -90.334 -177 -119.001c-20.667 -9.33301 -54 -27 -100 -53c-36.667 -20.667 -68.334 -36.334 -95.001 -47.001s-51.334 -19.334 -74.001 -26.001c-7.33301 -2 -15.833 -4 -25.5 -6s-18.5 -3 -26.5 -3c-40.667 0 -71 10 -91 30s-30 47.333 -30 82
v21c0 1.33301 0.5 3.5 1.5 6.5s1.83301 5.83301 2.5 8.5c14 65.333 37.667 127.333 71 186c41.333 72.667 86.333 115.334 135 128.001c0 -37.333 -11.333 -75 -34 -113c-67.333 -110 -101.666 -167.667 -102.999 -173c-7.33301 -28 -11 -49.333 -11 -64
c0 -44 24.667 -66 74 -66c17.333 0 37.333 2.33301 60 7c130.667 24.667 258 93 382 205c48 44 72 94 72 150c0 56.667 -20.667 102.667 -62 138c-39.333 35.333 -88 53 -146 53c-122 0 -226.667 -13.667 -314 -41c-16 -4.66699 -28.667 -10.667 -38 -18
s-17.166 -16.833 -23.499 -28.5s-12 -26 -17 -43l-17.5 -60.5l-13 14c-0.666992 1.33301 -1 3.16602 -1 5.49902v5.5c0 7.33301 1.33301 16.333 4 27s6 21.5 10 32.5s8.5 21.167 13.5 30.5s9.83301 16.333 14.5 21z" />
    <glyph glyph-name="FLW206" unicode="&#x41e;" horiz-adv-x="755" 
d="M80 532c22.667 24 56.332 42.6709 100.999 56.0039c24.667 8 52.334 15.167 83.001 21.5s64 11.166 100 14.499c12.667 1.33301 25 2.33301 37 3s24.333 1 37 1c84 0 151.333 -13.667 202 -41c63.333 -34 95 -88.667 95 -164c0 -58.667 -32 -119 -96 -181
c-52.667 -50.667 -111.667 -90.334 -177 -119.001c-20.667 -9.33301 -54 -27 -100 -53c-36.667 -20.667 -68.334 -36.334 -95.001 -47.001s-51.334 -19.334 -74.001 -26.001c-7.33301 -2 -15.833 -4 -25.5 -6s-18.5 -3 -26.5 -3c-40.667 0 -71 10 -91 30s-30 47.333 -30 82
v21c0 1.33301 0.5 3.5 1.5 6.5s1.83301 5.83301 2.5 8.5c14 65.333 37.667 127.333 71 186c41.333 72.667 86.333 115.334 135 128.001c0 -37.333 -11.333 -75 -34 -113c-67.333 -110 -101.666 -167.667 -102.999 -173c-7.33301 -28 -11 -49.333 -11 -64
c0 -44 24.667 -66 74 -66c17.333 0 37.333 2.33301 60 7c130.667 24.667 258 93 382 205c48 44 72 94 72 150c0 56.667 -20.667 102.667 -62 138c-39.333 35.333 -88 53 -146 53c-122 0 -226.667 -13.667 -314 -41c-16 -4.66699 -28.667 -10.667 -38 -18
s-17.166 -16.833 -23.499 -28.5s-12 -26 -17 -43l-17.5 -60.5l-13 14c-0.666992 1.33301 -1 3.16602 -1 5.49902v5.5c0 7.33301 1.33301 16.333 4 27s6 21.5 10 32.5s8.5 21.167 13.5 30.5s9.83301 16.333 14.5 21z" />
    <glyph glyph-name="FLW207" unicode="&#xcf;" horiz-adv-x="698" 
d="M661 23l-40.998 -13.998c-2.66699 -1.33301 -8 -2 -16 -2c-34.667 0 -59.334 13.5 -74.001 40.5s-22 63.167 -22 108.5c0 9.33301 0.333008 23.5 1 42.5s1 33.167 1 42.5c0 38.667 5 90 15 154c3.33301 22 6.5 50.833 9.5 86.5s6.16699 76.167 9.5 121.5
c-23.333 6 -44.5 9.83301 -63.5 11.5s-36.5 2.5 -52.5 2.5c-19.333 0 -39.833 -2.66699 -61.5 -8s-42.5 -12.333 -62.5 -21s-38.5 -18.5 -55.5 -29.5s-30.833 -22.5 -41.5 -34.5c-22.667 -24.667 -34 -56.667 -34 -96c0 -5.33301 0.666992 -15 2 -29s3 -29.833 5 -47.5
s3.66699 -36 5 -55s2 -36.167 2 -51.5v-79c0 -76.667 -4.33301 -132 -13 -166h-27c-32 28 -48 75.333 -48 142c0 5.33301 0.333008 14.666 1 27.999s1.5 27.333 2.5 42s1.66699 27.834 2 39.501s0.5 18.5 0.5 20.5c-0.666992 6 -1 12 -1 18v19
c0 11.333 0.166992 22.666 0.5 33.999s0.5 22.333 0.5 33c0 19.333 -0.833008 38.166 -2.5 56.499s-5.5 35.166 -11.5 50.499c-2.66699 7.33301 -8.66699 11 -18 11s-19.5 -1.83301 -30.5 -5.5s-18.167 -0.5 -21.5 9.5c-2 6 0.5 14.667 7.5 26s15.333 23.333 25 36
s18.5 25 26.5 37s12 22 12 30c2 0 7.33301 -0.166992 16 -0.5s20.334 -0.5 35.001 -0.5h21c6.66699 0 13 0.666992 19 2c16.667 0.666992 36.667 5.33398 60 14.001c53.333 17.333 98.666 26 135.999 26c42.667 0 78.667 -2.33301 108 -7s51.333 -5.66699 66 -3
c4.66699 0 9.5 2.66699 14.5 8s10.167 11.5 15.5 18.5s11 13.667 17 20s12.667 10.833 20 13.5c2.66699 -12.667 5.16699 -25.167 7.5 -37.5s3.5 -26.833 3.5 -43.5c12 -8.66699 21.5 -20 28.5 -34s13.167 -28 18.5 -42l-51 14
c-0.666992 -12.667 -1.66699 -25.334 -3 -38.001l-4 -38l-28 -204l-9.5 -64c-3.66699 -24.667 -5.5 -51.334 -5.5 -80.001c0 -33.333 6.16699 -60.666 18.5 -81.999s34.166 -36.666 65.499 -45.999z" />
    <glyph glyph-name="FLW207" unicode="&#x41f;" horiz-adv-x="698" 
d="M661 23l-40.998 -13.998c-2.66699 -1.33301 -8 -2 -16 -2c-34.667 0 -59.334 13.5 -74.001 40.5s-22 63.167 -22 108.5c0 9.33301 0.333008 23.5 1 42.5s1 33.167 1 42.5c0 38.667 5 90 15 154c3.33301 22 6.5 50.833 9.5 86.5s6.16699 76.167 9.5 121.5
c-23.333 6 -44.5 9.83301 -63.5 11.5s-36.5 2.5 -52.5 2.5c-19.333 0 -39.833 -2.66699 -61.5 -8s-42.5 -12.333 -62.5 -21s-38.5 -18.5 -55.5 -29.5s-30.833 -22.5 -41.5 -34.5c-22.667 -24.667 -34 -56.667 -34 -96c0 -5.33301 0.666992 -15 2 -29s3 -29.833 5 -47.5
s3.66699 -36 5 -55s2 -36.167 2 -51.5v-79c0 -76.667 -4.33301 -132 -13 -166h-27c-32 28 -48 75.333 -48 142c0 5.33301 0.333008 14.666 1 27.999s1.5 27.333 2.5 42s1.66699 27.834 2 39.501s0.5 18.5 0.5 20.5c-0.666992 6 -1 12 -1 18v19
c0 11.333 0.166992 22.666 0.5 33.999s0.5 22.333 0.5 33c0 19.333 -0.833008 38.166 -2.5 56.499s-5.5 35.166 -11.5 50.499c-2.66699 7.33301 -8.66699 11 -18 11s-19.5 -1.83301 -30.5 -5.5s-18.167 -0.5 -21.5 9.5c-2 6 0.5 14.667 7.5 26s15.333 23.333 25 36
s18.5 25 26.5 37s12 22 12 30c2 0 7.33301 -0.166992 16 -0.5s20.334 -0.5 35.001 -0.5h21c6.66699 0 13 0.666992 19 2c16.667 0.666992 36.667 5.33398 60 14.001c53.333 17.333 98.666 26 135.999 26c42.667 0 78.667 -2.33301 108 -7s51.333 -5.66699 66 -3
c4.66699 0 9.5 2.66699 14.5 8s10.167 11.5 15.5 18.5s11 13.667 17 20s12.667 10.833 20 13.5c2.66699 -12.667 5.16699 -25.167 7.5 -37.5s3.5 -26.833 3.5 -43.5c12 -8.66699 21.5 -20 28.5 -34s13.167 -28 18.5 -42l-51 14
c-0.666992 -12.667 -1.66699 -25.334 -3 -38.001l-4 -38l-28 -204l-9.5 -64c-3.66699 -24.667 -5.5 -51.334 -5.5 -80.001c0 -33.333 6.16699 -60.666 18.5 -81.999s34.166 -36.666 65.499 -45.999z" />
    <glyph glyph-name="FLW208" unicode="&#xd0;" horiz-adv-x="497" 
d="M68 0l0.00195312 25.999c-1.33301 4 -2 7.66699 -2 11c0 6 1.5 13.667 4.5 23s6.33301 18.5 10 27.5l10 24c3 7 4.5 10.833 4.5 11.5c0 51.333 -4.33301 92.333 -13 123c0.666992 -1.33301 -2.16602 3 -8.49902 13s-13.5 22.167 -21.5 36.5s-15.333 29 -22 44
s-10 26.833 -10 35.5c0 10 2 21.667 6 35c28.667 86 44.667 136.333 48 151c4 17.333 6.66699 39.5 8 66.5s4.16602 53.333 8.49902 79s11.666 47.834 21.999 66.501s26.833 28 49.5 28c28.667 0 66.667 -11.333 114 -34c26.667 -12 62 -31 106 -57
c33.333 -20 57.5 -42.5 72.5 -67.5s22.5 -52.167 22.5 -81.5c0 -55.333 -25 -112 -75 -170c-46.667 -52.667 -98.667 -92.334 -156 -119.001c-22.667 -10 -43.334 -24.167 -62.001 -42.5s-28 -42.166 -28 -71.499c0 -10.667 -2 -28 -6 -52s-8.66699 -59.333 -14 -106h-68z
M190.002 285.999l13.998 0.000976562c1.33301 0 3.83301 0.333008 7.5 1s5.83398 1 6.50098 1c6 0 14.833 2.66699 26.5 8s23.667 11.666 36 18.999s24.333 15 36 23s20.5 14.667 26.5 20c24.667 21.333 44.167 47 58.5 77s21.5 59.667 21.5 89c0 43.333 -15 82 -45 116
c-25.333 30 -60.666 53.333 -105.999 70l-42.5 15c-15.667 5.33301 -30.167 8 -43.5 8c-33.333 0 -50 -25.667 -50 -77c0 -122.667 18 -246 54 -370z" />
    <glyph glyph-name="FLW208" unicode="&#x420;" horiz-adv-x="497" 
d="M68 0l0.00195312 25.999c-1.33301 4 -2 7.66699 -2 11c0 6 1.5 13.667 4.5 23s6.33301 18.5 10 27.5l10 24c3 7 4.5 10.833 4.5 11.5c0 51.333 -4.33301 92.333 -13 123c0.666992 -1.33301 -2.16602 3 -8.49902 13s-13.5 22.167 -21.5 36.5s-15.333 29 -22 44
s-10 26.833 -10 35.5c0 10 2 21.667 6 35c28.667 86 44.667 136.333 48 151c4 17.333 6.66699 39.5 8 66.5s4.16602 53.333 8.49902 79s11.666 47.834 21.999 66.501s26.833 28 49.5 28c28.667 0 66.667 -11.333 114 -34c26.667 -12 62 -31 106 -57
c33.333 -20 57.5 -42.5 72.5 -67.5s22.5 -52.167 22.5 -81.5c0 -55.333 -25 -112 -75 -170c-46.667 -52.667 -98.667 -92.334 -156 -119.001c-22.667 -10 -43.334 -24.167 -62.001 -42.5s-28 -42.166 -28 -71.499c0 -10.667 -2 -28 -6 -52s-8.66699 -59.333 -14 -106h-68z
M190.002 285.999l13.998 0.000976562c1.33301 0 3.83301 0.333008 7.5 1s5.83398 1 6.50098 1c6 0 14.833 2.66699 26.5 8s23.667 11.666 36 18.999s24.333 15 36 23s20.5 14.667 26.5 20c24.667 21.333 44.167 47 58.5 77s21.5 59.667 21.5 89c0 43.333 -15 82 -45 116
c-25.333 30 -60.666 53.333 -105.999 70l-42.5 15c-15.667 5.33301 -30.167 8 -43.5 8c-33.333 0 -50 -25.667 -50 -77c0 -122.667 18 -246 54 -370z" />
    <glyph glyph-name="FLW209" unicode="&#xd1;" horiz-adv-x="718" 
d="M225 410c-32.667 -14.667 -57.8271 -31 -75.4941 -49s-33.5 -41.667 -47.5 -71c-19.333 -38.667 -29 -73.334 -29 -104.001c0 -37.333 14 -63.333 42 -78c22 -11.333 47 -19.666 75 -24.999s57.667 -8 89 -8c49.333 0 112 6 188 18l99 15h27
c0.666992 0 4.16699 0.833008 10.5 2.5s13.5 3.33398 21.5 5.00098s15.5 3.33398 22.5 5.00098s12.167 2.5 15.5 2.5c23.333 0 35 -3 35 -9c0 -8.66699 -13.333 -16.667 -40 -24s-58.334 -13.666 -95.001 -18.999s-73.834 -9.5 -111.501 -12.5s-67.834 -4.5 -90.501 -4.5
c-50 0 -92.667 1.33301 -128 4s-63.333 6.66699 -84 12c-86 21.333 -129 66.333 -129 135c0 43.333 15 84.333 45 123c12 16.667 26.5 33 43.5 49s36.5 32.333 58.5 49c2 1.33301 12.333 8.66602 31 21.999l81 57c15.333 11.333 25.166 22.166 29.499 32.499
s6.5 25.833 6.5 46.5c0 20 3 34.667 9 44s18.333 18.666 37 27.999c8.66699 -3.33301 13 -11 13 -23c0 -3.33301 1.66699 -10.333 5 -21l7 -22c1.33301 -3.33301 4.16602 -9.33301 8.49902 -18s8.66602 -18 12.999 -28l12 -28.5c3.66699 -9 5.5 -15.5 5.5 -19.5
c0 -5.33301 -0.666992 -11.666 -2 -18.999s-3.33301 -16.333 -6 -27c-9.33301 -36 -18.333 -67.167 -27 -93.5s-17 -47.5 -25 -63.5c-30 -58.667 -67.333 -88 -112 -88c0 -0.666992 1.66699 6.16602 5 20.499s7 31.666 11 51.999s7.66699 41 11 62s5 37.5 5 49.5
c0 18.667 -2 34.334 -6 47.001l-26 -12.5z" />
    <glyph glyph-name="FLW209" unicode="&#x421;" horiz-adv-x="718" 
d="M225 410c-32.667 -14.667 -57.8271 -31 -75.4941 -49s-33.5 -41.667 -47.5 -71c-19.333 -38.667 -29 -73.334 -29 -104.001c0 -37.333 14 -63.333 42 -78c22 -11.333 47 -19.666 75 -24.999s57.667 -8 89 -8c49.333 0 112 6 188 18l99 15h27
c0.666992 0 4.16699 0.833008 10.5 2.5s13.5 3.33398 21.5 5.00098s15.5 3.33398 22.5 5.00098s12.167 2.5 15.5 2.5c23.333 0 35 -3 35 -9c0 -8.66699 -13.333 -16.667 -40 -24s-58.334 -13.666 -95.001 -18.999s-73.834 -9.5 -111.501 -12.5s-67.834 -4.5 -90.501 -4.5
c-50 0 -92.667 1.33301 -128 4s-63.333 6.66699 -84 12c-86 21.333 -129 66.333 -129 135c0 43.333 15 84.333 45 123c12 16.667 26.5 33 43.5 49s36.5 32.333 58.5 49c2 1.33301 12.333 8.66602 31 21.999l81 57c15.333 11.333 25.166 22.166 29.499 32.499
s6.5 25.833 6.5 46.5c0 20 3 34.667 9 44s18.333 18.666 37 27.999c8.66699 -3.33301 13 -11 13 -23c0 -3.33301 1.66699 -10.333 5 -21l7 -22c1.33301 -3.33301 4.16602 -9.33301 8.49902 -18s8.66602 -18 12.999 -28l12 -28.5c3.66699 -9 5.5 -15.5 5.5 -19.5
c0 -5.33301 -0.666992 -11.666 -2 -18.999s-3.33301 -16.333 -6 -27c-9.33301 -36 -18.333 -67.167 -27 -93.5s-17 -47.5 -25 -63.5c-30 -58.667 -67.333 -88 -112 -88c0 -0.666992 1.66699 6.16602 5 20.499s7 31.666 11 51.999s7.66699 41 11 62s5 37.5 5 49.5
c0 18.667 -2 34.334 -6 47.001l-26 -12.5z" />
    <glyph glyph-name="FLW210" unicode="&#xd2;" horiz-adv-x="831" 
d="M307 668c76 -8 166.666 -11.9941 271.999 -11.9941c110 0 187.333 -23 232 -69l-144 26l-145 27h-20c-62.667 0 -94 -25.667 -94 -77c0 -4.66699 0.333008 -11.5 1 -20.5s1.5 -18.667 2.5 -29s1.83301 -20 2.5 -29s1 -15.833 1 -20.5
c0 -8.66699 0.666992 -21.834 2 -39.501s3 -36.667 5 -57s3.66699 -40.333 5 -60s2 -35.834 2 -48.501c0 -15.333 -0.666992 -31.166 -2 -47.499s-2 -33.166 -2 -50.499c0 -11.333 0.666992 -26.333 2 -45s2 -40.334 2 -65.001v-77c-30.667 13.333 -49.667 36 -57 68
s-11 68.667 -11 110v271c0 59.333 -3.33301 102 -10 128c-6 23.333 -15 41.666 -27 54.999s-27 20.666 -45 21.999c-15.333 1.33301 -34.666 2.83301 -57.999 4.5s-50.666 4.16699 -81.999 7.5c-50.667 5.33301 -90.334 28.666 -119.001 69.999
c12.667 7.33301 28.667 11 48 11c18 0 35.5 -1.5 52.5 -4.5s34.667 -6.83301 53 -11.5s38.333 -10.334 60 -17.001s46.167 -13.334 73.5 -20.001z" />
    <glyph glyph-name="FLW210" unicode="&#x422;" horiz-adv-x="831" 
d="M307 668c76 -8 166.666 -11.9941 271.999 -11.9941c110 0 187.333 -23 232 -69l-144 26l-145 27h-20c-62.667 0 -94 -25.667 -94 -77c0 -4.66699 0.333008 -11.5 1 -20.5s1.5 -18.667 2.5 -29s1.83301 -20 2.5 -29s1 -15.833 1 -20.5
c0 -8.66699 0.666992 -21.834 2 -39.501s3 -36.667 5 -57s3.66699 -40.333 5 -60s2 -35.834 2 -48.501c0 -15.333 -0.666992 -31.166 -2 -47.499s-2 -33.166 -2 -50.499c0 -11.333 0.666992 -26.333 2 -45s2 -40.334 2 -65.001v-77c-30.667 13.333 -49.667 36 -57 68
s-11 68.667 -11 110v271c0 59.333 -3.33301 102 -10 128c-6 23.333 -15 41.666 -27 54.999s-27 20.666 -45 21.999c-15.333 1.33301 -34.666 2.83301 -57.999 4.5s-50.666 4.16699 -81.999 7.5c-50.667 5.33301 -90.334 28.666 -119.001 69.999
c12.667 7.33301 28.667 11 48 11c18 0 35.5 -1.5 52.5 -4.5s34.667 -6.83301 53 -11.5s38.333 -10.334 60 -17.001s46.167 -13.334 73.5 -20.001z" />
    <glyph glyph-name="FLW211" unicode="&#xd3;" horiz-adv-x="694" 
d="M436 518l40.999 52.499l59 73.5c18 22 38.333 38.5 61 49.5s46.334 16.5 71.001 16.5c6.66699 -6.66699 6.83398 -16.167 0.500977 -28.5s-17 -26.5 -32 -42.5s-32.833 -33.5 -53.5 -52.5l-63.5 -57l-62 -56c-19.667 -18.333 -35.834 -35.166 -48.501 -50.499
c-24.667 -28.667 -39.334 -46.334 -44.001 -53.001c-9.33301 -12 -15.833 -21.5 -19.5 -28.5s-9.83398 -15.5 -18.501 -25.5l-32 -38l-28 -33.5c-7.33301 -9 -11.333 -14.167 -12 -15.5l-47 -56.5c-16 -19 -35.333 -40.5 -58 -64.5l-37 -40.5c-13.333 -15 -26 -28 -38 -39
s-23 -18.333 -33 -22s-17 -0.5 -21 9.5c-3.33301 8 4.66699 22.833 24 44.5l66 76c24.667 29 47.5 60.167 68.5 93.5s31.5 65.333 31.5 96c0 8.66699 -3.66699 18.834 -11 30.501s-17 24.5 -29 38.5l-40 44.5c-14.667 15.667 -29 31.834 -43 48.501
c-17.333 20.667 -31 41.667 -41 63s-16.667 42.333 -20 63c20.667 -4 42.334 -15.333 65.001 -34s44.334 -44.334 65.001 -77.001l42 -67.5l59 -94.5c16 9.33301 32 21 48 35s32 29.667 48 47l38.5 42.5c13.667 15.667 28.167 33.167 43.5 52.5z" />
    <glyph glyph-name="FLW211" unicode="&#x423;" horiz-adv-x="694" 
d="M436 518l40.999 52.499l59 73.5c18 22 38.333 38.5 61 49.5s46.334 16.5 71.001 16.5c6.66699 -6.66699 6.83398 -16.167 0.500977 -28.5s-17 -26.5 -32 -42.5s-32.833 -33.5 -53.5 -52.5l-63.5 -57l-62 -56c-19.667 -18.333 -35.834 -35.166 -48.501 -50.499
c-24.667 -28.667 -39.334 -46.334 -44.001 -53.001c-9.33301 -12 -15.833 -21.5 -19.5 -28.5s-9.83398 -15.5 -18.501 -25.5l-32 -38l-28 -33.5c-7.33301 -9 -11.333 -14.167 -12 -15.5l-47 -56.5c-16 -19 -35.333 -40.5 -58 -64.5l-37 -40.5c-13.333 -15 -26 -28 -38 -39
s-23 -18.333 -33 -22s-17 -0.5 -21 9.5c-3.33301 8 4.66699 22.833 24 44.5l66 76c24.667 29 47.5 60.167 68.5 93.5s31.5 65.333 31.5 96c0 8.66699 -3.66699 18.834 -11 30.501s-17 24.5 -29 38.5l-40 44.5c-14.667 15.667 -29 31.834 -43 48.501
c-17.333 20.667 -31 41.667 -41 63s-16.667 42.333 -20 63c20.667 -4 42.334 -15.333 65.001 -34s44.334 -44.334 65.001 -77.001l42 -67.5l59 -94.5c16 9.33301 32 21 48 35s32 29.667 48 47l38.5 42.5c13.667 15.667 28.167 33.167 43.5 52.5z" />
    <glyph glyph-name="FLW212" unicode="&#xd4;" horiz-adv-x="775" 
d="M358 -6c-2.66699 11.333 -5.66797 23.1641 -9.00098 35.4971s-5 25.166 -5 38.499c0 6.66699 -0.5 17.334 -1.5 32.001s-2.66699 29.834 -5 45.501s-5 30.167 -8 43.5s-6.5 22 -10.5 26c0.666992 -0.666992 -3.16602 2.16602 -11.499 8.49902s-20.5 12.833 -36.5 19.5
l-86 34c-23.333 8.66699 -47.666 20.5 -72.999 35.5s-47 32.167 -65 51.5c-18 21.333 -27 42 -27 62c0 21.333 9 43 27 65c8.66699 10.667 16.834 19.334 24.501 26.001l20 17.5c5.66699 5 10 10.333 13 16s4.5 12.834 4.5 21.501c0 10.667 -1.83301 22.5 -5.5 35.5
s-5.5 24.5 -5.5 34.5c0 27.333 8.66699 46.833 26 58.5s38.666 17.5 63.999 17.5c22 0 44.667 -3.16699 68 -9.5s44.333 -13.5 63 -21.5l57 -25l74 -33l8 32c2 8.66699 5.16699 14.334 9.5 17.001s8.83301 4 13.5 4c18 0 27 -6.66699 27 -20c0 -6 -1 -13.5 -3 -22.5
l-7 -32.5c2.66699 -0.666992 5 -1.66699 7 -3s4.33301 -2.33301 7 -3c72 -34 128.667 -73.667 170 -119c20.667 -22.667 38 -46.667 52 -72s21 -50.333 21 -75c0 -35.333 -14.833 -62 -44.5 -80s-66.167 -31.333 -109.5 -40c-2.66699 -0.666992 -13.167 -1.66699 -31.5 -3
s-38.5 -3.5 -60.5 -6.5s-43.167 -6.83301 -63.5 -11.5s-33.833 -10 -40.5 -16c-10 -10 -15 -25.667 -15 -47c0 -14 1.16699 -29.5 3.5 -46.5s3.5 -35.5 3.5 -55.5v-25.5c0 -9.66699 -1 -18.834 -3 -27.501s-5.33301 -16 -10 -22s-11.667 -9 -21 -9
c-6.66699 0 -11 1.66699 -13 5s-2.66699 7.33301 -2 12s2.16699 9.83398 4.5 15.501s4.16602 11.167 5.49902 16.5zM400.999 435.998l37.998 150.999c-14.667 0 -31.5 -1.33301 -50.5 -4s-39.833 -7.66699 -62.5 -15c-14 -4.66699 -34.333 -12.334 -61 -23.001
s-53.334 -23.167 -80.001 -37.5s-50 -30.166 -70 -47.499s-30 -35 -30 -53c0 -14 6.66699 -28.667 20 -44c22.667 -24.667 54.834 -45.5 96.501 -62.5s87.5 -32.5 137.5 -46.5c6 30 11.333 51.667 16 65c4.66699 16.667 12.334 35.834 23.001 57.501
s18.334 41.5 23.001 59.5zM577.997 512.997l-87.998 55.001c-6 -26.667 -13 -55.5 -21 -86.5l-22.5 -87.5l-18 -70.5c-5 -19.667 -7.5 -32.167 -7.5 -37.5c0 -19.333 1.16699 -34 3.5 -44s11.5 -15 27.5 -15c13.333 0 32.666 2.66699 57.999 8
c15.333 3.33301 30.166 5.5 44.499 6.5s28.166 2.5 41.499 4.5s26 5.16699 38 9.5s23.667 10.833 35 19.5c12.667 10.667 22.334 22.667 29.001 36s10 26.666 10 39.999c0 16 -4.16699 31.833 -12.5 47.5s-19 30.5 -32 44.5s-27 27 -42 39s-29.5 22.333 -43.5 31z
M292.999 628.998l-19.002 21.998c-10.667 10.667 -28.667 16 -54 16c-17.333 0 -35.166 -2.16699 -53.499 -6.5s-33.5 -9.16602 -45.5 -14.499c4.66699 -23.333 12.334 -40.666 23.001 -51.999c10 -10.667 22.667 -16 38 -16c26.667 0 63.667 17 111 51z" />
    <glyph glyph-name="FLW212" unicode="&#x424;" horiz-adv-x="775" 
d="M358 -6c-2.66699 11.333 -5.66797 23.1641 -9.00098 35.4971s-5 25.166 -5 38.499c0 6.66699 -0.5 17.334 -1.5 32.001s-2.66699 29.834 -5 45.501s-5 30.167 -8 43.5s-6.5 22 -10.5 26c0.666992 -0.666992 -3.16602 2.16602 -11.499 8.49902s-20.5 12.833 -36.5 19.5
l-86 34c-23.333 8.66699 -47.666 20.5 -72.999 35.5s-47 32.167 -65 51.5c-18 21.333 -27 42 -27 62c0 21.333 9 43 27 65c8.66699 10.667 16.834 19.334 24.501 26.001l20 17.5c5.66699 5 10 10.333 13 16s4.5 12.834 4.5 21.501c0 10.667 -1.83301 22.5 -5.5 35.5
s-5.5 24.5 -5.5 34.5c0 27.333 8.66699 46.833 26 58.5s38.666 17.5 63.999 17.5c22 0 44.667 -3.16699 68 -9.5s44.333 -13.5 63 -21.5l57 -25l74 -33l8 32c2 8.66699 5.16699 14.334 9.5 17.001s8.83301 4 13.5 4c18 0 27 -6.66699 27 -20c0 -6 -1 -13.5 -3 -22.5
l-7 -32.5c2.66699 -0.666992 5 -1.66699 7 -3s4.33301 -2.33301 7 -3c72 -34 128.667 -73.667 170 -119c20.667 -22.667 38 -46.667 52 -72s21 -50.333 21 -75c0 -35.333 -14.833 -62 -44.5 -80s-66.167 -31.333 -109.5 -40c-2.66699 -0.666992 -13.167 -1.66699 -31.5 -3
s-38.5 -3.5 -60.5 -6.5s-43.167 -6.83301 -63.5 -11.5s-33.833 -10 -40.5 -16c-10 -10 -15 -25.667 -15 -47c0 -14 1.16699 -29.5 3.5 -46.5s3.5 -35.5 3.5 -55.5v-25.5c0 -9.66699 -1 -18.834 -3 -27.501s-5.33301 -16 -10 -22s-11.667 -9 -21 -9
c-6.66699 0 -11 1.66699 -13 5s-2.66699 7.33301 -2 12s2.16699 9.83398 4.5 15.501s4.16602 11.167 5.49902 16.5zM400.999 435.998l37.998 150.999c-14.667 0 -31.5 -1.33301 -50.5 -4s-39.833 -7.66699 -62.5 -15c-14 -4.66699 -34.333 -12.334 -61 -23.001
s-53.334 -23.167 -80.001 -37.5s-50 -30.166 -70 -47.499s-30 -35 -30 -53c0 -14 6.66699 -28.667 20 -44c22.667 -24.667 54.834 -45.5 96.501 -62.5s87.5 -32.5 137.5 -46.5c6 30 11.333 51.667 16 65c4.66699 16.667 12.334 35.834 23.001 57.501
s18.334 41.5 23.001 59.5zM577.997 512.997l-87.998 55.001c-6 -26.667 -13 -55.5 -21 -86.5l-22.5 -87.5l-18 -70.5c-5 -19.667 -7.5 -32.167 -7.5 -37.5c0 -19.333 1.16699 -34 3.5 -44s11.5 -15 27.5 -15c13.333 0 32.666 2.66699 57.999 8
c15.333 3.33301 30.166 5.5 44.499 6.5s28.166 2.5 41.499 4.5s26 5.16699 38 9.5s23.667 10.833 35 19.5c12.667 10.667 22.334 22.667 29.001 36s10 26.666 10 39.999c0 16 -4.16699 31.833 -12.5 47.5s-19 30.5 -32 44.5s-27 27 -42 39s-29.5 22.333 -43.5 31z
M292.999 628.998l-19.002 21.998c-10.667 10.667 -28.667 16 -54 16c-17.333 0 -35.166 -2.16699 -53.499 -6.5s-33.5 -9.16602 -45.5 -14.499c4.66699 -23.333 12.334 -40.666 23.001 -51.999c10 -10.667 22.667 -16 38 -16c26.667 0 63.667 17 111 51z" />
    </font>
</defs>
</svg>
